<?xml version="1.0" encoding="UTF-8" standalone="no"?>
<svg width="1242" height="310" viewBox="0 0 1242 310" fill="none" xmlns="http://www.w3.org/2000/svg">
    <path d="M340.898 -28.5421V334.955" stroke="#F3F0FE" stroke-width="2.11952" />
    <path d="M372.162 -39.6696V309.521" stroke="#F3F0FE" stroke-width="2.11952" />
    <path d="M398.127 -26.4226V138.37" stroke="#F3F0FE" stroke-width="2.11952" />
    <path d="M397.598 210.433V288.855" stroke="#F3F0FE" stroke-width="2.11952" />
    <path d="M418.791 -31.1915V128.832" stroke="#F3F0FE" stroke-width="2.11952" />
    <path d="M418.262 220.501V271.899" stroke="#F3F0FE" stroke-width="2.11952" />
    <path d="M49.9961 -31.1915V388.473" stroke="#F3F0FE" stroke-width="2.11952" />
    <path d="M167.1 -24.8329V394.831" stroke="url(#paint0_linear_5069_11141)" stroke-width="2.11952" />
    <path d="M245.52 -19.5342V35.5732" stroke="#F3F0FE" stroke-width="2.11952" />
    <path d="M245.52 254.413V385.293" stroke="url(#paint1_linear_5069_11141)" stroke-width="2.11952" />
    <path d="M300.1 280.907V375.755" stroke="#F3F0FE" stroke-width="2.11952" />
    <path d="M435.747 35.5732L285.262 -25.3628" stroke="#F3F0FE" stroke-width="2.11952" />
    <path d="M943.373 -19.0043L806.664 35.5732" stroke="#F3F0FE" stroke-width="2.11952" />
    <path d="M-12 -16.8848L419.321 70.5452" stroke="#F3F0FE" stroke-width="2.11952" />
    <path d="M-12 110.816L167.629 109.756" stroke="#F3F0FE" stroke-width="2.11952" />
    <path d="M-11.4707 236.927L199.951 195.067" stroke="#F3F0FE" stroke-width="2.11952" />
    <path d="M330.303 168.043L390.179 156.386" stroke="#F3F0FE" stroke-width="2.11952" />
    <path d="M-12 364.628L244.991 260.772" stroke="#F3F0FE" stroke-width="2.11952" />
    <path d="M317.584 231.628L410.313 194.007" stroke="#F3F0FE" stroke-width="2.11952" />
    <path d="M1252.82 -17.4146L807.191 73.1946" stroke="#F3F0FE" stroke-width="2.11952" />
    <path d="M1256 110.286H1072.13" stroke="#F3F0FE" stroke-width="2.11952" />
    <path d="M902.041 109.756H807.723" stroke="#F3F0FE" stroke-width="2.11952" />
    <path d="M1256 236.397L1086.97 203.015" stroke="#F3F0FE" stroke-width="2.11952" />
    <path d="M902.572 166.983L858.592 157.445" stroke="#F3F0FE" stroke-width="2.11952" />
    <path d="M1253.35 363.038L987.352 256.533" stroke="#F3F0FE" stroke-width="2.11952" />
    <path d="M920.057 230.039L841.105 197.716" stroke="#F3F0FE" stroke-width="2.11952" />
    <path d="M340.369 110.286H434.688" stroke="#F3F0FE" stroke-width="2.11952" />
    <path d="M197.832 364.628L434.688 221.561" stroke="#F3F0FE" stroke-width="2.11952" />
    <path d="M1044.58 364.628L806.664 221.561" stroke="#F3F0FE" stroke-width="2.11952" />
    <path d="M435.219 258.652L275.195 388.473" stroke="#F3F0FE" stroke-width="2.11952" />
    <path d="M1193.47 -34.3708V389.002" stroke="url(#paint2_linear_5069_11141)"
        stroke-width="2.11952" />
    <path d="M1075.84 -35.9604V149.497" stroke="#F3F0FE" stroke-width="2.11952" />
    <path d="M1075.84 249.114V445.17" stroke="url(#paint3_linear_5069_11141)" stroke-width="2.11952" />
    <path d="M996.889 260.772V390.592" stroke="url(#paint4_linear_5069_11141)"
        stroke-width="2.11952" />
    <path d="M997.949 -26.4226V33.4537" stroke="#F3F0FE" stroke-width="2.11952" />
    <path d="M942.842 -31.1915V45.111" stroke="#F3F0FE" stroke-width="2.11952" />
    <path d="M902.041 -34.9006V334.425" stroke="#F3F0FE" stroke-width="2.11952" />
    <path d="M870.248 -39.1397V308.991" stroke="#F3F0FE" stroke-width="2.11952" />
    <path d="M845.875 -35.9604V139.959" stroke="#F3F0FE" stroke-width="2.11952" />
    <path d="M823.619 -25.3628V139.959" stroke="#F3F0FE" stroke-width="2.11952" />
    <path d="M845.875 213.613V289.385" stroke="#F3F0FE" stroke-width="2.11952" />
    <path d="M824.678 206.194V272.429" stroke="#F3F0FE" stroke-width="2.11952" />
    <path d="M943.9 252.294V366.748" stroke="#F3F0FE" stroke-width="2.11952" />
    <path d="M807.191 258.652L975.163 392.712" stroke="#F3F0FE" stroke-width="2.11952" />
    <path
        d="M416.99 48.4752C417.137 48.4703 417.216 48.5524 417.272 48.6707C417.475 49.0969 417.676 49.524 417.888 49.9453C417.925 50.0176 418.002 50.089 418.078 50.1242C418.51 50.3216 418.948 50.5093 419.384 50.6989C419.51 50.7527 419.611 50.8241 419.613 50.9697C419.615 51.1232 419.511 51.1965 419.38 51.2532C418.939 51.4438 418.497 51.6344 418.06 51.8328C417.987 51.868 417.928 51.9247 417.891 51.9951C417.684 52.4095 417.488 52.8269 417.289 53.2443C417.231 53.3665 417.165 53.473 417 53.475C416.828 53.4769 416.758 53.3684 416.698 53.2404C416.499 52.823 416.303 52.4046 416.095 51.9912C416.062 51.9257 415.993 51.8621 415.924 51.8309C415.487 51.6324 415.045 51.4418 414.604 51.2512C414.478 51.1975 414.377 51.1261 414.375 50.9805C414.373 50.828 414.477 50.7537 414.608 50.697C415.049 50.5064 415.491 50.3158 415.928 50.1173C416.001 50.0822 416.06 50.0255 416.097 49.9551C416.308 49.5328 416.51 49.1057 416.712 48.6795C416.767 48.5632 416.841 48.4742 416.99 48.4752Z"
        fill="#FFD10D" />
    <path
        d="M230.615 57.0002C230.762 56.9953 230.841 57.0774 230.897 57.1957C231.1 57.6219 231.301 58.049 231.513 58.4703C231.55 58.5427 231.627 58.614 231.703 58.6492C232.135 58.8467 232.573 59.0343 233.009 59.224C233.135 59.2777 233.236 59.3491 233.238 59.4947C233.24 59.6482 233.136 59.7215 233.005 59.7782C232.564 59.9688 232.122 60.1594 231.685 60.3578C231.612 60.393 231.553 60.4497 231.516 60.5201C231.309 60.9345 231.113 61.3519 230.914 61.7693C230.856 61.8915 230.79 61.998 230.625 62C230.453 62.0019 230.383 61.8934 230.323 61.7654C230.124 61.348 229.928 60.9296 229.72 60.5162C229.687 60.4507 229.618 60.3871 229.549 60.3559C229.112 60.1574 228.67 59.9668 228.229 59.7762C228.103 59.7225 228.002 59.6511 228 59.5055C227.998 59.353 228.102 59.2787 228.233 59.222C228.674 59.0314 229.116 58.8408 229.553 58.6424C229.626 58.6072 229.685 58.5505 229.722 58.4801C229.933 58.0578 230.135 57.6307 230.337 57.2045C230.392 57.0882 230.466 56.9992 230.615 57.0002Z"
        fill="#FFD10D" />
    <path
        d="M348.615 101C348.762 100.995 348.841 101.077 348.897 101.196C349.1 101.622 349.301 102.049 349.513 102.47C349.55 102.543 349.627 102.614 349.703 102.649C350.135 102.847 350.573 103.034 351.009 103.224C351.135 103.278 351.236 103.349 351.238 103.495C351.24 103.648 351.136 103.721 351.005 103.778C350.564 103.969 350.122 104.159 349.685 104.358C349.612 104.393 349.553 104.45 349.516 104.52C349.309 104.935 349.113 105.352 348.914 105.769C348.856 105.891 348.79 105.998 348.625 106C348.453 106.002 348.383 105.893 348.323 105.765C348.124 105.348 347.928 104.93 347.72 104.516C347.687 104.451 347.618 104.387 347.549 104.356C347.112 104.157 346.67 103.967 346.229 103.776C346.103 103.722 346.002 103.651 346 103.505C345.998 103.353 346.102 103.279 346.233 103.222C346.674 103.031 347.116 102.841 347.553 102.642C347.626 102.607 347.685 102.55 347.722 102.48C347.933 102.058 348.135 101.631 348.337 101.204C348.392 101.088 348.466 100.999 348.615 101Z"
        fill="#FFD10D" />
    <path
        d="M338.996 144.591C339.109 144.587 339.169 144.65 339.212 144.74C339.367 145.066 339.521 145.392 339.683 145.714C339.711 145.769 339.769 145.823 339.828 145.85C340.158 146.001 340.492 146.144 340.825 146.289C340.921 146.33 340.998 146.385 341 146.496C341.002 146.613 340.922 146.669 340.822 146.712C340.485 146.858 340.147 147.004 339.814 147.155C339.758 147.182 339.713 147.225 339.685 147.279C339.527 147.595 339.377 147.914 339.225 148.233C339.181 148.326 339.13 148.408 339.004 148.409C338.873 148.41 338.82 148.328 338.774 148.23C338.622 147.911 338.472 147.592 338.314 147.276C338.289 147.226 338.235 147.177 338.183 147.154C337.849 147.002 337.512 146.856 337.175 146.711C337.079 146.67 337.002 146.615 337 146.504C336.998 146.388 337.078 146.331 337.178 146.288C337.515 146.142 337.853 145.997 338.186 145.845C338.242 145.818 338.287 145.775 338.315 145.721C338.476 145.399 338.63 145.073 338.785 144.747C338.827 144.658 338.883 144.59 338.996 144.591Z"
        fill="#FFD10D" />
    <g opacity="0.56">
        <path
            d="M496.492 106C496.745 105.992 496.881 106.133 496.977 106.336C497.325 107.068 497.672 107.802 498.036 108.526C498.099 108.65 498.231 108.773 498.363 108.834C499.105 109.173 499.857 109.495 500.606 109.821C500.822 109.913 500.996 110.036 501 110.286C501.003 110.55 500.824 110.676 500.599 110.773C499.841 111.101 499.082 111.428 498.331 111.769C498.206 111.83 498.104 111.927 498.041 112.048C497.686 112.76 497.348 113.477 497.007 114.194C496.907 114.404 496.793 114.587 496.51 114.591C496.214 114.594 496.095 114.408 495.991 114.188C495.65 113.47 495.312 112.752 494.955 112.041C494.899 111.929 494.78 111.82 494.662 111.766C493.911 111.425 493.152 111.097 492.394 110.77C492.178 110.678 492.004 110.555 492 110.305C491.997 110.043 492.176 109.915 492.401 109.818C493.159 109.49 493.918 109.163 494.669 108.822C494.794 108.761 494.896 108.664 494.959 108.543C495.321 107.817 495.668 107.084 496.016 106.351C496.111 106.152 496.237 105.999 496.492 106Z"
            fill="#FFD10D" />
    </g>
    <g opacity="0.56">
        <path
            d="M795.492 227C795.745 226.992 795.881 227.133 795.977 227.336C796.325 228.068 796.672 228.802 797.036 229.526C797.099 229.65 797.231 229.773 797.363 229.834C798.105 230.173 798.857 230.495 799.606 230.821C799.822 230.913 799.996 231.036 800 231.286C800.003 231.55 799.824 231.676 799.599 231.773C798.841 232.101 798.082 232.428 797.331 232.769C797.206 232.83 797.104 232.927 797.041 233.048C796.686 233.76 796.348 234.477 796.007 235.194C795.907 235.404 795.793 235.587 795.51 235.591C795.214 235.594 795.095 235.408 794.991 235.188C794.65 234.47 794.312 233.752 793.955 233.041C793.899 232.929 793.78 232.82 793.662 232.766C792.911 232.425 792.152 232.097 791.394 231.77C791.178 231.678 791.004 231.555 791 231.305C790.997 231.043 791.176 230.915 791.401 230.818C792.159 230.49 792.918 230.163 793.669 229.822C793.794 229.761 793.896 229.664 793.959 229.543C794.321 228.817 794.668 228.084 795.016 227.351C795.111 227.152 795.237 226.999 795.492 227Z"
            fill="#FFD10D" />
    </g>
    <g opacity="0.56">
        <path
            d="M799.494 277.955C799.691 277.948 799.796 278.058 799.871 278.216C800.142 278.786 800.411 279.356 800.694 279.919C800.744 280.016 800.846 280.111 800.949 280.158C801.526 280.422 802.111 280.673 802.694 280.926C802.862 280.998 802.997 281.094 803 281.288C803.003 281.493 802.863 281.591 802.688 281.667C802.099 281.922 801.508 282.176 800.924 282.442C800.827 282.489 800.748 282.564 800.699 282.658C800.422 283.212 800.16 283.77 799.895 284.328C799.817 284.491 799.728 284.633 799.508 284.636C799.278 284.639 799.185 284.494 799.104 284.323C798.839 283.765 798.576 283.206 798.299 282.653C798.255 282.566 798.162 282.481 798.07 282.439C797.486 282.174 796.896 281.919 796.306 281.664C796.138 281.593 796.003 281.497 796 281.303C795.997 281.099 796.137 281 796.312 280.924C796.901 280.669 797.492 280.414 798.076 280.149C798.173 280.102 798.252 280.026 798.301 279.932C798.583 279.368 798.853 278.797 799.123 278.228C799.197 278.072 799.296 277.953 799.494 277.955Z"
            fill="#FFD10D" />
    </g>
    <g opacity="0.56">
        <path
            d="M482.494 206C482.691 205.994 482.796 206.103 482.871 206.262C483.142 206.831 483.411 207.402 483.694 207.965C483.744 208.061 483.846 208.157 483.949 208.204C484.526 208.468 485.111 208.719 485.694 208.972C485.862 209.044 485.997 209.139 486 209.334C486.003 209.539 485.863 209.637 485.688 209.713C485.099 209.967 484.508 210.222 483.924 210.487C483.827 210.534 483.748 210.61 483.699 210.704C483.422 211.258 483.16 211.816 482.895 212.373C482.817 212.537 482.728 212.679 482.508 212.682C482.278 212.684 482.185 212.539 482.104 212.368C481.839 211.81 481.576 211.251 481.299 210.699C481.255 210.611 481.162 210.526 481.07 210.485C480.486 210.219 479.896 209.965 479.306 209.71C479.138 209.638 479.003 209.543 479 209.348C478.997 209.144 479.137 209.045 479.312 208.969C479.901 208.715 480.492 208.46 481.076 208.195C481.173 208.148 481.252 208.072 481.301 207.978C481.583 207.414 481.853 206.843 482.123 206.273C482.197 206.118 482.296 205.999 482.494 206Z"
            fill="#FFD10D" />
    </g>
    <g filter="url(#filter0_d_5069_11141)">
        <circle cx="351.747" cy="68.7475" r="0.7475" fill="#7849F7" />
    </g>
    <path
        d="M583.078 59.0002C583.251 58.9945 583.344 59.0911 583.41 59.2304C583.649 59.732 583.886 60.2348 584.135 60.7307C584.179 60.8159 584.269 60.8999 584.359 60.9413C584.868 61.1737 585.383 61.3946 585.896 61.6178C586.044 61.6811 586.164 61.7651 586.166 61.9365C586.168 62.1172 586.046 62.2035 585.891 62.2702C585.372 62.4946 584.852 62.7189 584.338 62.9525C584.252 62.9939 584.182 63.0607 584.139 63.1435C583.895 63.6314 583.664 64.1227 583.431 64.614C583.362 64.7578 583.284 64.8832 583.09 64.8855C582.887 64.8878 582.805 64.7601 582.734 64.6094C582.501 64.1181 582.269 63.6256 582.025 63.1389C581.986 63.0618 581.904 62.987 581.824 62.9502C581.309 62.7166 580.789 62.4923 580.27 62.2679C580.122 62.2046 580.002 62.1206 580 61.9492C579.998 61.7697 580.12 61.6823 580.275 61.6155C580.794 61.3912 581.314 61.1668 581.828 60.9332C581.914 60.8918 581.984 60.8251 582.027 60.7422C582.275 60.2452 582.513 59.7424 582.751 59.2407C582.816 59.1038 582.903 58.9991 583.078 59.0002Z"
        fill="#FFD10D" />
    <g opacity="0.08">
        <path
            d="M771.275 21.0005C771.629 20.9888 771.818 21.1858 771.953 21.4697C772.439 22.4925 772.923 23.5177 773.431 24.5288C773.52 24.7024 773.704 24.8736 773.888 24.9581C774.924 25.432 775.975 25.8824 777.022 26.3375C777.324 26.4665 777.567 26.6378 777.572 26.9873C777.577 27.3556 777.326 27.5316 777.012 27.6676C775.953 28.1251 774.892 28.5825 773.844 29.0588C773.669 29.1432 773.527 29.2793 773.439 29.4482C772.942 30.4429 772.471 31.4446 771.994 32.4463C771.854 32.7395 771.695 32.9952 771.299 32.9999C770.887 33.0046 770.72 32.7442 770.575 32.4369C770.099 31.4352 769.627 30.4311 769.128 29.4388C769.05 29.2816 768.883 29.1292 768.718 29.0541C767.67 28.5779 766.609 28.1204 765.55 27.6629C765.248 27.5339 765.005 27.3627 765 27.0131C764.995 26.6472 765.246 26.4689 765.56 26.3328C766.619 25.8753 767.679 25.4179 768.728 24.9417C768.902 24.8572 769.045 24.7211 769.133 24.5522C769.639 23.5388 770.123 22.5136 770.609 21.4908C770.742 21.2116 770.919 20.9982 771.275 21.0005Z"
            fill="#FFD10D" />
    </g>
    <g filter="url(#filter1_d_5069_11141)">
        <circle cx="715.617" cy="83.6075" r="0.7475" fill="#7849F7" />
    </g>
    <path
        d="M1037.99 108.564C1038.16 108.558 1038.25 108.652 1038.32 108.788C1038.55 109.276 1038.78 109.765 1039.02 110.248C1039.07 110.33 1039.15 110.412 1039.24 110.452C1039.74 110.679 1040.24 110.894 1040.74 111.111C1040.88 111.172 1041 111.254 1041 111.421C1041 111.597 1040.88 111.681 1040.73 111.746C1040.23 111.964 1039.72 112.182 1039.22 112.41C1039.14 112.45 1039.07 112.515 1039.03 112.595C1038.79 113.07 1038.57 113.548 1038.34 114.026C1038.27 114.166 1038.2 114.288 1038.01 114.291C1037.81 114.293 1037.73 114.168 1037.66 114.022C1037.43 113.544 1037.21 113.065 1036.97 112.591C1036.93 112.516 1036.85 112.443 1036.77 112.407C1036.27 112.18 1035.77 111.962 1035.26 111.743C1035.12 111.682 1035 111.6 1035 111.433C1035 111.259 1035.12 111.174 1035.27 111.109C1035.77 110.89 1036.28 110.672 1036.78 110.445C1036.86 110.404 1036.93 110.339 1036.97 110.259C1037.21 109.775 1037.45 109.286 1037.68 108.798C1037.74 108.664 1037.82 108.563 1037.99 108.564Z"
        fill="#FFD10D" />
    <path
        d="M993.985 51.0002C994.153 50.9947 994.243 51.0884 994.307 51.2234C994.538 51.7099 994.769 52.1976 995.01 52.6785C995.052 52.7611 995.14 52.8426 995.228 52.8827C995.721 53.1081 996.221 53.3224 996.718 53.5389C996.862 53.6002 996.978 53.6817 996.98 53.848C996.982 54.0231 996.863 54.1068 996.714 54.1716C996.21 54.3892 995.705 54.6068 995.207 54.8333C995.124 54.8734 995.056 54.9382 995.014 55.0185C994.778 55.4916 994.554 55.9681 994.327 56.4446C994.26 56.5841 994.185 56.7057 993.996 56.708C993.8 56.7102 993.721 56.5863 993.652 56.4401C993.425 55.9637 993.201 55.4861 992.964 55.014C992.926 54.9393 992.847 54.8668 992.769 54.831C992.27 54.6045 991.765 54.3869 991.262 54.1693C991.118 54.108 991.002 54.0265 991 53.8602C990.998 53.6862 991.117 53.6013 991.266 53.5366C991.77 53.319 992.275 53.1014 992.773 52.8749C992.856 52.8347 992.924 52.77 992.966 52.6897C993.207 52.2076 993.437 51.72 993.668 51.2335C993.731 51.1007 993.815 50.9991 993.985 51.0002Z"
        fill="#FFD10D" />
    <g filter="url(#filter2_d_5069_11141)">
        <circle cx="938.372" cy="41.7475" r="0.7475" fill="#7849F7" />
    </g>
    <path
        d="M912.496 69.0409C912.636 69.0362 912.711 69.1146 912.765 69.2275C912.959 69.6343 913.151 70.042 913.353 70.4442C913.388 70.5132 913.462 70.5813 913.535 70.6149C913.947 70.8034 914.365 70.9825 914.781 71.1635C914.901 71.2148 914.998 71.2829 915 71.4219C915.002 71.5684 914.902 71.6384 914.777 71.6925C914.356 71.8745 913.934 72.0564 913.517 72.2458C913.448 72.2794 913.391 72.3335 913.356 72.4007C913.159 72.7963 912.971 73.1947 912.782 73.5931C912.726 73.7097 912.663 73.8114 912.505 73.8132C912.341 73.8151 912.275 73.7115 912.217 73.5893C912.028 73.1909 911.84 72.7916 911.642 72.3969C911.611 72.3344 911.544 72.2738 911.479 72.2439C911.062 72.0545 910.64 71.8726 910.219 71.6907C910.099 71.6393 910.002 71.5712 910 71.4322C909.998 71.2867 910.098 71.2158 910.223 71.1616C910.644 70.9797 911.066 70.7978 911.483 70.6084C911.552 70.5748 911.609 70.5207 911.644 70.4535C911.845 70.0504 912.038 69.6427 912.231 69.2359C912.284 69.1249 912.354 69.04 912.496 69.0409Z"
        fill="#FFD10D" />
    <defs>
        <filter id="filter0_d_5069_11141" x="343.564" y="62.423" width="16.3662" height="16.367"
            filterUnits="userSpaceOnUse" color-interpolation-filters="sRGB">
            <feFlood flood-opacity="0" result="BackgroundImageFix" />
            <feColorMatrix in="SourceAlpha" type="matrix"
                values="0 0 0 0 0 0 0 0 0 0 0 0 0 0 0 0 0 0 127 0" result="hardAlpha" />
            <feOffset dy="1.859" />
            <feGaussianBlur stdDeviation="3.71801" />
            <feComposite in2="hardAlpha" operator="out" />
            <feColorMatrix type="matrix"
                values="0 0 0 0 0.403922 0 0 0 0 0.239216 0 0 0 0 0.870588 0 0 0 0.12 0" />
            <feBlend mode="normal" in2="BackgroundImageFix" result="effect1_dropShadow_5069_11141" />
            <feBlend mode="normal" in="SourceGraphic" in2="effect1_dropShadow_5069_11141"
                result="shape" />
        </filter>
        <filter id="filter1_d_5069_11141" x="707.433" y="77.283" width="16.3662" height="16.367"
            filterUnits="userSpaceOnUse" color-interpolation-filters="sRGB">
            <feFlood flood-opacity="0" result="BackgroundImageFix" />
            <feColorMatrix in="SourceAlpha" type="matrix"
                values="0 0 0 0 0 0 0 0 0 0 0 0 0 0 0 0 0 0 127 0" result="hardAlpha" />
            <feOffset dy="1.859" />
            <feGaussianBlur stdDeviation="3.71801" />
            <feComposite in2="hardAlpha" operator="out" />
            <feColorMatrix type="matrix"
                values="0 0 0 0 0.403922 0 0 0 0 0.239216 0 0 0 0 0.870588 0 0 0 0.12 0" />
            <feBlend mode="normal" in2="BackgroundImageFix" result="effect1_dropShadow_5069_11141" />
            <feBlend mode="normal" in="SourceGraphic" in2="effect1_dropShadow_5069_11141"
                result="shape" />
        </filter>
        <filter id="filter2_d_5069_11141" x="930.189" y="35.423" width="16.3662" height="16.367"
            filterUnits="userSpaceOnUse" color-interpolation-filters="sRGB">
            <feFlood flood-opacity="0" result="BackgroundImageFix" />
            <feColorMatrix in="SourceAlpha" type="matrix"
                values="0 0 0 0 0 0 0 0 0 0 0 0 0 0 0 0 0 0 127 0" result="hardAlpha" />
            <feOffset dy="1.859" />
            <feGaussianBlur stdDeviation="3.71801" />
            <feComposite in2="hardAlpha" operator="out" />
            <feColorMatrix type="matrix"
                values="0 0 0 0 0.403922 0 0 0 0 0.239216 0 0 0 0 0.870588 0 0 0 0.12 0" />
            <feBlend mode="normal" in2="BackgroundImageFix" result="effect1_dropShadow_5069_11141" />
            <feBlend mode="normal" in="SourceGraphic" in2="effect1_dropShadow_5069_11141"
                result="shape" />
        </filter>
        <linearGradient id="paint0_linear_5069_11141" x1="167.6" y1="-24.8329" x2="167.6"
            y2="394.831" gradientUnits="userSpaceOnUse">
            <stop offset="0.630208" stop-color="#F3F0FE" />
            <stop offset="1" stop-color="#C5B6FD" />
        </linearGradient>
        <linearGradient id="paint1_linear_5069_11141" x1="246.02" y1="254.413" x2="246.02"
            y2="385.293" gradientUnits="userSpaceOnUse">
            <stop stop-color="#F3F0FE" />
            <stop offset="1" stop-color="#B9A6FF" />
        </linearGradient>
        <linearGradient id="paint2_linear_5069_11141" x1="1193.97" y1="-34.3708" x2="1193.97"
            y2="389.002" gradientUnits="userSpaceOnUse">
            <stop offset="0.614583" stop-color="#F3F0FE" />
            <stop offset="1" stop-color="#D3C7FF" />
        </linearGradient>
        <linearGradient id="paint3_linear_5069_11141" x1="1076.34" y1="249.114" x2="1076.34"
            y2="445.17" gradientUnits="userSpaceOnUse">
            <stop stop-color="#F3F0FE" />
            <stop offset="1" stop-color="#B0A2E3" />
        </linearGradient>
        <linearGradient id="paint4_linear_5069_11141" x1="997.389" y1="260.772" x2="997.389"
            y2="390.592" gradientUnits="userSpaceOnUse">
            <stop stop-color="#F3F0FE" />
            <stop offset="1" stop-color="#A494DE" />
        </linearGradient>
    </defs>
</svg>
    