<svg width="13" height="12" viewBox="0 0 13 12" fill="none" xmlns="http://www.w3.org/2000/svg">
<g id="Icon/Solid/input close">
<g id="Vector">
<path fill-rule="evenodd" clip-rule="evenodd" d="M3.39645 2.64645C3.59171 2.45118 3.90829 2.45118 4.10355 2.64645L6.75 5.29289L9.39645 2.64645C9.59171 2.45118 9.90829 2.45118 10.1036 2.64645C10.2988 2.84171 10.2988 3.15829 10.1036 3.35355L7.45711 6L10.1036 8.64645C10.2988 8.84171 10.2988 9.15829 10.1036 9.35355C9.90829 9.54882 9.59171 9.54882 9.39645 9.35355L6.75 6.70711L4.10355 9.35355C3.90829 9.54882 3.59171 9.54882 3.39645 9.35355C3.20118 9.15829 3.20118 8.84171 3.39645 8.64645L6.04289 6L3.39645 3.35355C3.20118 3.15829 3.20118 2.84171 3.39645 2.64645Z" fill="#191919"/>
<path fill-rule="evenodd" clip-rule="evenodd" d="M3.04289 2.29289C3.43342 1.90237 4.06658 1.90237 4.45711 2.29289L6.75 4.58579L9.04289 2.29289C9.43342 1.90237 10.0666 1.90237 10.4571 2.29289C10.8476 2.68342 10.8476 3.31658 10.4571 3.70711L8.16421 6L10.4571 8.29289C10.8476 8.68342 10.8476 9.31658 10.4571 9.70711C10.0666 10.0976 9.43342 10.0976 9.04289 9.70711L6.75 7.41421L4.45711 9.70711C4.06658 10.0976 3.43342 10.0976 3.04289 9.70711C2.65237 9.31658 2.65237 8.68342 3.04289 8.29289L5.33579 6L3.04289 3.70711C2.65237 3.31658 2.65237 2.68342 3.04289 2.29289ZM6.75 5.79289C6.61739 5.79289 6.49022 5.74021 6.39645 5.64645C6.49022 5.74021 6.54289 5.86739 6.54289 6C6.54289 6.13261 6.49022 6.25979 6.39645 6.35355C6.49022 6.25978 6.61739 6.20711 6.75 6.20711C6.88261 6.20711 7.00979 6.25978 7.10355 6.35355C6.90829 6.15829 6.90829 5.84171 7.10355 5.64645C7.00979 5.74021 6.88261 5.79289 6.75 5.79289Z" fill="#191919"/>
</g>
</g>
</svg>
