<svg width="20" height="20" viewBox="0 0 20 20" fill="none" xmlns="http://www.w3.org/2000/svg">
<g id="Icon/Solid/x-circle">
<path id="Vector" fill-rule="evenodd" clip-rule="evenodd" d="M10 1.875C5.51269 1.875 1.875 5.51269 1.875 10C1.875 14.4873 5.51269 18.125 10 18.125C14.4873 18.125 18.125 14.4873 18.125 10C18.125 5.51269 14.4873 1.875 10 1.875ZM8.56694 7.68306C8.32286 7.43898 7.92714 7.43898 7.68306 7.68306C7.43898 7.92714 7.43898 8.32286 7.68306 8.56694L9.11612 10L7.68306 11.4331C7.43898 11.6771 7.43898 12.0729 7.68306 12.3169C7.92714 12.561 8.32286 12.561 8.56694 12.3169L10 10.8839L11.4331 12.3169C11.6771 12.561 12.0729 12.561 12.3169 12.3169C12.561 12.0729 12.561 11.6771 12.3169 11.4331L10.8839 10L12.3169 8.56694C12.561 8.32286 12.561 7.92714 12.3169 7.68306C12.0729 7.43898 11.6771 7.43898 11.4331 7.68306L10 9.11612L8.56694 7.68306Z" fill="#697488"/>
</g>
</svg>
