<svg width="21" height="20" viewBox="0 0 21 20" fill="none" xmlns="http://www.w3.org/2000/svg">
<path fill-rule="evenodd" clip-rule="evenodd" d="M14.2501 3.73182V3.92081C15.0457 3.99365 15.8347 4.08942 16.6165 4.20748C16.9059 4.25119 17.1944 4.29796 17.4818 4.34775C17.8219 4.40666 18.0498 4.73014 17.9909 5.07025C17.932 5.41036 17.6085 5.63832 17.2684 5.5794C17.2104 5.56936 17.1524 5.55944 17.0943 5.54964L16.2564 16.4417C16.1562 17.7442 15.0701 18.75 13.7638 18.75H7.23641C5.93007 18.75 4.84397 17.7442 4.74377 16.4417L3.90592 5.54964C3.84783 5.55944 3.78978 5.56936 3.73178 5.5794C3.39167 5.63832 3.06819 5.41036 3.00927 5.07025C2.95036 4.73014 3.17831 4.40666 3.51843 4.34775C3.80584 4.29796 4.09429 4.25119 4.38373 4.20748C5.16548 4.08942 5.9545 3.99365 6.7501 3.92081V3.73182C6.7501 2.4281 7.76055 1.31515 9.0963 1.27242C9.56243 1.25751 10.0304 1.25 10.5001 1.25C10.9698 1.25 11.4378 1.25751 11.9039 1.27242C13.2397 1.31515 14.2501 2.4281 14.2501 3.73182ZM9.13627 2.52178C9.58908 2.5073 10.0437 2.5 10.5001 2.5C10.9565 2.5 11.4111 2.5073 11.8639 2.52178C12.4928 2.5419 13.0001 3.06994 13.0001 3.73182V3.82569C12.1731 3.77547 11.3396 3.75 10.5001 3.75C9.66065 3.75 8.82707 3.77547 8.0001 3.82569V3.73182C8.0001 3.06994 8.50742 2.5419 9.13627 2.52178ZM8.8406 7.47598C8.82734 7.13106 8.53697 6.8622 8.19204 6.87546C7.84712 6.88873 7.57826 7.1791 7.59153 7.52402L7.87999 15.024C7.89325 15.3689 8.18362 15.6378 8.52855 15.6245C8.87347 15.6113 9.14233 15.3209 9.12906 14.976L8.8406 7.47598ZM13.4079 7.52402C13.4212 7.1791 13.1523 6.88873 12.8074 6.87546C12.4625 6.8622 12.1721 7.13106 12.1588 7.47598L11.8704 14.976C11.8571 15.3209 12.126 15.6113 12.4709 15.6245C12.8158 15.6378 13.1062 15.3689 13.1194 15.024L13.4079 7.52402Z" fill="#697488"/>
</svg>
