<svg width="20" height="20" viewBox="0 0 20 20" fill="none" xmlns="http://www.w3.org/2000/svg">
<path fill-rule="evenodd" clip-rule="evenodd" d="M4.60356 4.60331C4.91777 4.2891 5.42722 4.2891 5.74143 4.60331L10.0001 8.86196L14.2587 4.60332C14.5729 4.2891 15.0824 4.2891 15.3966 4.60332C15.7108 4.91753 15.7108 5.42697 15.3966 5.74119L11.138 9.99984L15.3966 14.2585C15.7108 14.5727 15.7108 15.0821 15.3966 15.3964C15.0824 15.7106 14.5729 15.7106 14.2587 15.3964L10.0001 11.1377L5.74143 15.3964C5.42722 15.7106 4.91777 15.7106 4.60356 15.3964C4.28934 15.0821 4.28934 14.5727 4.60356 14.2585L8.86221 9.99984L4.60356 5.74119C4.28934 5.42697 4.28934 4.91753 4.60356 4.60331Z" fill="#697488"/>
<path fill-rule="evenodd" clip-rule="evenodd" d="M4.46132 4.46108C4.85409 4.06831 5.4909 4.06831 5.88367 4.46108L10.0001 8.5775L14.1165 4.46108C14.5093 4.06831 15.1461 4.06831 15.5388 4.46108C15.9316 4.85385 15.9316 5.49065 15.5388 5.88342L11.4224 9.99984L15.5388 14.1163C15.9316 14.509 15.9316 15.1458 15.5388 15.5386C15.1461 15.9314 14.5093 15.9314 14.1165 15.5386L10.0001 11.4222L5.88367 15.5386C5.4909 15.9314 4.85409 15.9314 4.46132 15.5386C4.06856 15.1458 4.06856 14.509 4.46132 14.1163L8.57774 9.99984L4.46132 5.88342C4.06856 5.49065 4.06856 4.85385 4.46132 4.46108ZM5.5992 4.74555C5.36354 4.50989 4.98145 4.50989 4.74579 4.74555C4.51013 4.98121 4.51013 5.36329 4.74579 5.59895L9.00444 9.8576C9.04217 9.89533 9.06336 9.94649 9.06336 9.99984C9.06336 10.0532 9.04217 10.1043 9.00444 10.1421L4.74579 14.4007C4.51013 14.6364 4.51013 15.0185 4.74579 15.2541C4.98145 15.4898 5.36354 15.4898 5.5992 15.2541L9.85785 10.9955C9.9364 10.9169 10.0638 10.9169 10.1423 10.9955L14.401 15.2541C14.6366 15.4898 15.0187 15.4898 15.2544 15.2541C15.49 15.0185 15.49 14.6364 15.2544 14.4007L10.9957 10.1421C10.9172 10.0635 10.9172 9.93616 10.9957 9.8576L15.2544 5.59895C15.49 5.36329 15.49 4.98121 15.2544 4.74555C15.0187 4.50989 14.6366 4.50989 14.401 4.74555L10.1423 9.0042C10.0638 9.08275 9.9364 9.08275 9.85785 9.0042L5.5992 4.74555Z" fill="#697488"/>
</svg>
