<svg width="37" height="36" viewBox="0 0 37 36" fill="none" xmlns="http://www.w3.org/2000/svg">
<rect x="0.5" width="36" height="36" rx="8" fill="#EBF6ED"/>
<path fill-rule="evenodd" clip-rule="evenodd" d="M18.5 26C22.9183 26 26.5 22.4183 26.5 18C26.5 13.5817 22.9183 10 18.5 10C14.0817 10 10.5 13.5817 10.5 18C10.5 22.4183 14.0817 26 18.5 26ZM22.2071 16.7071C22.5976 16.3166 22.5976 15.6834 22.2071 15.2929C21.8166 14.9024 21.1834 14.9024 20.7929 15.2929L17.5 18.5858L16.2071 17.2929C15.8166 16.9024 15.1834 16.9024 14.7929 17.2929C14.4024 17.6834 14.4024 18.3166 14.7929 18.7071L16.7929 20.7071C17.1834 21.0976 17.8166 21.0976 18.2071 20.7071L22.2071 16.7071Z" fill="#05751F"/>
</svg>
