<svg width="22" height="22" viewBox="0 0 22 22" fill="none" xmlns="http://www.w3.org/2000/svg">
<path fill-rule="evenodd" clip-rule="evenodd" d="M0 0H22V11.8762V15.092V22H0V10.8043V9.273V0Z" fill="#016FD0"/>
<path fill-rule="evenodd" clip-rule="evenodd" d="M4.27075 15.3303V11.8765H7.92788L8.32034 12.388L8.72563 11.8765H22.0001V15.0923C22.0001 15.0923 21.653 15.327 21.2515 15.3305H13.9011L13.4587 14.786V15.3305H12.009V14.4011C12.009 14.4011 11.811 14.5308 11.3829 14.5308H10.8895V15.3305H8.69459L8.30274 14.808L7.90491 15.3305L4.27075 15.3303Z" fill="white"/>
<path fill-rule="evenodd" clip-rule="evenodd" d="M0 9.27302L0.824756 7.35034H2.25097L2.71896 8.42736V7.35034H4.49191L4.77058 8.12878L5.04069 7.35034H12.9993V7.7417C12.9993 7.7417 13.4177 7.35034 14.1053 7.35034L16.6876 7.35939L17.1475 8.42223V7.35034H18.6312L19.0395 7.96084V7.35034H20.5369V10.8043H19.0395L18.6482 10.1919V10.8043H16.4682L16.249 10.2598H15.6629L15.4473 10.8043H13.969C13.3773 10.8043 12.9992 10.4209 12.9992 10.4209V10.8043H10.7703L10.3279 10.2598V10.8043H2.03964L1.82062 10.2598H1.23652L1.01909 10.8043H0V9.27302Z" fill="white"/>
<path fill-rule="evenodd" clip-rule="evenodd" d="M1.11662 7.77612L0.00427246 10.3623H0.728439L0.93365 9.84449H2.12678L2.33102 10.3623H3.07119L1.95995 7.77612H1.11662ZM1.52814 8.37807L1.89187 9.283H1.16343L1.52814 8.37807Z" fill="#016FD0"/>
<path fill-rule="evenodd" clip-rule="evenodd" d="M3.14771 10.3617V7.77563L4.17682 7.77942L4.77546 9.4469L5.35968 7.77563H6.38048V10.3619H5.73393V8.45617L5.04863 10.3619H4.48164L3.79426 8.45617V10.3619L3.14771 10.3617Z" fill="#016FD0"/>
<path fill-rule="evenodd" clip-rule="evenodd" d="M6.823 10.3617V7.77563H8.9328V8.35411H7.47627V8.79643H8.89882V9.34093H7.47627V9.80036H8.9328V10.3617H6.823Z" fill="#016FD0"/>
<path fill-rule="evenodd" clip-rule="evenodd" d="M9.30713 7.77612V10.3623H9.95368V9.4436H10.226L11.0011 10.3623H11.7913L10.9405 9.4095C11.2896 9.38005 11.6498 9.08036 11.6498 8.61518C11.6498 8.07092 11.2226 7.77612 10.7458 7.77612H9.30713ZM9.95368 8.3546H10.6928C10.8701 8.3546 10.9991 8.49332 10.9991 8.62679C10.9991 8.79864 10.832 8.89898 10.7024 8.89898H9.95368V8.3546Z" fill="#016FD0"/>
<path fill-rule="evenodd" clip-rule="evenodd" d="M12.5739 10.3617H11.9138V7.77563H12.5739V10.3617Z" fill="#016FD0"/>
<path fill-rule="evenodd" clip-rule="evenodd" d="M14.1392 10.3619H13.9967C13.3073 10.3619 12.8887 9.8187 12.8887 9.07938C12.8887 8.32185 13.3026 7.77563 14.1732 7.77563H14.8879V8.38809H14.1472C13.7937 8.38809 13.5438 8.66394 13.5438 9.08573C13.5438 9.5866 13.8297 9.79694 14.2414 9.79694H14.4116L14.1392 10.3619Z" fill="#016FD0"/>
<path fill-rule="evenodd" clip-rule="evenodd" d="M15.5462 7.77612L14.4338 10.3623H15.158L15.3633 9.84449H16.5565L16.7607 10.3623H17.5009L16.3896 7.77612H15.5462ZM15.9577 8.37807L16.3214 9.283H15.593L15.9577 8.37807Z" fill="#016FD0"/>
<path fill-rule="evenodd" clip-rule="evenodd" d="M17.5762 10.3617V7.77563H18.3982L19.4479 9.40045V7.77563H20.0944V10.3617H19.2989L18.2227 8.69438V10.3617H17.5762Z" fill="#016FD0"/>
<path fill-rule="evenodd" clip-rule="evenodd" d="M4.71313 14.8881V12.3018H6.82293V12.8804H5.36641V13.3227H6.78883V13.8672H5.36641V14.3266H6.82293V14.8881H4.71313Z" fill="#016FD0"/>
<path fill-rule="evenodd" clip-rule="evenodd" d="M15.0511 14.8881V12.3018H17.1611V12.8804H15.7045V13.3227H17.1203V13.8672H15.7045V14.3266H17.1611V14.8881H15.0511Z" fill="#016FD0"/>
<path fill-rule="evenodd" clip-rule="evenodd" d="M6.90482 14.888L7.93209 13.6108L6.88037 12.3018H7.69486L8.32125 13.111L8.94972 12.3018H9.73243L8.69452 13.5949L9.72363 14.888H8.90926L8.30108 14.0915L7.70769 14.888H6.90482Z" fill="#016FD0"/>
<path fill-rule="evenodd" clip-rule="evenodd" d="M9.80054 12.302V14.8882H10.4641V14.0715H11.1446C11.7205 14.0715 12.157 13.766 12.157 13.172C12.157 12.6798 11.8146 12.3021 11.2286 12.3021H9.80054V12.302ZM10.4641 12.887H11.1808C11.3668 12.887 11.4998 13.001 11.4998 13.1847C11.4998 13.3573 11.3674 13.4824 11.1786 13.4824H10.464V12.887H10.4641Z" fill="#016FD0"/>
<path fill-rule="evenodd" clip-rule="evenodd" d="M12.4377 12.3016V14.8879H13.0843V13.9691H13.3565L14.1317 14.8879H14.9219L14.0712 13.935C14.4204 13.9056 14.7805 13.6059 14.7805 13.1406C14.7805 12.5963 14.3533 12.3015 13.8765 12.3015L12.4377 12.3016ZM13.0843 12.8802H13.8234C14.0007 12.8802 14.1297 13.019 14.1297 13.1524C14.1297 13.3243 13.9626 13.4247 13.8329 13.4247H13.0843V12.8802Z" fill="#016FD0"/>
<path fill-rule="evenodd" clip-rule="evenodd" d="M17.4604 14.888V14.3265H18.7544C18.9459 14.3265 19.0288 14.2231 19.0288 14.1095C19.0288 14.0008 18.9462 13.8909 18.7544 13.8909H18.1697C17.6615 13.8909 17.3783 13.5812 17.3783 13.1164C17.3783 12.7017 17.6375 12.3018 18.3927 12.3018H19.6519L19.3797 12.8837H18.2908C18.0827 12.8837 18.0186 12.9929 18.0186 13.0972C18.0186 13.2044 18.0978 13.3226 18.2568 13.3226H18.8694C19.436 13.3226 19.6818 13.644 19.6818 14.0648C19.6818 14.5173 19.4079 14.8879 18.8385 14.8879L17.4604 14.888Z" fill="#016FD0"/>
<path fill-rule="evenodd" clip-rule="evenodd" d="M19.8335 14.888V14.3265H21.0727C21.2642 14.3265 21.3471 14.2231 21.3471 14.1095C21.3471 14.0008 21.2645 13.8909 21.0727 13.8909H20.5427C20.0345 13.8909 19.7513 13.5812 19.7513 13.1164C19.7513 12.7017 20.0106 12.3018 20.7658 12.3018H22L21.7278 12.8837H20.6639C20.4557 12.8837 20.3917 12.9929 20.3917 13.0972C20.3917 13.2044 20.4709 13.3226 20.6299 13.3226H21.1876C21.7542 13.3226 22.0001 13.644 22.0001 14.0648C22.0001 14.5173 21.7261 14.8879 21.1568 14.8879L19.8335 14.888Z" fill="#016FD0"/>
</svg>
