<svg width="49" height="32" viewBox="0 0 49 32" fill="none" xmlns="http://www.w3.org/2000/svg">
<path d="M33.5308 19.8587H31.8871C31.5601 19.8587 31.2466 19.7288 31.0154 19.4976C30.7842 19.2664 30.6543 18.9528 30.6543 18.6259C30.6543 18.2989 30.7842 17.9853 31.0154 17.7541C31.2466 17.523 31.5601 17.3931 31.8871 17.3931H33.5308C33.8578 17.3931 34.1714 17.523 34.4025 17.7541C34.6337 17.9853 34.7636 18.2989 34.7636 18.6259C34.7636 18.9528 34.6337 19.2664 34.4025 19.4976C34.1714 19.7288 33.8578 19.8587 33.5308 19.8587Z" fill="#FFD300"/>
<path d="M38.8728 18.6262C38.8719 17.6496 38.6032 16.6919 38.0961 15.8573C37.5889 15.0227 36.8627 14.343 35.9963 13.8923V11.2294C35.9963 10.2486 35.6066 9.30786 34.913 8.61428C34.2195 7.9207 33.2788 7.53105 32.2979 7.53105H13.395C13.068 7.53105 12.7545 7.40116 12.5233 7.16997C12.2921 6.93877 12.1622 6.62521 12.1622 6.29825C12.1622 5.97129 12.2921 5.65772 12.5233 5.42653C12.7545 5.19533 13.068 5.06545 13.395 5.06545H32.8536C33.1806 5.06545 33.4941 4.93557 33.7253 4.70437C33.9565 4.47318 34.0864 4.15961 34.0864 3.83265C34.0864 3.50569 33.9565 3.19213 33.7253 2.96093C33.4941 2.72974 33.1806 2.59985 32.8536 2.59985H13.395C12.4141 2.59985 11.4734 2.98951 10.7798 3.68309C10.0862 4.37667 9.69659 5.31737 9.69659 6.29825V26.023C9.69659 26.5087 9.79226 26.9896 9.97812 27.4383C10.164 27.887 10.4364 28.2948 10.7798 28.6382C11.1233 28.9816 11.531 29.254 11.9797 29.4399C12.4284 29.6258 12.9093 29.7214 13.395 29.7214H32.2979C32.7836 29.7214 33.2645 29.6258 33.7132 29.4399C34.1619 29.254 34.5696 28.9816 34.913 28.6382C35.2565 28.2948 35.5289 27.887 35.7148 27.4383C35.9006 26.9896 35.9963 26.5087 35.9963 26.023V23.3602C36.8627 22.9094 37.5889 22.2298 38.0961 21.3952C38.6032 20.5605 38.8719 19.6029 38.8728 18.6262ZM33.5307 21.5028H31.887C31.285 21.5013 30.6986 21.3111 30.2104 20.9588C29.7223 20.6065 29.357 20.11 29.1659 19.5391C28.9749 18.9683 28.9677 18.3518 29.1455 17.7767C29.3233 17.2016 29.6771 16.6967 30.1569 16.3332L30.9336 15.9223C31.2396 15.8121 31.5618 15.7538 31.887 15.7497H33.5307C34.2936 15.7497 35.0252 16.0528 35.5647 16.5922C36.1042 17.1317 36.4072 17.8633 36.4072 18.6262C36.4072 19.3891 36.1042 20.1208 35.5647 20.6602C35.0252 21.1997 34.2936 21.5028 33.5307 21.5028Z" fill="#5D38C0"/>
</svg>
