<svg width="49" height="32" viewBox="0 0 49 32" fill="none" xmlns="http://www.w3.org/2000/svg">
<path fill-rule="evenodd" clip-rule="evenodd" d="M39.7526 2.97656H8.94526C7.4715 2.97656 6.26636 4.30677 6.26636 5.93346V26.1389C6.26636 27.7656 7.4715 29.0958 8.94526 29.0958H39.7526C41.2263 29.0958 42.4315 27.7656 42.4315 26.1389V5.93346C42.4315 4.30677 41.2263 2.97656 39.7526 2.97656ZM20.3307 20.5953C20.3307 21.9549 19.2 23.0682 17.8192 23.0682H12.7963C11.4155 23.0682 10.2848 21.9549 10.2848 20.5953V17.5043C10.2848 16.1447 11.4155 15.0315 12.7963 15.0315H17.8192C19.2 15.0315 20.3307 16.1447 20.3307 17.5043V20.5953ZM27.0757 23.0682H35.6865C36.0826 23.0682 36.404 22.6183 36.404 22.0636C36.404 21.509 36.0826 21.0591 35.6865 21.0591H27.0757C26.6796 21.0591 26.3582 21.509 26.3582 22.0636C26.3582 22.6183 26.6796 23.0682 27.0757 23.0682ZM35.6865 19.0498H27.0757C26.6796 19.0498 26.3582 18.5999 26.3582 18.0453C26.3582 17.4906 26.6796 17.0407 27.0757 17.0407H35.6865C36.0826 17.0407 36.404 17.4906 36.404 18.0453C36.404 18.5999 36.0826 19.0498 35.6865 19.0498ZM8.27563 11.0135H40.4224V6.99518H8.27563V11.0135Z" fill="#5D38C0"/>
<path d="M17.7185 17.0408H12.8965C12.5692 17.0408 12.2938 17.3031 12.2938 17.6148V20.4851C12.2938 20.7968 12.5692 21.0591 12.8965 21.0591H17.7185C18.0458 21.0591 18.3213 20.7968 18.3213 20.4851V17.6148C18.3213 17.3031 18.0458 17.0408 17.7185 17.0408Z" fill="#FFD300"/>
</svg>
