<svg width="49" height="32" viewBox="0 0 49 32" fill="none" xmlns="http://www.w3.org/2000/svg">
<path d="M2.00829 9.43286H3.63092L5.6633 15.5628L7.71206 9.43286H9.33469L10.8098 18.2344H9.20357L8.26933 12.6781L6.38446 18.2344H4.90935L3.07365 12.6781L2.10663 18.2344H0.484009L2.00829 9.43286Z" fill="#181D4D"/>
<path d="M17.7427 15.448H12.5143C12.5962 15.9069 12.7929 16.2839 13.1207 16.5461C13.4485 16.8248 13.8582 16.9559 14.3827 16.9559C14.9892 16.9559 15.5137 16.7428 15.9562 16.3167L17.333 16.9559C16.9888 17.4476 16.579 17.8082 16.1037 18.0376C15.6284 18.2671 15.0547 18.3818 14.3991 18.3818C13.3829 18.3818 12.547 18.054 11.9078 17.4148C11.2686 16.7756 10.9408 15.9725 10.9408 14.9891C10.9408 13.9893 11.2522 13.1698 11.8914 12.5142C12.5306 11.8586 13.3338 11.5308 14.2844 11.5308C15.3006 11.5308 16.1365 11.8586 16.7757 12.5142C17.4149 13.1698 17.7427 14.0385 17.7427 15.1038V15.448ZM16.1201 14.1696C16.0054 13.809 15.8087 13.514 15.4809 13.2845C15.1695 13.055 14.7925 12.9403 14.3827 12.9403C13.9238 12.9403 13.5304 13.0714 13.1862 13.3173C12.9732 13.4812 12.7765 13.7598 12.5962 14.1532H16.1201V14.1696Z" fill="#181D4D"/>
<path d="M18.6607 9.33447H20.2834V11.7274H21.2504V13.137H20.2834V18.2343H18.6607V13.137H17.8248V11.7274H18.6607V9.33447Z" fill="#181D4D"/>
<path d="M21.742 11.7274H23.1352V12.5469C23.2827 12.2191 23.4794 11.9732 23.7416 11.8093C24.0039 11.6454 24.2661 11.5635 24.5611 11.5635C24.7742 11.5635 24.9873 11.6126 25.2167 11.7274L24.7087 13.1369C24.512 13.0386 24.3645 12.9894 24.2333 12.9894C23.9875 12.9894 23.7744 13.1369 23.5941 13.4483C23.4138 13.7598 23.3319 14.3662 23.3319 15.284V15.5955V18.2179H21.7256V11.7274H21.742Z" fill="#181D4D"/>
<path d="M28.1668 11.5635C28.7732 11.5635 29.3469 11.711 29.8878 12.0224C30.4286 12.3338 30.8384 12.7436 31.1498 13.268C31.4448 13.7925 31.6087 14.3662 31.6087 14.9726C31.6087 15.5791 31.4612 16.1527 31.1498 16.6936C30.8384 17.2345 30.4286 17.6442 29.9042 17.9392C29.3797 18.2343 28.806 18.3982 28.1668 18.3982C27.2326 18.3982 26.4458 18.0704 25.7902 17.3984C25.1346 16.7428 24.8068 15.9233 24.8068 14.9726C24.8068 13.9564 25.1838 13.1041 25.9214 12.4322C26.577 11.8585 27.3309 11.5635 28.1668 11.5635ZM28.1996 13.1041C27.6915 13.1041 27.2817 13.2844 26.9375 13.6286C26.5933 13.9892 26.4294 14.4317 26.4294 14.989C26.4294 15.5627 26.5934 16.0052 26.9212 16.3658C27.249 16.71 27.6751 16.8903 28.1832 16.8903C28.6913 16.8903 29.1174 16.71 29.4616 16.3658C29.8058 16.0052 29.9697 15.5627 29.9697 14.989C29.9697 14.4154 29.8058 13.9728 29.478 13.6286C29.1338 13.268 28.7077 13.1041 28.1996 13.1041Z" fill="#181D4D"/>
<path d="M33.756 11.7276V12.4488C34.0511 12.1537 34.3625 11.9407 34.7067 11.7932C35.0509 11.6456 35.4115 11.5801 35.8048 11.5801C36.6571 11.5801 37.3619 11.9079 37.9683 12.5471C38.5584 13.1863 38.8534 14.0058 38.8534 15.022C38.8534 15.989 38.542 16.8085 37.9355 17.4478C37.3291 18.1034 36.5915 18.4312 35.7556 18.4312C35.3787 18.4312 35.0345 18.3656 34.7067 18.2345C34.3789 18.1034 34.0675 17.8903 33.7397 17.5789V20.6438H32.1334V11.7276H33.756ZM35.4606 13.0716C34.9525 13.0716 34.5264 13.2519 34.1822 13.5961C33.838 13.9403 33.6741 14.3992 33.6741 14.9728C33.6741 15.5465 33.838 16.0218 34.1822 16.3824C34.5264 16.743 34.9525 16.9233 35.4606 16.9233C35.9523 16.9233 36.3785 16.743 36.7227 16.3824C37.0669 16.0218 37.2308 15.5629 37.2308 14.9892C37.2308 14.432 37.0669 13.973 36.7227 13.6125C36.3949 13.2519 35.9687 13.0716 35.4606 13.0716Z" fill="#181D4D"/>
<path d="M42.7377 11.5635C43.3441 11.5635 43.9178 11.711 44.4587 12.0224C44.9995 12.3338 45.4093 12.7436 45.7207 13.268C46.0157 13.7925 46.1796 14.3662 46.1796 14.9726C46.1796 15.5791 46.0321 16.1527 45.7207 16.6936C45.4093 17.2345 44.9995 17.6442 44.4751 17.9392C43.9506 18.2343 43.3769 18.3982 42.7377 18.3982C41.8035 18.3982 41.0168 18.0704 40.3612 17.3984C39.7055 16.7428 39.3777 15.9233 39.3777 14.9726C39.3777 13.9564 39.7547 13.1041 40.4923 12.4322C41.1479 11.8585 41.8854 11.5635 42.7377 11.5635ZM42.7705 13.1041C42.2624 13.1041 41.8527 13.2844 41.5085 13.6286C41.1643 13.9892 41.0004 14.4317 41.0004 14.989C41.0004 15.5627 41.1643 16.0052 41.4921 16.3658C41.8199 16.71 42.246 16.8903 42.7541 16.8903C43.2622 16.8903 43.6883 16.71 44.0325 16.3658C44.3767 16.0052 44.5406 15.5627 44.5406 14.989C44.5406 14.4154 44.3767 13.9728 44.0489 13.6286C43.7047 13.268 43.2786 13.1041 42.7705 13.1041Z" fill="#181D4D"/>
<path d="M46.7205 9.21973H48.3431V18.2343H46.7205V9.21973Z" fill="#181D4D"/>
<path d="M38.9681 20.234L38.3452 20.8241C37.9191 20.3815 37.4602 20.1521 36.9357 20.1521C36.4932 20.1521 36.1162 20.2996 35.8212 20.611C35.5261 20.9224 35.3622 21.283 35.3622 21.7255C35.3622 22.0369 35.4278 22.3156 35.5589 22.545C35.69 22.7909 35.8867 22.9712 36.1326 23.1187C36.3784 23.2498 36.6571 23.3318 36.9521 23.3318C37.2143 23.3318 37.4438 23.2826 37.6569 23.1842C37.8699 23.0859 38.0994 22.922 38.3616 22.6598L38.9517 23.2826C38.6075 23.6104 38.2797 23.8562 37.9847 23.9874C37.6733 24.1185 37.3291 24.184 36.9357 24.184C36.2145 24.184 35.6245 23.9546 35.1656 23.4957C34.7066 23.0367 34.4772 22.4467 34.4772 21.7419C34.4772 21.283 34.5755 20.8732 34.7886 20.5126C35.0017 20.1521 35.2967 19.857 35.69 19.644C36.0834 19.4309 36.4932 19.3162 36.9521 19.3162C37.3291 19.3162 37.706 19.3981 38.0502 19.562C38.4108 19.7095 38.7222 19.939 38.9681 20.234Z" fill="#181D4D"/>
<path d="M41.7878 20.6274H42.6403V24.0704H41.7878V23.7097C41.6238 23.8736 41.4599 23.9884 41.2795 24.054C41.1156 24.1195 40.9353 24.1523 40.7385 24.1523C40.2958 24.1523 39.9188 23.9884 39.5909 23.6441C39.263 23.2998 39.099 22.8735 39.099 22.3653C39.099 21.8406 39.2629 21.398 39.5745 21.0537C39.886 20.7094 40.263 20.5454 40.7057 20.5454C40.9189 20.5454 41.0992 20.5782 41.2795 20.6602C41.4599 20.7422 41.6238 20.8569 41.7714 21.0045V20.6274H41.7878ZM40.8861 21.3324C40.6237 21.3324 40.3942 21.4307 40.2303 21.6111C40.0499 21.7914 39.9679 22.0374 39.9679 22.3325C39.9679 22.6276 40.0499 22.8735 40.2303 23.0703C40.4106 23.267 40.6237 23.3654 40.8861 23.3654C41.1484 23.3654 41.3779 23.267 41.5583 23.0867C41.7386 22.9063 41.8206 22.644 41.8206 22.3489C41.8206 22.0538 41.7386 21.8078 41.5583 21.6275C41.3779 21.4307 41.1484 21.3324 40.8861 21.3324Z" fill="#181D4D"/>
<path d="M43.1147 20.6274H43.8525V21.0537C43.9344 20.8897 44.0328 20.7586 44.164 20.6602C44.2951 20.5782 44.4427 20.5291 44.5902 20.5291C44.705 20.5291 44.8198 20.5618 44.9345 20.611L44.6722 21.3488C44.5738 21.2996 44.4919 21.2668 44.4263 21.2668C44.2951 21.2668 44.1804 21.3488 44.0984 21.5128C44 21.6767 43.9672 22.0046 43.9672 22.4801V22.644V24.0376H43.1147V20.6274Z" fill="#181D4D"/>
<path d="M47.4908 19.3H48.3431V24.0696H47.4908V23.709C47.3269 23.8729 47.163 23.9876 46.9827 24.0532C46.8188 24.1188 46.6385 24.1515 46.4418 24.1515C45.9993 24.1515 45.6223 23.9876 45.2945 23.6434C44.9667 23.2992 44.8028 22.8731 44.8028 22.365C44.8028 21.8405 44.9667 21.398 45.2781 21.0538C45.5895 20.7096 45.9665 20.5457 46.409 20.5457C46.6221 20.5457 46.8024 20.5785 46.9827 20.6604C47.163 20.7424 47.3269 20.8571 47.4744 21.0046V19.3H47.4908ZM46.5893 21.3324C46.3271 21.3324 46.0976 21.4308 45.9337 21.6111C45.7534 21.7914 45.6715 22.0372 45.6715 22.3322C45.6715 22.6272 45.7534 22.8731 45.9337 23.0698C46.114 23.2665 46.3271 23.3648 46.5893 23.3648C46.8516 23.3648 47.081 23.2665 47.2613 23.0862C47.4416 22.9059 47.5236 22.6436 47.5236 22.3486C47.5236 22.0536 47.4416 21.8077 47.2613 21.6274C47.0974 21.4308 46.868 21.3324 46.5893 21.3324Z" fill="#181D4D"/>
</svg>
