<svg width="38" height="24" viewBox="0 0 38 24" fill="none" xmlns="http://www.w3.org/2000/svg">
<g clip-path="url(#clip0)">
<path d="M1.10392 23.3961C1.10392 23.7842 1.00742 23.8813 0.621628 23.8813H0.482289C0.0964914 23.8813 0 23.7842 0 23.3961V20.5064C0 19.1154 0.728831 18.4146 2.1757 18.4146C2.95809 18.4146 3.49393 18.6734 3.78332 19.2017C4.07271 18.6734 4.60856 18.4146 5.39095 18.4146C6.89146 18.4146 7.55594 19.1262 7.55594 20.5064V23.3961C7.55594 23.7842 7.45945 23.8813 7.07365 23.8813H6.93431C6.54851 23.8813 6.45202 23.7842 6.45202 23.3961V20.5064C6.45202 19.7731 6.21628 19.4496 5.39095 19.4496C4.56563 19.4496 4.30846 19.7731 4.30846 20.5064V23.3961C4.30846 23.7842 4.21197 23.8813 3.82617 23.8813H3.71897C3.33317 23.8813 3.23668 23.7842 3.23668 23.3961V20.5064C3.23668 19.7731 3.00093 19.4496 2.17561 19.4496C1.35029 19.4496 1.10383 19.7731 1.10383 20.5064V23.3961H1.10392Z" fill="#17153D"/>
<path d="M9.517 21.8974C9.517 22.6306 9.79568 22.9541 10.7495 22.9541C11.7034 22.9541 11.9714 22.6306 11.9714 21.8974V19.0184C11.9714 18.6303 12.0679 18.5332 12.4537 18.5332H12.593C12.9788 18.5332 13.0753 18.6303 13.0753 19.0184V21.8974C13.0753 23.2884 12.3787 24 10.7495 24C9.19548 24 8.41309 23.2991 8.41309 21.8974V19.0184C8.41309 18.6303 8.50958 18.5332 8.89537 18.5332H9.03471C9.42051 18.5332 9.517 18.6303 9.517 19.0184V21.8974Z" fill="#17153D"/>
<path d="M13.9432 16.8187C13.9432 16.4306 14.0397 16.3335 14.4255 16.3335H14.5649C14.9507 16.3335 15.0472 16.4306 15.0472 16.8187V22.1562C15.0472 22.7277 15.2079 22.9218 15.5509 22.9218C15.9045 22.9218 15.9582 22.9756 15.9582 23.3531V23.4609C15.9582 23.8167 15.8724 23.8815 15.5187 23.9569C15.4759 23.9677 15.4222 23.9677 15.3687 23.9677C14.5113 23.9677 13.9432 23.4609 13.9432 22.3719V16.8187Z" fill="#17153D"/>
<path d="M15.9581 19.0832C15.9581 18.7813 16.0331 18.6951 16.3225 18.6411L16.8906 18.5333L17.0192 17.5197C17.062 17.207 17.1478 17.1316 17.4586 17.1316H17.598C17.9088 17.1316 17.9838 17.207 17.9838 17.5197V18.5333H19.4843C19.8379 18.5333 19.9344 18.6087 19.9344 18.9862V19.1156C19.9344 19.4929 19.8379 19.5684 19.4843 19.5684H17.9838V22.0161C17.9838 22.6415 18.2625 22.9542 18.8197 22.9542C19.1413 22.9542 19.4306 22.9218 19.6878 22.8571C20.0415 22.7817 20.1273 22.8571 20.1273 23.2345V23.3639C20.1273 23.7197 20.0415 23.8275 19.6878 23.903C19.3984 23.9568 19.109 23.9893 18.8197 23.9893C17.5336 23.9893 16.8906 23.3315 16.8906 22.0052V19.5684H16.3332C16.0331 19.5684 15.9581 19.4929 15.9581 19.191V19.0832Z" fill="#17153D"/>
<path d="M20.8452 16.409C21.1132 16.1394 21.5418 16.1394 21.7991 16.409C22.067 16.6678 22.067 17.099 21.7991 17.3686C21.5418 17.6275 21.1132 17.6275 20.8452 17.3686C20.5773 17.0991 20.5773 16.6678 20.8452 16.409ZM20.7702 19.0184C20.7702 18.6303 20.8667 18.5332 21.2525 18.5332H21.3918C21.7776 18.5332 21.8741 18.6303 21.8741 19.0184V23.3962C21.8741 23.7844 21.7776 23.8815 21.3918 23.8815H21.2525C20.8667 23.8815 20.7702 23.7844 20.7702 23.3962V19.0184Z" fill="#17153D"/>
<path d="M23.9853 23.3961C23.9853 23.7842 23.8888 23.8813 23.503 23.8813H23.3636C22.9778 23.8813 22.8813 23.7842 22.8813 23.3961V20.5064C22.8813 19.1154 23.6637 18.4146 25.2178 18.4146C26.8469 18.4146 27.5436 19.1154 27.5436 20.5064V23.3961C27.5436 23.7842 27.4471 23.8813 27.0613 23.8813H26.9219C26.5361 23.8813 26.4396 23.7842 26.4396 23.3961V20.5064C26.4396 19.7731 26.1717 19.4496 25.2178 19.4496C24.2639 19.4496 23.9853 19.7731 23.9853 20.5064V23.3961Z" fill="#38B480"/>
<path d="M32.9558 21.121C32.9129 21.52 32.8057 21.617 32.4092 21.617H29.4297V21.8542C29.4297 22.6413 29.8799 22.954 30.9624 22.954C31.4018 22.954 31.8627 22.9001 32.3557 22.7815C32.6986 22.6952 32.7951 22.7815 32.7951 23.1588V23.299C32.7951 23.6548 32.7308 23.7304 32.3557 23.8274C31.9269 23.946 31.4661 23.9999 30.9624 23.9999C29.1618 23.9999 28.3258 23.3206 28.3258 21.6923V20.7544C28.3258 19.1909 29.1189 18.4146 30.7051 18.4146C32.1948 18.4146 32.9772 19.1801 32.9772 20.6466C32.9773 20.8083 32.9666 20.9593 32.9558 21.121ZM29.4297 20.7112H31.9377V20.4416C31.9377 19.73 31.5196 19.3741 30.673 19.3741C29.8477 19.3741 29.4297 19.7299 29.4297 20.4416V20.7112Z" fill="#38B480"/>
<path d="M33.3309 19.0832C33.3309 18.7813 33.4059 18.6951 33.6953 18.6411L34.2634 18.5333L34.392 17.5197C34.4348 17.207 34.5206 17.1316 34.8314 17.1316H34.9708C35.2816 17.1316 35.3566 17.207 35.3566 17.5197V18.5333H36.8571C37.2107 18.5333 37.3072 18.6087 37.3072 18.9862V19.1156C37.3072 19.4929 37.2107 19.5684 36.8571 19.5684H35.3566V22.0161C35.3566 22.6415 35.6352 22.9542 36.1925 22.9542C36.514 22.9542 36.8034 22.9218 37.0606 22.8571C37.4143 22.7817 37.5 22.8571 37.5 23.2345V23.3639C37.5 23.7197 37.4143 23.8275 37.0606 23.903C36.7712 23.9568 36.4818 23.9893 36.1925 23.9893C34.9064 23.9893 34.2634 23.3315 34.2634 22.0052V19.5684H33.706C33.4059 19.5684 33.3309 19.4929 33.3309 19.191V19.0832Z" fill="#38B480"/>
<path d="M11.8778 4.19336L9.26983 8.74257C9.26974 8.74274 9.26966 8.743 9.26957 8.74308C9.2694 8.74334 9.26932 8.74342 9.26924 8.74359C8.47023 10.1359 8.94442 11.9162 10.3282 12.7199C10.3284 12.7201 10.3286 12.7201 10.3287 12.7202C10.329 12.7204 10.329 12.7204 10.3292 12.7206C11.7137 13.5247 13.4839 13.0476 14.2832 11.6547L15.2249 10.0259L13.5526 6.94673L11.8778 4.19336Z" fill="url(#paint0_linear)"/>
<path d="M23.312 0.820799C22.8616 0.0358673 21.864 -0.233046 21.0839 0.220178C20.8404 0.36155 20.6537 0.560202 20.5164 0.785244L18.553 4.17658L18.5535 4.17717L22.8447 11.6547C23.6439 13.0476 25.4142 13.5247 26.7986 12.7206C26.7988 12.7205 26.7989 12.7204 26.7991 12.7202C26.7992 12.7201 26.7994 12.7201 26.7996 12.7199C28.1834 11.9162 28.6576 10.136 27.8586 8.74361C27.8585 8.74352 27.8584 8.74335 27.8582 8.7431C27.8582 8.74301 27.8582 8.74276 27.858 8.74259L23.312 0.820799Z" fill="url(#paint1_linear)"/>
<path d="M20.65 7.83084L16.6368 0.837645C16.1864 0.052713 15.1889 -0.216201 14.4087 0.237024C14.1653 0.378396 13.9786 0.577048 13.8412 0.80209L11.8778 4.19342L11.8783 4.19402L16.1695 11.6716C16.9687 13.0644 18.7391 13.5416 20.1234 12.7375C20.1236 12.7374 20.1237 12.7372 20.1239 12.737C20.124 12.737 20.1243 12.737 20.1245 12.7368C20.5641 12.4815 20.911 12.127 21.1553 11.7183L21.1566 11.7204L22.0212 10.2201L21.459 9.24049L20.65 7.83084Z" fill="url(#paint2_linear)"/>
<path opacity="0.8" d="M15.2251 10.0259C15.218 10.0125 11.8778 4.19336 11.8778 4.19336L14.8492 10.676L15.2251 10.0259Z" fill="#299268"/>
<path opacity="0.8" d="M22.0213 10.2202C22.0143 10.2067 18.553 4.17651 18.553 4.17651L21.646 10.8713L22.0213 10.2202Z" fill="#299268"/>
</g>
<defs>
<linearGradient id="paint0_linear" x1="10.2398" y1="7.40726" x2="13.3167" y2="12.1477" gradientUnits="userSpaceOnUse">
<stop stop-color="#6CC073"/>
<stop offset="1" stop-color="#36B380"/>
</linearGradient>
<linearGradient id="paint1_linear" x1="20.816" y1="2.29562" x2="26.4931" y2="12.0693" gradientUnits="userSpaceOnUse">
<stop stop-color="#6CC073"/>
<stop offset="1" stop-color="#36B380"/>
</linearGradient>
<linearGradient id="paint2_linear" x1="14.4802" y1="2.90371" x2="19.6083" y2="11.7323" gradientUnits="userSpaceOnUse">
<stop stop-color="#6CC073"/>
<stop offset="1" stop-color="#36B380"/>
</linearGradient>
<clipPath id="clip0">
<rect width="37.5" height="24" fill="white"/>
</clipPath>
</defs>
</svg>
