<svg width="49" height="32" viewBox="0 0 49 32" fill="none" xmlns="http://www.w3.org/2000/svg">
<path d="M42.4656 6.76817C42.7781 6.12802 43.0753 5.48024 43.3954 4.84009C43.4792 5.49548 43.5706 6.14326 43.6621 6.79866C44.2946 6.58527 44.9119 6.33378 45.5521 6.15088C45.1024 6.69959 44.6681 7.26353 44.2337 7.82748C44.7062 8.2009 45.1787 8.55908 45.6435 8.93251C45.011 9.0011 44.3785 9.03158 43.7459 9.08493C43.7231 9.75556 43.6773 10.4338 43.6392 11.1121C43.2734 10.6243 42.9381 10.1214 42.5876 9.62601C42.0617 10.1061 41.5282 10.5862 41.0176 11.0816C41.2158 10.3957 41.4139 9.70984 41.6045 9.02396C40.9948 8.94775 40.3775 8.86392 39.7678 8.78009C40.3623 8.44477 40.9643 8.10183 41.5587 7.75889C41.3149 7.17208 41.0634 6.59289 40.8271 6.00608C41.3682 6.27282 41.9245 6.50144 42.4656 6.76817Z" fill="#273896" stroke="#273896" stroke-width="0.0219232" stroke-miterlimit="10"/>
<path d="M36.5899 15.5935C38.1979 14.2218 39.6459 12.6671 41.01 11.0591C40.3878 13.1968 39.2035 15.1286 37.5806 16.6528C37.1996 16.9577 36.849 17.3158 36.4223 17.5749C35.0276 18.5199 33.3815 19.1296 31.6897 19.1448L31.7278 19.1144C33.0642 18.3437 34.3382 17.4698 35.5382 16.5004C35.8888 16.2032 36.2622 15.9212 36.5899 15.5935Z" fill="#EC1C25" stroke="#EC1C25" stroke-width="0.0219232" stroke-miterlimit="10"/>
<path d="M4.92512 13.4441C5.62873 13.2592 6.35445 13.172 7.08183 13.185C7.88338 13.1733 8.68434 13.2345 9.47479 13.3679C9.36048 13.6727 9.24617 13.97 9.1471 14.2748C8.01158 14.191 6.83797 14.1148 5.71007 14.3739C5.36713 14.4653 4.92512 14.6025 4.83367 15.0064C4.81843 15.3112 5.1004 15.4865 5.35951 15.5627C6.16733 15.7837 7.03611 15.7532 7.7982 16.1114C8.15638 16.2715 8.46122 16.5839 8.52218 16.9802C8.57404 17.2932 8.55509 17.6137 8.46672 17.9184C8.37836 18.223 8.22284 18.504 8.01158 18.7406C7.51623 19.2741 6.78462 19.5103 6.09112 19.6399C4.65077 19.8685 3.1647 19.7466 1.76245 19.3884C1.83866 19.0683 1.93011 18.7483 2.00632 18.4282C3.21804 18.5806 4.46025 18.7711 5.67197 18.5196C6.12922 18.4206 6.64744 18.1767 6.73127 17.6661C6.82272 17.3308 6.52551 17.064 6.23591 16.9802C5.4662 16.744 4.64315 16.7973 3.88868 16.5153C3.56098 16.3934 3.2409 16.1724 3.11897 15.8371C2.89034 15.2503 3.10373 14.5568 3.56098 14.1452C3.95785 13.8129 4.42389 13.5734 4.92512 13.4441Z" fill="#273896" stroke="#273896" stroke-width="0.0219232" stroke-miterlimit="10"/>
<path d="M33.1835 13.1851C33.6789 13.1851 34.1819 13.1927 34.6772 13.1851C35.2876 14.0071 35.9387 14.7982 36.6282 15.5552L36.5901 15.5933C36.2624 15.921 35.889 16.2029 35.5384 16.5001C34.6852 15.4452 33.8987 14.338 33.1835 13.1851Z" fill="#273896" stroke="#273896" stroke-width="0.0219232" stroke-miterlimit="10"/>
<path d="M24.5491 10.5711C24.389 11.4018 24.2214 12.2401 24.0613 13.0784C22.7505 13.0403 21.3712 12.9488 20.1442 13.5051C19.1154 13.9319 18.2847 14.8312 17.9951 15.9133C17.7208 16.7974 17.7512 17.8414 18.338 18.5959C18.9096 19.3123 19.8394 19.6095 20.7234 19.6552C21.7217 19.7009 22.7963 19.5485 23.6117 18.9312C24.3814 18.3673 24.8082 17.4375 24.9911 16.523C25.3798 14.5035 25.7633 12.4814 26.1418 10.4568C25.616 10.4949 25.0825 10.5254 24.5491 10.5711ZM23.3069 16.584C23.2154 17.0946 23.0249 17.6204 22.6286 17.971C22.1409 18.4206 21.4321 18.5197 20.7996 18.4435C20.3576 18.4054 19.8851 18.192 19.6793 17.7728C19.4278 17.2927 19.5117 16.7212 19.6412 16.2182C19.8165 15.5094 20.2585 14.8464 20.9215 14.5111C21.8056 14.0538 22.8344 14.0615 23.8022 14.1682C23.63 14.976 23.4776 15.7838 23.3069 16.584Z" fill="#273896" stroke="#273896" stroke-width="0.0219232" stroke-miterlimit="10"/>
<path d="M32.4061 13.6805C31.8803 13.2308 31.1487 13.1241 30.478 13.1089C29.2054 13.0784 27.8717 13.4518 26.942 14.3511C26.2099 15.0354 25.775 15.9792 25.7302 16.9803C25.6769 17.5976 25.8369 18.2378 26.2332 18.7179C26.7133 19.3504 27.4907 19.701 28.2604 19.8229C29.434 20.021 30.6991 19.8229 31.6898 19.1446L31.7279 19.1142C30.5847 19.2361 29.3425 19.2666 28.2985 18.7103C27.6355 18.3444 27.3154 17.5595 27.3916 16.8279C28.71 17.0641 30.1122 17.1175 31.3849 16.6374C31.9184 16.424 32.4442 16.081 32.711 15.5552C33.0036 14.9532 32.932 14.1377 32.4061 13.6805ZM30.5466 15.7762C29.6016 16.0887 28.5804 16.0125 27.6202 15.8524C27.8946 15.2199 28.3747 14.6559 29.0072 14.3663C29.5483 14.1225 30.1808 14.0234 30.7676 14.1758C31.042 14.2444 31.2935 14.473 31.3087 14.7779C31.3773 15.258 30.9582 15.6314 30.5466 15.7762Z" fill="#273896" stroke="#273896" stroke-width="0.0219232" stroke-miterlimit="10"/>
<path d="M17.1338 15.2193C17.0845 14.8828 16.9595 14.5618 16.768 14.2806C16.5766 13.9994 16.3238 13.7653 16.0288 13.5961C15.2362 13.1312 14.2684 13.0626 13.3767 13.1541C12.1726 13.276 10.9914 13.8323 10.214 14.7773C9.58912 15.547 9.24618 16.5606 9.34526 17.5513C9.38346 17.8994 9.50261 18.2337 9.69317 18.5275C9.88373 18.8213 10.1404 19.0664 10.4427 19.2432C11.22 19.708 12.1574 19.7766 13.0338 19.708C14.3674 19.5937 15.6935 18.9383 16.4632 17.8181C16.9738 17.0712 17.2557 16.1262 17.1338 15.2193ZM15.3993 15.989C15.3369 16.5629 15.1181 17.1086 14.7668 17.5666C14.5158 17.8865 14.1935 18.1434 13.8257 18.3167C13.4579 18.49 13.0546 18.575 12.6482 18.5649C12.2061 18.5649 11.7336 18.4582 11.4212 18.1305C11.2075 17.8968 11.0857 17.5936 11.0782 17.277C11.0249 15.9662 11.8937 14.5944 13.2197 14.2896C13.7989 14.1524 14.4695 14.2058 14.942 14.5944C15.3277 14.9374 15.4572 15.4967 15.3993 15.989Z" fill="#273896" stroke="#273896" stroke-width="0.0219232" stroke-miterlimit="10"/>
<path d="M48.1692 15.136C48.0473 14.3967 47.5138 13.7566 46.8356 13.4517C45.982 13.0478 45.0066 13.025 44.0921 13.1545C42.7508 13.3527 41.4705 14.1224 40.7846 15.3112C40.3578 16.0657 40.1368 16.965 40.3121 17.8261C40.4493 18.5273 40.9599 19.1217 41.6077 19.4265C42.446 19.8228 43.4062 19.8685 44.3131 19.7466C45.601 19.5637 46.8584 18.8702 47.5672 17.7652C48.0595 16.9955 48.3262 16.0428 48.1692 15.136ZM44.7094 18.4206C44.1073 18.6644 43.4062 18.7025 42.7965 18.4587C42.5883 18.3732 42.4076 18.2319 42.2745 18.0504C42.1414 17.8689 42.061 17.6542 42.042 17.4299C41.9201 16.0505 42.8346 14.5827 44.2262 14.2779C44.7749 14.1559 45.4074 14.1864 45.8723 14.5293C46.2381 14.7961 46.421 15.2457 46.4286 15.6877C46.4439 16.8202 45.7809 17.9862 44.7063 18.4206H44.7094Z" fill="#273896" stroke="#273896" stroke-width="0.0219232" stroke-miterlimit="10"/>
<path d="M36.4222 17.5747C36.849 17.3156 37.1996 16.9574 37.5806 16.6526C38.518 17.6814 39.4706 18.695 40.4232 19.7086C39.7602 19.6933 39.0896 19.7162 38.4265 19.7009C38.2513 19.5943 38.1369 19.4342 37.9921 19.297C37.4434 18.7407 36.91 18.1768 36.4222 17.5747Z" fill="#273896" stroke="#273896" stroke-width="0.0219232" stroke-miterlimit="10"/>
</svg>
