<svg width="49" height="32" viewBox="0 0 49 32" fill="none" xmlns="http://www.w3.org/2000/svg">
<path d="M12.6669 16.0308L13.9618 10.3415H11.7902L12.0331 9.28906H17.8337L17.6703 10.0436C17.6296 10.26 17.5221 10.341 17.3043 10.341H15.5395L14.2445 16.0304L12.6669 16.0308Z" fill="#002169"/>
<path d="M18.2642 11.3145C18.3177 11.0857 18.4659 10.9768 18.6952 10.9768H19.8418L18.6819 16.0311H17.1848L18.2642 11.3145ZM20.0574 10.0173C20.0034 10.246 19.8821 10.3417 19.6529 10.3417H18.4797L18.6549 9.58624C18.6952 9.39726 18.8169 9.28882 19.0457 9.28882H20.2193L20.0574 10.0173Z" fill="#002169"/>
<path d="M24.8851 11.3012C24.7638 11.8145 24.4943 11.9655 24.0358 11.9655H23.3344C22.648 11.9655 22.1612 12.1413 21.9182 12.6821C21.7297 13.0875 21.5673 13.7496 21.5673 14.1545C21.5673 14.8034 21.8917 15.0468 22.7139 15.0468H23.9681L23.7393 16.0333H22.2692C20.691 16.0333 19.8821 15.3579 20.0166 14.0063C20.0565 13.5425 20.1611 13.0867 20.3273 12.6519C20.772 11.4892 21.7562 10.9758 23.4964 10.9758H24.9661L24.8851 11.3012Z" fill="#002169"/>
<path d="M24.534 16.0306L26.0179 9.53041C26.0449 9.39543 26.1254 9.32771 26.2741 9.31399L27.5823 9.21973L26.7866 12.6794C27.8925 12.3682 28.5395 11.8558 29.0117 10.9763H30.7107C30.1447 12.1253 29.2817 12.8679 27.9868 13.3145C28.6731 14.0576 29.3082 14.9228 30.0916 16.0306H28.2298C27.6349 15.1658 27.1238 14.49 26.5304 13.8279L26.0316 16.0306H24.534Z" fill="#002169"/>
<path d="M33.7453 10.9094C35.3637 10.9094 35.8222 11.6118 35.8222 12.2332C35.8235 12.528 35.7733 12.8208 35.6739 13.0984C35.4177 13.8282 34.8242 14.0712 33.7979 14.0712H31.9653C31.8843 14.8033 32.2486 15.0444 32.9363 15.0444H34.9468L34.7574 15.815C34.7309 15.9362 34.6636 16.031 34.4879 16.031H32.6261C31.2909 16.031 30.4814 15.4499 30.4814 14.0854C30.4814 13.5308 30.6032 13.1121 30.7651 12.639C31.1564 11.5175 32.2486 10.9094 33.516 10.9094H33.7453ZM33.608 13.1121C33.9589 13.1121 34.1612 13.0037 34.2692 12.7461C34.3197 12.617 34.3477 12.4802 34.352 12.3416C34.3653 12.1128 34.244 11.8552 33.6656 11.8552H33.4497C32.6677 11.8552 32.2902 12.3279 32.142 13.1121H33.608Z" fill="#002169"/>
<path d="M39.5442 11.6657C39.5039 11.8826 39.3822 11.9631 39.1397 11.9631H37.8297L37.3305 14.1658C37.2092 14.6934 37.4389 15.0444 37.9509 15.0444H38.8821L38.6666 16.0309H37.4133C36.1998 16.0309 35.5661 15.3148 35.8626 14.0441L36.7526 10.1658C36.78 10.0285 36.8473 9.94936 37.0088 9.937L38.317 9.84229L38.0475 10.9775H39.6947L39.5442 11.6657Z" fill="#002169"/>
<path d="M11.4375 21.5615L12.3833 17.3519C12.429 17.1642 12.58 17.1016 12.7315 17.1016H14.5338C15.4261 17.1016 15.9706 17.5843 15.8452 18.3178L15.8187 18.4697C15.7208 19.0243 15.3456 19.3459 14.7928 19.534L15.6672 21.5633H14.7681C14.5718 21.5633 14.4936 21.5281 14.4112 21.3665L13.7249 19.6767H12.9008L12.4725 21.5633L11.4375 21.5615ZM13.8914 18.9776C14.3998 18.9776 14.6693 18.7987 14.748 18.4143L14.7681 18.3256C14.8217 18.0574 14.7324 17.7975 14.2955 17.7975H13.3291L13.0619 18.978L13.8914 18.9776Z" fill="#002169"/>
<path d="M18.1477 18.1724C19.2184 18.1724 19.5204 18.6377 19.5204 19.0491C19.5214 19.2442 19.4881 19.4379 19.422 19.6215C19.2527 20.1047 18.8601 20.2653 18.182 20.2653H16.9699C16.9164 20.7485 17.1571 20.9091 17.6105 20.9091H18.9402L18.8158 21.4188C18.8106 21.4613 18.789 21.5 18.7555 21.5267C18.722 21.5534 18.6794 21.5659 18.6369 21.5616H17.4069C16.5238 21.5616 15.9885 21.1772 15.9885 20.2744C15.9885 19.9084 16.069 19.6302 16.1761 19.3177C16.4346 18.5755 17.1575 18.1737 17.9963 18.1737L18.1477 18.1724ZM18.0585 19.6302C18.2905 19.6302 18.4245 19.5588 18.4955 19.389C18.529 19.3033 18.5472 19.2124 18.5495 19.1204C18.5582 18.9685 18.4781 18.8001 18.0942 18.8001H17.9514C17.4339 18.8001 17.1841 19.1131 17.0857 19.6315L18.0585 19.6302Z" fill="#002169"/>
<path d="M22.9303 18.45C22.8503 18.7538 22.627 18.8705 22.3062 18.8705H21.4849C21.0209 18.8705 20.8869 18.9867 20.8869 19.1203C20.8869 19.237 20.9784 19.2992 21.1458 19.3711L21.7796 19.6392C22.3062 19.863 22.5291 20.1398 22.5291 20.4532C22.5291 21.0339 22.1003 21.5615 20.8068 21.5615H19.2186L19.2721 21.329C19.3256 21.0787 19.5219 20.8646 19.9859 20.8646H20.8425C21.3957 20.8646 21.467 20.7122 21.467 20.5781C21.467 20.4889 21.3778 20.4084 21.2351 20.3457L20.3872 19.9796C20.0751 19.8456 19.7983 19.6305 19.8166 19.2375C19.8518 18.5218 20.637 18.218 21.592 18.218H22.993L22.9303 18.45Z" fill="#002169"/>
<path d="M25.375 18.6738C25.3489 18.8166 25.2684 18.8706 25.1078 18.8706H24.2421L23.9117 20.3279C23.8316 20.6766 23.9831 20.909 24.3235 20.909H24.9394L24.7966 21.5615H23.9653C23.1618 21.5615 22.7426 21.0879 22.9389 20.2474L23.5278 17.6809C23.5314 17.6388 23.5509 17.5997 23.5824 17.5716C23.6139 17.5434 23.6549 17.5284 23.6971 17.5295L24.5628 17.4663L24.3844 18.2176H25.4752L25.375 18.6738Z" fill="#002169"/>
<path d="M27.3026 18.2173C28.8016 18.2173 28.7838 18.8341 28.5609 19.7909L28.1683 21.4825C27.6935 21.5623 27.2131 21.6043 26.7316 21.6078C25.9464 21.6078 25.277 21.3571 25.277 20.6062C25.277 19.7565 25.9821 19.4527 26.7316 19.4527H27.6504L27.6682 19.3539C27.714 19.1036 27.7309 18.8716 27.2935 18.8716H25.9999C25.9281 18.8716 25.8746 18.8258 25.8929 18.7462L26.0178 18.2187L27.3026 18.2173ZM27.5081 20.0681H26.776C26.4461 20.0681 26.2676 20.2557 26.2676 20.5335C26.2676 20.873 26.5975 20.9352 26.8743 20.9352C27.0291 20.9383 27.1832 20.9143 27.3296 20.8643L27.5081 20.0681Z" fill="#002169"/>
<path d="M32.9958 18.2179L32.255 21.4547C31.62 21.5521 30.9788 21.603 30.3364 21.6071C29.3105 21.6071 28.8461 21.133 29.0516 20.2476L29.5155 18.2179H30.5085L30.0422 20.2385C29.9438 20.6768 30.0152 20.9248 30.5684 20.9248C30.8492 20.9268 31.1297 20.906 31.4071 20.8626L32.0138 18.2156L32.9958 18.2179Z" fill="#002169"/>
<path d="M32.9688 21.5616C32.9688 21.5616 33.6094 18.754 33.6918 18.4145C34.2295 18.2508 34.7888 18.1692 35.3509 18.1725H35.8506L35.6813 19.0121C35.5095 18.9505 35.3283 18.9195 35.1459 18.9206C34.9318 18.9206 34.7085 18.9476 34.5483 19.0121L33.959 21.5603L32.9688 21.5616Z" fill="#002169"/>
<path d="M37.6085 18.2173C39.1075 18.2173 39.0901 18.8341 38.8672 19.7909L38.4742 21.4825C37.9995 21.5624 37.5192 21.6043 37.0379 21.6078C36.2522 21.6078 35.5828 21.3571 35.5828 20.6062C35.5828 19.7565 36.2879 19.4527 37.0379 19.4527H37.9567L37.9745 19.3539C38.0203 19.1036 38.0372 18.8716 37.5998 18.8716H36.3062C36.2349 18.8716 36.1809 18.8258 36.1987 18.7462L36.3241 18.2187L37.6085 18.2173ZM37.8144 20.0681H37.0823C36.7528 20.0681 36.5744 20.2557 36.5744 20.5335C36.5744 20.873 36.9043 20.9352 37.1806 20.9352C37.3361 20.9387 37.491 20.9147 37.6382 20.8643L37.8144 20.0681Z" fill="#002169"/>
<path d="M39.0718 21.5613L39.8126 18.3254C40.4476 18.2276 41.0888 18.1766 41.7312 18.1726C42.7575 18.1726 43.2215 18.6471 43.0156 19.5325L42.5521 21.5618H41.5615L42.0254 19.5412C42.1238 19.1028 42.0524 18.8526 41.4992 18.8526C41.2184 18.8507 40.9379 18.8716 40.6605 18.9152L40.0533 21.5613H39.0718Z" fill="#002169"/>
<path d="M45.8897 18.6738C45.8627 18.8166 45.7827 18.8706 45.6216 18.8706H44.7559L44.426 20.3279C44.3454 20.6766 44.4974 20.909 44.8378 20.909H45.4537L45.3114 21.5615H44.4795C43.676 21.5615 43.2569 21.0879 43.4536 20.2474L44.0425 17.6809C44.0461 17.6388 44.0657 17.5997 44.0971 17.5716C44.1286 17.5434 44.1696 17.5284 44.2118 17.5295L45.0771 17.4663L44.8991 18.2176H45.9872L45.8897 18.6738Z" fill="#002169"/>
<path d="M47.3956 17.0049C47.9827 17.0049 48.2833 17.3819 48.2009 17.9164C48.1153 18.4654 47.7928 18.8315 47.1128 18.8315C46.5862 18.8315 46.2283 18.4329 46.3249 17.8912C46.4214 17.3494 46.7866 17.0049 47.3956 17.0049ZM47.1485 18.6411C47.6317 18.6411 47.8857 18.4124 47.979 17.909C48.0577 17.4789 47.8417 17.1879 47.3663 17.1879C46.8763 17.1879 46.6113 17.4624 46.5427 17.9054C46.4677 18.3863 46.7111 18.6411 47.1481 18.6411H47.1485ZM46.7326 18.3794H46.9659L47.0575 17.9919H47.2405L47.391 18.3254C47.3975 18.3426 47.4094 18.3572 47.4249 18.3669C47.4405 18.3767 47.4588 18.3811 47.477 18.3794H47.6848L47.4802 17.963C47.5371 17.9466 47.5883 17.9147 47.6281 17.8709C47.6679 17.8271 47.6948 17.7732 47.7058 17.715L47.72 17.6546C47.7562 17.4821 47.6486 17.3801 47.4198 17.3801H47.1183C47.0039 17.3801 46.9504 17.4304 46.9321 17.5128L46.7349 18.3776L46.7326 18.3794ZM47.2771 17.8377C47.3883 17.8377 47.4487 17.7946 47.4706 17.6976L47.4775 17.6583C47.4953 17.5864 47.4601 17.5398 47.3594 17.5398H47.1554L47.0877 17.8377H47.2771Z" fill="#002169"/>
<path d="M9.43846 20.736C9.43846 21.2045 7.54826 21.8099 5.32677 21.8099C3.10529 21.8099 1.21509 21.2045 1.21509 20.736C1.21509 20.2674 3.10529 19.8359 5.32677 19.8359C7.54826 19.8359 9.43846 20.2642 9.43846 20.736Z" fill="white"/>
<path d="M9.4148 20.7346C9.4148 21.2008 7.5342 21.8016 5.32507 21.8016C3.11595 21.8016 1.23535 21.2008 1.23535 20.7346C1.23535 20.2683 3.11549 19.8428 5.32507 19.8428C7.53466 19.8428 9.4148 20.2651 9.4148 20.7346Z" fill="#FEFEFE"/>
<path d="M9.39504 20.7333C9.39504 21.1973 7.5236 21.7939 5.32682 21.7939C3.13005 21.7939 1.25861 21.1991 1.25861 20.7333C1.25861 20.2675 3.12959 19.8479 5.32682 19.8479C7.52406 19.8479 9.39504 20.267 9.39504 20.7333Z" fill="#FBFBFC"/>
<path d="M9.37315 20.7324C9.37315 21.1937 7.51177 21.7848 5.3269 21.7848C3.14202 21.7848 1.28064 21.1923 1.28064 20.7324C1.28064 20.2726 3.14202 19.8525 5.3269 19.8525C7.51177 19.8525 9.37315 20.2685 9.37315 20.7324Z" fill="#F9F9FB"/>
<path d="M9.35122 20.7312C9.35122 21.1887 7.49991 21.7781 5.32465 21.7781C3.14938 21.7781 1.30035 21.1901 1.30035 20.7312C1.30035 20.2722 3.15166 19.8577 5.32465 19.8577C7.49762 19.8577 9.35122 20.2699 9.35122 20.7312Z" fill="#F9F9FB"/>
<path d="M9.32964 20.7305C9.32964 21.188 7.48748 21.771 5.32685 21.771C3.16623 21.771 1.32361 21.1867 1.32361 20.7305C1.32361 20.2743 3.16623 19.8611 5.32685 19.8611C7.48748 19.8611 9.32964 20.272 9.32964 20.7305Z" fill="#F6F6F9"/>
<path d="M9.30778 20.7293C9.30778 21.1832 7.47751 21.7639 5.32695 21.7639C3.17639 21.7639 1.34613 21.1832 1.34613 20.7293C1.34613 20.2754 3.17639 19.8682 5.32695 19.8682C7.47751 19.8682 9.30778 20.2736 9.30778 20.7293Z" fill="#F4F4F8"/>
<path d="M9.28625 20.7289C9.28625 21.1796 7.46285 21.7562 5.32693 21.7562C3.19101 21.7562 1.36761 21.1796 1.36761 20.7289C1.36761 20.2782 3.19056 19.8733 5.32693 19.8733C7.46331 19.8733 9.28625 20.2755 9.28625 20.7289Z" fill="#F4F4F8"/>
<path d="M9.26478 20.7274C9.26478 21.1763 7.45099 21.7482 5.32697 21.7482C3.20295 21.7482 1.38916 21.1763 1.38916 20.7274C1.38916 20.2785 3.20295 19.8782 5.32697 19.8782C7.45099 19.8782 9.26478 20.2772 9.26478 20.7274Z" fill="#F1F1F6"/>
<path d="M9.24283 20.7264C9.24283 21.1725 7.43911 21.7403 5.32698 21.7403C3.21486 21.7403 1.41113 21.1725 1.41113 20.7264C1.41113 20.2803 3.21486 19.8835 5.32698 19.8835C7.43911 19.8835 9.24283 20.2784 9.24283 20.7264Z" fill="#F0EFF5"/>
<path d="M9.22084 20.7255C9.22084 21.1689 7.42673 21.7322 5.32696 21.7322C3.22719 21.7322 1.43262 21.168 1.43262 20.7255C1.43262 20.2831 3.22719 19.8882 5.32696 19.8882C7.42673 19.8882 9.22084 20.2799 9.22084 20.7255Z" fill="#EDECF3"/>
<path d="M9.19932 20.7247C9.19932 21.1654 7.41481 21.725 5.32694 21.725C3.23907 21.725 1.45319 21.1654 1.45319 20.7247C1.45319 20.2841 3.23769 19.8938 5.32557 19.8938C7.41344 19.8938 9.19932 20.2818 9.19932 20.7247Z" fill="#EDECF3"/>
<path d="M9.17758 20.7238C9.17758 21.1621 7.40222 21.7176 5.3267 21.7176C3.25119 21.7176 1.47583 21.1626 1.47583 20.7238C1.47583 20.285 3.25119 19.9001 5.3267 19.9001C7.40222 19.9001 9.17758 20.2836 9.17758 20.7238Z" fill="#EBEAF2"/>
<path d="M9.15568 20.7226C9.15568 21.1582 7.38948 21.7096 5.32677 21.7096C3.26407 21.7096 1.49878 21.1582 1.49878 20.7226C1.49878 20.287 3.26453 19.9041 5.32769 19.9041C7.39085 19.9041 9.15568 20.2852 9.15568 20.7226Z" fill="#E8E7F0"/>
<path d="M9.13416 20.7218C9.13416 21.1547 7.37756 21.7019 5.32675 21.7019C3.27594 21.7019 1.51935 21.1528 1.51935 20.7218C1.51935 20.2908 3.27594 19.9092 5.32675 19.9092C7.37756 19.9092 9.13416 20.2867 9.13416 20.7218Z" fill="#E8E7F0"/>
<path d="M9.11227 20.7208C9.11227 21.1509 7.36574 21.6945 5.32682 21.6945C3.28791 21.6945 1.54138 21.1509 1.54138 20.7208C1.54138 20.2906 3.28791 19.9141 5.32682 19.9141C7.36574 19.9141 9.11227 20.2879 9.11227 20.7208Z" fill="#E5E4EE"/>
<path d="M9.09074 20.7197C9.09074 21.148 7.35199 21.687 5.3268 21.687C3.30162 21.687 1.56287 21.148 1.56287 20.7197C1.56287 20.2914 3.30162 19.9194 5.3268 19.9194C7.35199 19.9194 9.09074 20.2901 9.09074 20.7197Z" fill="#E3E3ED"/>
<path d="M9.06875 20.7194C9.06875 21.1444 7.34099 21.6802 5.32678 21.6802C3.31258 21.6802 1.58435 21.1453 1.58435 20.7194C1.58435 20.2934 3.31212 19.9246 5.32678 19.9246C7.34144 19.9246 9.06875 20.2934 9.06875 20.7194Z" fill="#E3E3ED"/>
<path d="M9.04854 20.7178C9.04854 21.1406 7.32992 21.6719 5.32807 21.6719C3.32622 21.6719 1.6076 21.1406 1.6076 20.7178C1.6076 20.295 3.32576 19.9294 5.32807 19.9294C7.33038 19.9294 9.04854 20.2932 9.04854 20.7178Z" fill="#E0E0EB"/>
<path d="M9.02531 20.7168C9.02531 21.1368 7.31675 21.6635 5.3268 21.6635C3.33685 21.6635 1.6283 21.1368 1.6283 20.7168C1.6283 20.2967 3.33685 19.9343 5.3268 19.9343C7.31675 19.9343 9.02531 20.2931 9.02531 20.7168Z" fill="#DEDEEA"/>
<path d="M9.00299 20.7161C9.00299 21.1334 7.30404 21.6564 5.32644 21.6564C3.34884 21.6564 1.6499 21.1334 1.6499 20.7161C1.6499 20.2988 3.34884 19.9382 5.32644 19.9382C7.30404 19.9382 9.00299 20.296 9.00299 20.7161Z" fill="#DCDBE8"/>
<path d="M8.98192 20.7145C8.98192 21.1295 7.29213 21.6483 5.32688 21.6483C3.36163 21.6483 1.67139 21.1295 1.67139 20.7145C1.67139 20.2994 3.36118 19.9448 5.32688 19.9448C7.29258 19.9448 8.98192 20.2976 8.98192 20.7145Z" fill="#DCDBE8"/>
<path d="M8.95996 20.7136C8.95996 21.1254 7.28024 21.6411 5.32689 21.6411C3.37354 21.6411 1.69336 21.1264 1.69336 20.7136C1.69336 20.3009 3.37491 19.95 5.32689 19.95C7.27887 19.95 8.95996 20.2995 8.95996 20.7136Z" fill="#DAD9E7"/>
<path d="M8.93847 20.7126C8.93847 21.1244 7.26789 21.6327 5.3269 21.6327C3.38591 21.6327 1.71533 21.1225 1.71533 20.7126C1.71533 20.3026 3.38591 19.9548 5.3269 19.9548C7.26789 19.9548 8.93847 20.3008 8.93847 20.7126Z" fill="#D7D6E5"/>
<path d="M8.91694 20.7115C8.91694 21.1188 7.25552 21.6267 5.32688 21.6267C3.39824 21.6267 1.73682 21.1201 1.73682 20.7115C1.73682 20.3029 3.39778 19.9602 5.32688 19.9602C7.25598 19.9602 8.91694 20.302 8.91694 20.7115Z" fill="#D7D6E5"/>
<path d="M8.89486 20.7112C8.89486 21.1157 7.24351 21.6181 5.32585 21.6181C3.40819 21.6181 1.75684 21.1147 1.75684 20.7112C1.75684 20.3076 3.40819 19.9653 5.32585 19.9653C7.24351 19.9653 8.89486 20.3044 8.89486 20.7112Z" fill="#D5D4E4"/>
<path d="M8.87328 20.7098C8.87328 21.112 7.23107 21.6098 5.32668 21.6098C3.42229 21.6098 1.78009 21.112 1.78009 20.7098C1.78009 20.3076 3.42046 19.9727 5.32668 19.9727C7.2329 19.9727 8.87328 20.3058 8.87328 20.7098Z" fill="#D2D1E2"/>
<path d="M8.85138 20.7089C8.85138 21.1084 7.21925 21.6025 5.32813 21.6025C3.43701 21.6025 1.80487 21.1084 1.80487 20.7089C1.80487 20.3095 3.43701 19.9768 5.32813 19.9768C7.21925 19.9768 8.85138 20.3072 8.85138 20.7089Z" fill="#D2D1E2"/>
<path d="M8.82992 20.708C8.82992 21.1047 7.20693 21.5948 5.32679 21.5948C3.44666 21.5948 1.82367 21.1047 1.82367 20.708C1.82367 20.3113 3.44666 19.9805 5.32679 19.9805C7.20693 19.9805 8.82992 20.309 8.82992 20.708Z" fill="#D0CFE1"/>
<path d="M8.80796 20.7074C8.80796 21.1014 7.19459 21.5878 5.3268 21.5878C3.45902 21.5878 1.84564 21.1014 1.84564 20.7074C1.84564 20.3135 3.45856 19.9858 5.3268 19.9858C7.19504 19.9858 8.80796 20.3107 8.80796 20.7074Z" fill="#CDCDDF"/>
<path d="M8.78631 20.7049C8.78631 21.0961 7.18255 21.5784 5.32666 21.5784C3.47077 21.5784 1.867 21.0975 1.867 20.7049C1.867 20.3123 3.47077 19.9893 5.32666 19.9893C7.18255 19.9893 8.78631 20.3123 8.78631 20.7049Z" fill="#CBCADD"/>
<path d="M8.76445 20.7046C8.76445 21.0935 7.17029 21.5708 5.32676 21.5708C3.48323 21.5708 1.88861 21.094 1.88861 20.7046C1.88861 20.3152 3.48323 19.9954 5.32676 19.9954C7.17029 19.9954 8.76445 20.3129 8.76445 20.7046Z" fill="#CBCADD"/>
<path d="M8.74302 20.705C8.74302 21.0912 7.15847 21.5648 5.32683 21.5648C3.4952 21.5648 1.91064 21.0907 1.91064 20.705C1.91064 20.3193 3.4952 20.0017 5.32683 20.0017C7.15847 20.0017 8.74302 20.3156 8.74302 20.705Z" fill="#C9C8DC"/>
<path d="M8.72097 20.7049C8.72097 21.0893 7.14603 21.5583 5.32675 21.5583C3.50747 21.5583 1.93207 21.0875 1.93207 20.7049C1.93207 20.3224 3.50747 20.0081 5.32675 20.0081C7.14603 20.0081 8.72097 20.3169 8.72097 20.7049Z" fill="#C6C5DB"/>
<path d="M8.69951 20.7017C8.69951 21.0833 7.13372 21.5491 5.32679 21.5491C3.51986 21.5491 1.95636 21.0833 1.95636 20.7017C1.95636 20.3201 3.52169 20.0112 5.32908 20.0112C7.13646 20.0112 8.69951 20.3183 8.69951 20.7017Z" fill="#C6C5DB"/>
<path d="M8.67755 20.7005C8.67755 21.0798 7.12183 21.5411 5.3268 21.5411C3.53177 21.5411 1.97559 21.0798 1.97559 20.7005C1.97559 20.3212 3.53131 20.0142 5.3268 20.0142C7.12229 20.0142 8.67755 20.3198 8.67755 20.7005Z" fill="#C4C3D9"/>
<path d="M8.65606 20.7003C8.65606 21.0764 7.10948 21.5335 5.32681 21.5335C3.54413 21.5335 1.99756 21.076 1.99756 20.7003C1.99756 20.3246 3.54413 20.0217 5.32681 20.0217C7.10948 20.0217 8.65606 20.3214 8.65606 20.7003Z" fill="#C1C0D8"/>
<path d="M8.63413 20.699C8.63413 21.0733 7.09763 21.5263 5.32685 21.5263C3.55607 21.5263 2.0191 21.0733 2.0191 20.699C2.0191 20.3247 3.5579 20.0269 5.32685 20.0269C7.0958 20.0269 8.63413 20.3229 8.63413 20.699Z" fill="#C1C0D8"/>
<path d="M8.61276 20.6984C8.61276 21.07 7.0854 21.5189 5.32698 21.5189C3.56855 21.5189 2.0412 21.0714 2.0412 20.6984C2.0412 20.3255 3.56855 20.0322 5.32698 20.0322C7.0854 20.0322 8.61276 20.3251 8.61276 20.6984Z" fill="#BFBED6"/>
<path d="M8.59096 20.6978C8.59096 21.0639 7.07321 21.5105 5.32714 21.5105C3.58107 21.5105 2.06287 21.0662 2.06287 20.6978C2.06287 20.3295 3.58061 20.0371 5.32668 20.0371C7.07276 20.0371 8.59096 20.3267 8.59096 20.6978Z" fill="#BDBCD5"/>
<path d="M8.56922 20.6961C8.56922 21.0621 7.05925 21.5028 5.32691 21.5028C3.59456 21.5028 2.08459 21.0621 2.08459 20.6961C2.08459 20.33 3.59456 20.0417 5.32691 20.0417C7.05925 20.0417 8.56922 20.3282 8.56922 20.6961Z" fill="#BBBAD3"/>
<path d="M8.54531 20.6948C8.54531 21.0609 7.04678 21.4951 5.32496 21.4951C3.60314 21.4951 2.10461 21.0586 2.10461 20.6948C2.10461 20.3311 3.6036 20.0474 5.32679 20.0474C7.04999 20.0474 8.54531 20.3297 8.54531 20.6948Z" fill="#BBBAD3"/>
<path d="M8.52561 20.6938C8.52561 21.0553 7.03624 21.4877 5.32677 21.4877C3.61731 21.4877 2.12793 21.0553 2.12793 20.6938C2.12793 20.3323 3.61731 20.0532 5.32677 20.0532C7.03624 20.0532 8.52561 20.331 8.52561 20.6938Z" fill="#B8B7D2"/>
<path d="M8.50366 20.6934C8.50366 21.0517 7.02435 21.48 5.32678 21.48C3.62921 21.48 2.1499 21.0517 2.1499 20.6934C2.1499 20.3351 3.62921 20.0579 5.32678 20.0579C7.02435 20.0579 8.50366 20.3329 8.50366 20.6934Z" fill="#B5B4D0"/>
<path d="M8.48232 20.6922C8.48232 21.0482 7.01216 21.4701 5.32511 21.4701C3.63807 21.4701 2.16791 21.0459 2.16791 20.6922C2.16791 20.3385 3.64173 20.0645 5.32694 20.0645C7.01216 20.0645 8.48232 20.3349 8.48232 20.6922Z" fill="#B5B4D0"/>
<path d="M8.46018 20.6911C8.46018 21.0443 7.00009 21.4644 5.32677 21.4644C3.65345 21.4644 2.19336 21.0443 2.19336 20.6911C2.19336 20.3378 3.65345 20.0679 5.32677 20.0679C7.00009 20.0679 8.46018 20.336 8.46018 20.6911Z" fill="#B3B2CF"/>
<path d="M8.43884 20.69C8.43884 21.0405 6.9879 21.4564 5.32739 21.4564C3.66688 21.4564 2.21594 21.0405 2.21594 20.69C2.21594 20.3395 3.66688 20.0728 5.32739 20.0728C6.9879 20.0728 8.43884 20.3386 8.43884 20.69Z" fill="#B1B0CD"/>
<path d="M8.41707 20.6892C8.41707 21.0374 6.97573 21.4492 5.32667 21.4492C3.6776 21.4492 2.23627 21.0374 2.23627 20.6892C2.23627 20.341 3.67806 20.0774 5.32667 20.0774C6.97528 20.0774 8.41707 20.3387 8.41707 20.6892Z" fill="#B1B0CD"/>
<path d="M8.39524 20.6889C8.39524 21.0343 6.96351 21.442 5.3268 21.442C3.69009 21.442 2.25836 21.0343 2.25836 20.6889C2.25836 20.3434 3.69009 20.0835 5.3268 20.0835C6.96351 20.0835 8.39524 20.3416 8.39524 20.6889Z" fill="#AFAECC"/>
<path d="M8.37377 20.6875C8.37377 21.0303 6.9512 21.4338 5.32684 21.4338C3.70248 21.4338 2.27991 21.0303 2.27991 20.6875C2.27991 20.3448 3.70248 20.0881 5.32684 20.0881C6.9512 20.0881 8.37377 20.3425 8.37377 20.6875Z" fill="#ACABCA"/>
<path d="M8.35188 20.6864C8.35188 21.0268 6.93937 21.4263 5.32691 21.4263C3.71445 21.4263 2.30194 21.0254 2.30194 20.6864C2.30194 20.3473 3.7149 20.0916 5.32691 20.0916C6.93891 20.0916 8.35188 20.3441 8.35188 20.6864Z" fill="#AAA9C9"/>
<path d="M8.33029 20.6852C8.33029 21.0229 6.92693 21.4173 5.32683 21.4173C3.72672 21.4173 2.32245 21.0252 2.32245 20.6852C2.32245 20.3452 3.7258 20.0981 5.32591 20.0981C6.92602 20.0981 8.33029 20.3457 8.33029 20.6852Z" fill="#AAA9C9"/>
<path d="M8.30834 20.6844C8.30834 21.0193 6.91459 21.411 5.32684 21.411C3.73908 21.411 2.34534 21.0193 2.34534 20.6844C2.34534 20.3495 3.74091 20.1038 5.32684 20.1038C6.91276 20.1038 8.30834 20.3476 8.30834 20.6844Z" fill="#A7A6C7"/>
<path d="M8.28672 20.6834C8.28672 21.0161 6.90258 21.4032 5.32672 21.4032C3.75087 21.4032 2.3681 21.0161 2.3681 20.6834C2.3681 20.3508 3.75087 20.1101 5.32672 20.1101C6.90258 20.1101 8.28672 20.349 8.28672 20.6834Z" fill="#A6A5C6"/>
<path d="M8.26452 20.6823C8.26452 21.0122 6.89182 21.3956 5.32695 21.3956C3.76207 21.3956 2.38892 21.0122 2.38892 20.6823C2.38892 20.3524 3.76161 20.1135 5.32695 20.1135C6.89228 20.1135 8.26452 20.3505 8.26452 20.6823Z" fill="#A6A5C6"/>
<path d="M8.24311 20.6814C8.24311 21.009 6.87865 21.3879 5.32705 21.3879C3.77544 21.3879 2.41052 21.009 2.41052 20.6814C2.41052 20.3538 3.7759 20.1182 5.32705 20.1182C6.87819 20.1182 8.24311 20.352 8.24311 20.6814Z" fill="#A3A2C4"/>
<path d="M8.22125 20.6804C8.22125 21.0058 6.86548 21.3805 5.32669 21.3805C3.7879 21.3805 2.43213 21.0058 2.43213 20.6804C2.43213 20.3551 3.78652 20.124 5.32669 20.124C6.86686 20.124 8.22125 20.3537 8.22125 20.6804Z" fill="#A1A0C3"/>
<path d="M8.19951 20.6795C8.19951 21.002 6.85381 21.3731 5.32691 21.3731C3.80002 21.3731 2.45386 21.002 2.45386 20.6795C2.45386 20.3569 3.80047 20.1304 5.32691 20.1304C6.85335 20.1304 8.19951 20.3555 8.19951 20.6795Z" fill="#9E9DC1"/>
<path d="M8.18555 20.6795C8.18555 20.9997 6.84579 21.3685 5.32668 21.3685C3.80756 21.3685 2.46735 21.0025 2.46735 20.6795C2.46735 20.3564 3.80573 20.1304 5.32713 20.1304C6.84854 20.1304 8.18555 20.3564 8.18555 20.6795Z" fill="#9E9DC1"/>
<path d="M8.17237 20.6795C8.17237 20.9998 6.83811 21.3659 5.32677 21.3659C3.81543 21.3659 2.48071 20.9998 2.48071 20.6795C2.48071 20.3592 3.81131 20.135 5.32723 20.135C6.84315 20.135 8.17237 20.3578 8.17237 20.6795Z" fill="#9C9BBF"/>
<path d="M8.15905 20.6795C8.15905 20.9998 6.83211 21.3608 5.32672 21.3608C3.82133 21.3608 2.49438 20.9984 2.49438 20.6795C2.49438 20.3606 3.81721 20.1382 5.32763 20.1382C6.83806 20.1382 8.15905 20.3592 8.15905 20.6795Z" fill="#9C9BBF"/>
<path d="M8.14585 20.6794C8.14585 20.9974 6.82348 21.3562 5.32678 21.3562C3.83009 21.3562 2.50818 20.9974 2.50818 20.6794C2.50818 20.3614 3.82322 20.1409 5.3277 20.1409C6.83218 20.1409 8.14585 20.36 8.14585 20.6794Z" fill="#9A99BE"/>
<path d="M8.13356 20.6794C8.13356 20.996 6.81714 21.352 5.32822 21.352C3.83931 21.352 2.52289 20.996 2.52289 20.6794C2.52289 20.3627 3.83015 20.1436 5.3296 20.1436C6.82904 20.1436 8.13356 20.3614 8.13356 20.6794Z" fill="#9A99BE"/>
<path d="M8.1185 20.6793C8.1185 20.9946 6.80849 21.3483 5.32735 21.3483C3.8462 21.3483 2.53619 20.9946 2.53619 20.6793C2.53619 20.3641 3.83568 20.1467 5.32963 20.1467C6.82359 20.1467 8.1185 20.3627 8.1185 20.6793Z" fill="#9796BC"/>
<path d="M8.10496 20.6793C8.10496 20.9937 6.79998 21.3437 5.32662 21.3437C3.85326 21.3437 2.54828 20.9937 2.54828 20.6793C2.54828 20.365 3.84044 20.1499 5.32845 20.1499C6.81645 20.1499 8.10496 20.3636 8.10496 20.6793Z" fill="#9796BC"/>
<path d="M8.09157 20.6792C8.09157 20.9922 6.793 21.3395 5.32696 21.3395C3.86092 21.3395 2.56189 20.9922 2.56189 20.6792C2.56189 20.3663 3.84628 20.1526 5.32925 20.1526C6.81222 20.1526 8.09157 20.3644 8.09157 20.6792Z" fill="#9594BB"/>
<path d="M8.07755 20.6792C8.07755 20.9913 6.78492 21.3349 5.32666 21.3349C3.8684 21.3349 2.57532 20.9913 2.57532 20.6792C2.57532 20.3672 3.85193 20.1558 5.32941 20.1558C6.80689 20.1558 8.07755 20.3653 8.07755 20.6792Z" fill="#9594BB"/>
<path d="M8.06434 20.6801C8.06434 20.9908 6.77721 21.3316 5.32673 21.3316C3.87624 21.3316 2.58911 20.9908 2.58911 20.6801C2.58911 20.3694 3.85748 20.1584 5.32947 20.1584C6.80146 20.1584 8.06434 20.3676 8.06434 20.6801Z" fill="#9292B9"/>
<path d="M8.05075 20.6796C8.05075 20.9894 6.76956 21.3275 5.32686 21.3275C3.88415 21.3275 2.60297 20.9894 2.60297 20.6796C2.60297 20.3698 3.86356 20.1616 5.3296 20.1616C6.79564 20.1616 8.05075 20.3684 8.05075 20.6796Z" fill="#9292B9"/>
<path d="M8.03733 20.6797C8.03733 20.9877 6.76255 21.3231 5.32671 21.3231C3.89087 21.3231 2.61609 20.9877 2.61609 20.6797C2.61609 20.3718 3.86936 20.1641 5.33037 20.1641C6.79138 20.1641 8.03733 20.3695 8.03733 20.6797Z" fill="#9190B8"/>
<path d="M8.02364 20.6799C8.02364 20.9869 6.75435 21.3205 5.32675 21.3205C3.89914 21.3205 2.62939 20.9883 2.62939 20.6799C2.62939 20.3715 3.87535 20.167 5.32903 20.167C6.78272 20.167 8.02364 20.3711 8.02364 20.6799Z" fill="#9190B8"/>
<path d="M8.01034 20.6801C8.01034 20.9862 6.74746 21.3152 5.32672 21.3152C3.90598 21.3152 2.64264 20.9862 2.64264 20.6801C2.64264 20.374 3.88035 20.1704 5.33038 20.1704C6.78041 20.1704 8.01034 20.3722 8.01034 20.6801Z" fill="#8E8DB7"/>
<path d="M7.99623 20.6798C7.99623 20.985 6.73884 21.3108 5.32633 21.3108C3.91382 21.3108 2.65643 20.985 2.65643 20.6798C2.65643 20.3746 3.88637 20.1729 5.33045 20.1729C6.77453 20.1729 7.99623 20.3733 7.99623 20.6798Z" fill="#8E8DB7"/>
<path d="M7.9833 20.6796C7.9833 20.9834 6.73186 21.3069 5.32667 21.3069C3.92149 21.3069 2.67279 20.9834 2.67279 20.6796C2.67279 20.3758 3.89449 20.1763 5.33354 20.1763C6.77258 20.1763 7.9833 20.3744 7.9833 20.6796Z" fill="#8C8BB5"/>
<path d="M7.96964 20.6797C7.96964 20.9827 6.72414 21.3025 5.32674 21.3025C3.92933 21.3025 2.68384 20.9822 2.68384 20.6797C2.68384 20.3773 3.89822 20.1787 5.33177 20.1787C6.76532 20.1787 7.96964 20.3755 7.96964 20.6797Z" fill="#8C8BB5"/>
<path d="M7.95607 20.6797C7.95607 20.9794 6.71515 21.2997 5.3269 21.2997C3.93864 21.2997 2.69727 20.9794 2.69727 20.6797C2.69727 20.38 3.90432 20.1814 5.33193 20.1814C6.75953 20.1814 7.95607 20.3763 7.95607 20.6797Z" fill="#8989B4"/>
<path d="M7.94268 20.6799C7.94268 20.9801 6.70726 21.2949 5.32678 21.2949C3.9463 21.2949 2.71088 20.9796 2.71088 20.6799C2.71088 20.3802 3.9097 20.1848 5.33227 20.1848C6.75484 20.1848 7.94268 20.3784 7.94268 20.6799Z" fill="#8786B2"/>
<path d="M7.92902 20.6799C7.92902 20.9791 6.70138 21.2903 5.32685 21.2903C3.95232 21.2903 2.72467 20.9796 2.72467 20.6799C2.72467 20.3802 3.91434 20.188 5.3328 20.188C6.75125 20.188 7.92902 20.3788 7.92902 20.6799Z" fill="#8786B2"/>
<path d="M7.9157 20.6801C7.9157 20.9779 6.69354 21.2863 5.32679 21.2863C3.96004 21.2863 2.73834 20.9798 2.73834 20.6801C2.73834 20.3804 3.9239 20.1909 5.3332 20.1909C6.7425 20.1909 7.9157 20.3804 7.9157 20.6801Z" fill="#8584B1"/>
<path d="M7.90195 20.6798C7.90195 20.9767 6.6862 21.2819 5.32677 21.2819C3.96734 21.2819 2.75159 20.9767 2.75159 20.6798C2.75159 20.3828 3.92707 20.1934 5.33317 20.1934C6.73927 20.1934 7.90195 20.3814 7.90195 20.6798Z" fill="#8584B1"/>
<path d="M7.88877 20.68C7.88877 20.9756 6.67851 21.278 5.32641 21.278C3.9743 21.278 2.76404 20.9756 2.76404 20.68C2.76404 20.3844 3.93175 20.1968 5.33235 20.1968C6.73296 20.1968 7.88877 20.3848 7.88877 20.68Z" fill="#8282AF"/>
<path d="M7.87484 20.6798C7.87484 20.9745 6.67099 21.2747 5.32666 21.2747C3.98233 21.2747 2.77985 20.9745 2.77985 20.6798C2.77985 20.3851 3.93886 20.2017 5.33398 20.2017C6.7291 20.2017 7.87484 20.3847 7.87484 20.6798Z" fill="#8282AF"/>
<path d="M7.86164 20.6798C7.86164 20.9731 6.66327 21.2696 5.32672 21.2696C3.99017 21.2696 2.79181 20.9731 2.79181 20.6798C2.79181 20.3865 3.94442 20.2017 5.33404 20.2017C6.72367 20.2017 7.86164 20.3847 7.86164 20.6798Z" fill="#8080AE"/>
<path d="M7.84798 20.68C7.84798 20.9724 6.65556 21.2662 5.32679 21.2662C3.99802 21.2662 2.8056 20.9724 2.8056 20.68C2.8056 20.3876 3.94952 20.2051 5.33457 20.2051C6.71962 20.2051 7.84798 20.3849 7.84798 20.68Z" fill="#8080AE"/>
<path d="M7.83444 20.68C7.83444 20.971 6.64843 21.2616 5.32698 21.2616C4.00553 21.2616 2.81952 20.971 2.81952 20.68C2.81952 20.389 3.95611 20.2083 5.33613 20.2083C6.71615 20.2083 7.83444 20.3872 7.83444 20.68Z" fill="#7E7DAC"/>
<path d="M7.82112 20.6797C7.82112 20.9698 6.6406 21.2571 5.32692 21.2571C4.01325 21.2571 2.83319 20.9698 2.83319 20.6797C2.83319 20.3896 3.96201 20.2107 5.33516 20.2107C6.70832 20.2107 7.82112 20.3878 7.82112 20.6797Z" fill="#7E7DAC"/>
<path d="M7.8073 20.6797C7.8073 20.9684 6.63273 21.253 5.32684 21.253C4.02095 21.253 2.84637 20.9684 2.84637 20.6797C2.84637 20.3909 3.96787 20.2139 5.33553 20.2139C6.7032 20.2139 7.8073 20.3896 7.8073 20.6797Z" fill="#7C7CAB"/>
<path d="M7.79401 20.6799C7.79401 20.9677 6.62539 21.2491 5.32681 21.2491C4.02824 21.2491 2.85962 20.9677 2.85962 20.6799C2.85962 20.392 3.97333 20.2168 5.33551 20.2168C6.69768 20.2168 7.79401 20.3907 7.79401 20.6799Z" fill="#7C7CAB"/>
<path d="M7.7801 20.6798C7.7801 20.9662 6.61789 21.2449 5.32664 21.2449C4.03539 21.2449 2.87134 20.9662 2.87134 20.6798C2.87134 20.3934 3.97727 20.2195 5.33396 20.2195C6.69064 20.2195 7.7801 20.3915 7.7801 20.6798Z" fill="#7979A9"/>
<path d="M7.76742 20.6797C7.76742 20.9648 6.61115 21.2407 5.32768 21.2407C4.04421 21.2407 2.88794 20.9662 2.88794 20.6797C2.88794 20.3933 3.9861 20.2222 5.33729 20.2222C6.68848 20.2222 7.76742 20.3928 7.76742 20.6797Z" fill="#7979A9"/>
<path d="M7.75333 20.6799C7.75333 20.9641 6.60256 21.2368 5.32824 21.2368C4.05392 21.2368 2.90314 20.9623 2.90314 20.6799C2.90314 20.3976 3.99397 20.2256 5.33922 20.2256C6.68446 20.2256 7.75333 20.394 7.75333 20.6799Z" fill="#7777A8"/>
<path d="M7.73955 20.6799C7.73955 20.9631 6.59564 21.2326 5.32681 21.2326C4.05798 21.2326 2.91406 20.9631 2.91406 20.6799C2.91406 20.3967 3.99666 20.2283 5.33916 20.2283C6.68166 20.2283 7.73955 20.3953 7.73955 20.6799Z" fill="#7777A8"/>
<path d="M7.72632 20.6799C7.72632 20.9617 6.58744 21.2289 5.32684 21.2289C4.06625 21.2289 2.92737 20.9617 2.92737 20.6799C2.92737 20.398 4.00219 20.2314 5.33737 20.2314C6.67254 20.2314 7.72632 20.3962 7.72632 20.6799Z" fill="#7575A6"/>
<path d="M7.71312 20.68C7.71312 20.9605 6.57973 21.2245 5.32691 21.2245C4.0741 21.2245 2.94116 20.9605 2.94116 20.68C2.94116 20.3996 4.00821 20.2344 5.33789 20.2344C6.66758 20.2344 7.71312 20.3977 7.71312 20.68Z" fill="#7575A6"/>
<path d="M7.6994 20.68C7.6994 20.9596 6.57241 21.2204 5.32692 21.2204C4.08142 21.2204 2.9549 20.9596 2.9549 20.68C2.9549 20.4004 4.01416 20.2375 5.3379 20.2375C6.66164 20.2375 7.6994 20.3991 7.6994 20.68Z" fill="#7373A5"/>
<path d="M7.6857 20.68C7.6857 20.9582 6.56467 21.2162 5.32695 21.2162C4.08924 21.2162 2.9682 20.9582 2.9682 20.68C2.9682 20.4018 4.0206 20.2402 5.33839 20.2402C6.65618 20.2402 7.6857 20.3999 7.6857 20.68Z" fill="#7071A3"/>
<path d="M7.6718 20.6801C7.6718 20.9574 6.55717 21.2123 5.32678 21.2123C4.09638 21.2123 2.98175 20.9574 2.98175 20.6801C2.98175 20.4029 4.02546 20.2432 5.33867 20.2432C6.65189 20.2432 7.6718 20.4015 7.6718 20.6801Z" fill="#7071A3"/>
<path d="M7.65863 20.68C7.65863 20.9545 6.54949 21.208 5.32504 21.208C4.10059 21.208 2.99146 20.9559 2.99146 20.68C2.99146 20.404 4.03104 20.2476 5.33877 20.2476C6.64649 20.2476 7.65863 20.4022 7.65863 20.68Z" fill="#6D6EA2"/>
<path d="M7.64506 20.68C7.64506 20.9545 6.54141 21.2039 5.32657 21.2039C4.11174 21.2039 3.00854 20.955 3.00854 20.68C3.00854 20.405 4.0367 20.2476 5.33893 20.2476C6.64116 20.2476 7.64506 20.4036 7.64506 20.68Z" fill="#6D6EA2"/>
<path d="M7.63015 20.6798C7.63015 20.9543 6.53199 21.1996 5.32539 21.1996C4.11879 21.1996 3.02063 20.9534 3.02063 20.6798C3.02063 20.4062 4.04146 20.252 5.3382 20.252C6.63494 20.252 7.63015 20.4048 7.63015 20.6798Z" fill="#6B6CA0"/>
<path d="M7.61771 20.68C7.61771 20.9545 6.52641 21.1956 5.32668 21.1956C4.12694 21.1956 3.03564 20.9531 3.03564 20.68C3.03564 20.4068 4.0487 20.2549 5.33995 20.2549C6.6312 20.2549 7.61771 20.4059 7.61771 20.68Z" fill="#6B6CA0"/>
<path d="M7.60444 20.6799C7.60444 20.9517 6.51864 21.1919 5.32668 21.1919C4.13472 21.1919 3.04938 20.9517 3.04938 20.6799C3.04938 20.4081 4.05602 20.2581 5.33995 20.2581C6.62388 20.2581 7.60444 20.4072 7.60444 20.6799Z" fill="#696A9F"/>
<path d="M7.59075 20.6799C7.59075 20.9503 6.51136 21.1873 5.32672 21.1873C4.14208 21.1873 3.06268 20.9503 3.06268 20.6799C3.06268 20.4095 4.06109 20.2607 5.34228 20.2607C6.62346 20.2607 7.59075 20.4085 7.59075 20.6799Z" fill="#696A9F"/>
<path d="M7.57771 20.6801C7.57771 20.9496 6.5038 21.1834 5.32694 21.1834C4.15008 21.1834 3.07617 20.9496 3.07617 20.6801C3.07617 20.4106 4.06634 20.2637 5.34112 20.2637C6.6159 20.2637 7.57771 20.4096 7.57771 20.6801Z" fill="#67689E"/>
<path d="M7.56368 20.6796C7.56368 20.9478 6.49618 21.1788 5.32664 21.1788C4.1571 21.1788 3.0896 20.9478 3.0896 20.6796C3.0896 20.4115 4.07154 20.2678 5.34082 20.2678C6.61011 20.2678 7.56368 20.4106 7.56368 20.6796Z" fill="#67689E"/>
<path d="M7.55002 20.6796C7.55002 20.9464 6.48801 21.1747 5.32671 21.1747C4.1654 21.1747 3.10339 20.9459 3.10339 20.6796C3.10339 20.4133 4.07755 20.2678 5.34089 20.2678C6.60423 20.2678 7.55002 20.4115 7.55002 20.6796Z" fill="#64669C"/>
<path d="M7.5388 20.6799C7.5388 20.9458 6.48274 21.1709 5.32876 21.1709C4.17478 21.1709 3.11871 20.9458 3.11871 20.6799C3.11871 20.4141 4.08509 20.2727 5.3434 20.2727C6.6017 20.2727 7.5388 20.4132 7.5388 20.6799Z" fill="#64669C"/>
<path d="M7.52313 20.6799C7.52313 20.9448 6.47347 21.1672 5.32681 21.1672C4.18015 21.1672 3.13049 20.9448 3.13049 20.6799C3.13049 20.415 4.09138 20.2759 5.34191 20.2759C6.59244 20.2759 7.52313 20.4141 7.52313 20.6799Z" fill="#62649B"/>
<path d="M7.50947 20.6801C7.50947 20.9427 6.46576 21.1628 5.32688 21.1628C4.188 21.1628 3.14612 20.9427 3.14612 20.6801C3.14612 20.4174 4.0974 20.2783 5.34243 20.2783C6.58747 20.2783 7.50947 20.4151 7.50947 20.6801Z" fill="#62649B"/>
<path d="M7.49657 20.6802C7.49657 20.9424 6.45789 21.1584 5.32679 21.1584C4.19569 21.1584 3.15747 20.9424 3.15747 20.6802C3.15747 20.4181 4.10051 20.2812 5.34235 20.2812C6.58418 20.2812 7.49657 20.4162 7.49657 20.6802Z" fill="#606299"/>
<path d="M7.48276 20.6802C7.48276 20.941 6.45049 21.1538 5.3267 21.1538C4.20292 21.1538 3.17065 20.941 3.17065 20.6802C3.17065 20.4194 4.10683 20.2844 5.34226 20.2844C6.57769 20.2844 7.48276 20.4176 7.48276 20.6802Z" fill="#606299"/>
<path d="M7.46903 20.6804C7.46903 20.9403 6.44271 21.1503 5.32671 21.1503C4.21071 21.1503 3.18439 20.9403 3.18439 20.6804C3.18439 20.4205 4.11233 20.2874 5.34318 20.2874C6.57403 20.2874 7.46903 20.4187 7.46903 20.6804Z" fill="#5E6098"/>
<path d="M7.45543 20.6804C7.45543 20.9384 6.43552 21.1462 5.32684 21.1462C4.21816 21.1462 3.19824 20.9384 3.19824 20.6804C3.19824 20.4223 4.11795 20.2905 5.34377 20.2905C6.56959 20.2905 7.45543 20.42 7.45543 20.6804Z" fill="#5E6098"/>
<path d="M7.44208 20.6803C7.44208 20.9375 6.42766 21.142 5.32675 21.142C4.22585 21.142 3.21143 20.9375 3.21143 20.6803C3.21143 20.4232 4.12381 20.2932 5.34231 20.2932C6.56081 20.2932 7.44208 20.4213 7.44208 20.6803Z" fill="#5B5D96"/>
<path d="M7.42879 20.6805C7.42879 20.9367 6.42214 21.1381 5.32673 21.1381C4.23132 21.1381 3.22467 20.9367 3.22467 20.6805C3.22467 20.4243 4.12974 20.2961 5.34412 20.2961C6.5585 20.2961 7.42879 20.4224 7.42879 20.6805Z" fill="#595C95"/>
<path d="M7.4015 20.6799C7.4015 20.9329 6.40583 21.1315 5.32689 21.1315C4.24795 21.1315 3.25275 20.9338 3.25275 20.6799C3.25275 20.4259 4.14546 20.301 5.34382 20.301C6.54219 20.301 7.4015 20.4259 7.4015 20.6799Z" fill="#595C95"/>
<path d="M7.3736 20.6795C7.3736 20.9289 6.3912 21.1247 5.3269 21.1247C4.26261 21.1247 3.28021 20.9289 3.28021 20.6795C3.28021 20.4301 4.16103 20.3057 5.34383 20.3057C6.52664 20.3057 7.3736 20.4301 7.3736 20.6795Z" fill="#575993"/>
<path d="M7.3457 20.68C7.3457 20.9258 6.37703 21.1189 5.32692 21.1189C4.2768 21.1189 3.30768 20.9258 3.30768 20.68C3.30768 20.4343 4.17705 20.3108 5.34385 20.3108C6.51064 20.3108 7.3457 20.4307 7.3457 20.68Z" fill="#575993"/>
<path d="M7.31813 20.6794C7.31813 20.9224 6.36274 21.1123 5.32681 21.1123C4.29088 21.1123 3.33594 20.9224 3.33594 20.6794C3.33594 20.4365 4.1925 20.3157 5.34328 20.3157C6.49406 20.3157 7.31813 20.4356 7.31813 20.6794Z" fill="#545791"/>
<path d="M7.29066 20.6793C7.29066 20.9186 6.34808 21.1053 5.32679 21.1053C4.3055 21.1053 3.36292 20.9186 3.36292 20.6793C3.36292 20.44 4.2085 20.3206 5.34235 20.3206C6.47619 20.3206 7.29066 20.4386 7.29066 20.6793Z" fill="#545791"/>
<path d="M7.26401 20.6794C7.26401 20.9159 6.33515 21.099 5.32805 21.099C4.32095 21.099 3.39209 20.9159 3.39209 20.6794C3.39209 20.4428 4.22532 20.3257 5.34407 20.3257C6.46281 20.3257 7.26401 20.4419 7.26401 20.6794Z" fill="#525590"/>
<path d="M7.23538 20.6794C7.23538 20.9123 6.32025 21.0913 5.32687 21.0913C4.3335 21.0913 3.42065 20.9123 3.42065 20.6794C3.42065 20.4465 4.24427 20.3303 5.34472 20.3303C6.44516 20.3303 7.23538 20.4452 7.23538 20.6794Z" fill="#525590"/>
<path d="M7.20779 20.6793C7.20779 20.9081 6.30547 21.0861 5.32673 21.0861C4.348 21.0861 3.44568 20.9085 3.44568 20.6793C3.44568 20.4501 4.25557 20.3352 5.34183 20.3352C6.42809 20.3352 7.20779 20.4482 7.20779 20.6793Z" fill="#4F538F"/>
<path d="M7.17989 20.6788C7.17989 20.9049 6.29038 21.0797 5.32674 21.0797C4.36311 21.0797 3.47314 20.9049 3.47314 20.6788C3.47314 20.4528 4.27114 20.3389 5.3423 20.3389C6.41346 20.3389 7.17989 20.4519 7.17989 20.6788Z" fill="#4F538F"/>
<path d="M7.15247 20.679C7.15247 20.9019 6.27624 21.0734 5.32679 21.0734C4.37734 21.0734 3.5011 20.9019 3.5011 20.679C3.5011 20.4562 4.2872 20.3455 5.34189 20.3455C6.39658 20.3455 7.15247 20.4553 7.15247 20.679Z" fill="#4D518D"/>
<path d="M7.12689 20.6791C7.12689 20.8983 6.26438 21.0667 5.32912 21.0667C4.39385 21.0667 3.53088 20.8983 3.53088 20.6791C3.53088 20.4599 4.30508 20.3506 5.34376 20.3506C6.38243 20.3506 7.12689 20.4586 7.12689 20.6791Z" fill="#4D518D"/>
<path d="M7.09726 20.6787C7.09726 20.8942 6.24756 21.0599 5.32693 21.0599C4.40631 21.0599 3.55798 20.8942 3.55798 20.6787C3.55798 20.4632 4.32029 20.3552 5.34249 20.3552C6.36469 20.3552 7.09726 20.4614 7.09726 20.6787Z" fill="#4B4F8C"/>
<path d="M7.0696 20.6782C7.0696 20.891 6.23317 21.0534 5.32673 21.0534C4.42029 21.0534 3.58386 20.891 3.58386 20.6782C3.58386 20.4654 4.33427 20.3579 5.34091 20.3579C6.34756 20.3579 7.0696 20.4645 7.0696 20.6782Z" fill="#4B4F8C"/>
<path d="M7.04225 20.6781C7.04225 20.8877 6.21863 21.0469 5.32683 21.0469C4.43504 21.0469 3.61188 20.8877 3.61188 20.6781C3.61188 20.4686 4.34993 20.3643 5.34102 20.3643C6.33211 20.3643 7.04225 20.4681 7.04225 20.6781Z" fill="#494D8B"/>
<path d="M7.01441 20.6785C7.01441 20.8844 6.20452 21.0404 5.32691 21.0404C4.4493 21.0404 3.6394 20.8844 3.6394 20.6785C3.6394 20.4726 4.36556 20.3696 5.34109 20.3696C6.31662 20.3696 7.01441 20.4712 7.01441 20.6785Z" fill="#494D8B"/>
<path d="M6.98672 20.6786C6.98672 20.8809 6.1901 21.0341 5.32668 21.0341C4.46325 21.0341 3.66663 20.8809 3.66663 20.6786C3.66663 20.4764 4.38134 20.3752 5.34223 20.3752C6.30312 20.3752 6.98672 20.4764 6.98672 20.6786Z" fill="#464B89"/>
<path d="M6.95901 20.6787C6.95901 20.8773 6.17611 21.0283 5.32687 21.0283C4.47763 21.0283 3.69519 20.8773 3.69519 20.6787C3.69519 20.4801 4.39755 20.3804 5.34243 20.3804C6.2873 20.3804 6.95901 20.4765 6.95901 20.6787Z" fill="#464B89"/>
<path d="M6.93153 20.6778C6.93153 20.8732 6.16145 21.021 5.32685 21.021C4.49225 21.021 3.72217 20.8732 3.72217 20.6778C3.72217 20.4824 4.41263 20.3845 5.34241 20.3845C6.27218 20.3845 6.93153 20.4806 6.93153 20.6778Z" fill="#444988"/>
<path d="M6.904 20.6779C6.904 20.8701 6.14719 21.0151 5.32677 21.0151C4.50636 21.0151 3.75 20.8701 3.75 20.6779C3.75 20.4857 4.42857 20.3896 5.34004 20.3896C6.25151 20.3896 6.904 20.4844 6.904 20.6779Z" fill="#414786"/>
<path d="M6.87604 20.6778C6.87604 20.8667 6.1325 21.0077 5.32672 21.0077C4.52095 21.0077 3.7774 20.8667 3.7774 20.6778C3.7774 20.4888 4.44408 20.3945 5.33953 20.3945C6.23499 20.3945 6.87604 20.4874 6.87604 20.6778Z" fill="#414786"/>
<path d="M6.84878 20.6772C6.84878 20.8629 6.11668 21.0011 5.32692 21.0011C4.53716 21.0011 3.80505 20.8638 3.80505 20.6772C3.80505 20.4905 4.46029 20.3994 5.33927 20.3994C6.21826 20.3994 6.84878 20.4905 6.84878 20.6772Z" fill="#3E4584"/>
<path d="M6.82128 20.6774C6.82128 20.8604 6.10427 20.9949 5.32687 20.9949C4.54946 20.9949 3.83246 20.8595 3.83246 20.6774C3.83246 20.4953 4.4758 20.4028 5.33922 20.4028C6.20265 20.4028 6.82128 20.4939 6.82128 20.6774Z" fill="#3E4584"/>
<path d="M6.7935 20.6776C6.7935 20.8565 6.08977 20.9887 5.327 20.9887C4.56424 20.9887 3.86279 20.8565 3.86279 20.6776C3.86279 20.4986 4.49423 20.4094 5.34119 20.4094C6.18814 20.4094 6.7935 20.4977 6.7935 20.6776Z" fill="#3C4383"/>
<path d="M6.76585 20.6769C6.76585 20.8527 6.07538 20.9826 5.3268 20.9826C4.57822 20.9826 3.88776 20.8527 3.88776 20.6769C3.88776 20.5012 4.50684 20.4143 5.3387 20.4143C6.17055 20.4143 6.76585 20.5008 6.76585 20.6769Z" fill="#3C4383"/>
<path d="M6.73837 20.677C6.73837 20.8491 6.06072 20.9758 5.32678 20.9758C4.59285 20.9758 3.91565 20.8491 3.91565 20.677C3.91565 20.505 4.52284 20.4194 5.33822 20.4194C6.1536 20.4194 6.73837 20.5041 6.73837 20.677Z" fill="#394181"/>
<path d="M6.71053 20.6764C6.71053 20.8452 6.04661 20.9692 5.32686 20.9692C4.6071 20.9692 3.94318 20.8452 3.94318 20.6764C3.94318 20.5076 4.53801 20.4238 5.33829 20.4238C6.13858 20.4238 6.71053 20.5071 6.71053 20.6764Z" fill="#394181"/>
<path d="M6.68297 20.6768C6.68297 20.8429 6.03231 20.9633 5.32674 20.9633C4.62118 20.9633 3.9696 20.8425 3.9696 20.6768C3.9696 20.5112 4.55437 20.4307 5.33773 20.4307C6.12108 20.4307 6.68297 20.5107 6.68297 20.6768Z" fill="#373F80"/>
<path d="M6.65565 20.6768C6.65565 20.8393 6.01781 20.9564 5.32871 20.9564C4.63962 20.9564 4.00177 20.8393 4.00177 20.6768C4.00177 20.5144 4.57327 20.4343 5.34107 20.4343C6.10886 20.4343 6.65565 20.5139 6.65565 20.6768Z" fill="#373F80"/>
<path d="M6.62766 20.6769C6.62766 20.8357 6.00354 20.9514 5.3268 20.9514C4.65006 20.9514 4.02594 20.8366 4.02594 20.6769C4.02594 20.5172 4.586 20.439 5.33778 20.439C6.08956 20.439 6.62766 20.5172 6.62766 20.6769Z" fill="#343D7F"/>
<path d="M6.60022 20.6763C6.60022 20.8314 5.98891 20.9435 5.32681 20.9435C4.66471 20.9435 4.05341 20.8314 4.05341 20.6763C4.05341 20.5212 4.60248 20.4438 5.33734 20.4438C6.07219 20.4438 6.60022 20.5216 6.60022 20.6763Z" fill="#343D7F"/>
<path d="M6.57232 20.6765C6.57232 20.8284 5.97474 20.9369 5.32682 20.9369C4.67891 20.9369 4.08087 20.8284 4.08087 20.6765C4.08087 20.5246 4.61714 20.4478 5.33735 20.4478C6.05756 20.4478 6.57232 20.5219 6.57232 20.6765Z" fill="#323B7D"/>
<path d="M6.5453 20.6767C6.5453 20.8249 5.96053 20.9306 5.3268 20.9306C4.69308 20.9306 4.10693 20.8249 4.10693 20.6767C4.10693 20.5284 4.6313 20.4539 5.33504 20.4539C6.03878 20.4539 6.5453 20.5271 6.5453 20.6767Z" fill="#323B7D"/>
<path d="M6.51728 20.6763C6.51728 20.8213 5.94578 20.9234 5.32761 20.9234C4.70944 20.9234 4.13794 20.8213 4.13794 20.6763C4.13794 20.5312 4.65041 20.4585 5.33813 20.4585C6.02586 20.4585 6.51728 20.5299 6.51728 20.6763Z" fill="#2F397C"/>
<path d="M6.4895 20.6766C6.4895 20.818 5.93173 20.9178 5.32683 20.9178C4.72193 20.9178 4.1637 20.818 4.1637 20.6766C4.1637 20.5352 4.66702 20.4639 5.33644 20.4639C6.00586 20.4639 6.4895 20.5339 6.4895 20.6766Z" fill="#2F397C"/>
<path d="M6.46221 20.6767C6.46221 20.814 5.91771 20.9114 5.32699 20.9114C4.73628 20.9114 4.19177 20.8149 4.19177 20.6767C4.19177 20.5385 4.68045 20.4685 5.33569 20.4685C5.99092 20.4685 6.46221 20.5371 6.46221 20.6767Z" fill="#2D387B"/>
<path d="M6.43456 20.6756C6.43456 20.8129 5.90287 20.9044 5.32679 20.9044C4.75072 20.9044 4.21948 20.8106 4.21948 20.6756C4.21948 20.5407 4.69581 20.4734 5.33594 20.4734C5.97608 20.4734 6.43456 20.5397 6.43456 20.6756Z" fill="#2D387B"/>
<path d="M6.40718 20.6755C6.40718 20.8073 5.88876 20.8979 5.32686 20.8979C4.76497 20.8979 4.24701 20.8063 4.24701 20.6755C4.24701 20.5446 4.71144 20.4783 5.33556 20.4783C5.95968 20.4783 6.40718 20.5432 6.40718 20.6755Z" fill="#2A3579"/>
<path d="M6.37928 20.6756C6.37928 20.8042 5.87596 20.8915 5.32688 20.8915C4.7778 20.8915 4.27448 20.8042 4.27448 20.6756C4.27448 20.547 4.72747 20.4834 5.33557 20.4834C5.94367 20.4834 6.37928 20.5465 6.37928 20.6756Z" fill="#273478"/>
<path d="M6.35147 20.6759C6.35147 20.8008 5.86004 20.8854 5.32698 20.8854C4.79392 20.8854 4.30249 20.8008 4.30249 20.6759C4.30249 20.551 4.74358 20.4883 5.33567 20.4883C5.92776 20.4883 6.35147 20.5501 6.35147 20.6759Z" fill="#273478"/>
<path d="M6.32406 20.6757C6.32406 20.797 5.84544 20.8789 5.32702 20.8789C4.8086 20.8789 4.32953 20.797 4.32953 20.6757C4.32953 20.5544 4.75918 20.4927 5.33617 20.4927C5.91316 20.4927 6.32406 20.5531 6.32406 20.6757Z" fill="#243276"/>
<path d="M6.2964 20.6754C6.2964 20.7939 5.83106 20.8721 5.32682 20.8721C4.82258 20.8721 4.35724 20.7939 4.35724 20.6754C4.35724 20.5569 4.77454 20.4983 5.33506 20.4983C5.89557 20.4983 6.2964 20.5569 6.2964 20.6754Z" fill="#243276"/>
<path d="M6.26856 20.675C6.26856 20.7903 5.81695 20.8653 5.32689 20.8653C4.83684 20.8653 4.38477 20.7903 4.38477 20.675C4.38477 20.5597 4.79063 20.5029 5.33467 20.5029C5.87872 20.5029 6.26856 20.5592 6.26856 20.675Z" fill="#203074"/>
<path d="M6.24097 20.6748C6.24097 20.7865 5.80216 20.8579 5.32584 20.8579C4.84951 20.8579 4.41071 20.7851 4.41071 20.6748C4.41071 20.5646 4.80421 20.5078 5.3327 20.5078C5.86119 20.5078 6.24097 20.5627 6.24097 20.6748Z" fill="#203074"/>
<path d="M6.21182 20.6747C6.21182 20.7831 5.78628 20.8527 5.32506 20.8527C4.86383 20.8527 4.43829 20.7831 4.43829 20.6747C4.43829 20.5662 4.8199 20.5127 5.33238 20.5127C5.84485 20.5127 6.21182 20.5676 6.21182 20.6747Z" fill="#1E2E73"/>
<path d="M6.18612 20.6748C6.18612 20.7795 5.77431 20.8464 5.32681 20.8464C4.87931 20.8464 4.46796 20.7795 4.46796 20.6748C4.46796 20.57 4.83767 20.5178 5.33367 20.5178C5.82967 20.5178 6.18612 20.5677 6.18612 20.6748Z" fill="#1E2E73"/>
<path d="M6.15828 20.6748C6.15828 20.7764 5.75928 20.84 5.32688 20.84C4.89448 20.84 4.49548 20.7764 4.49548 20.6748C4.49548 20.5732 4.8533 20.522 5.33374 20.522C5.81419 20.522 6.15828 20.5728 6.15828 20.6748Z" fill="#1A2C72"/>
<path d="M6.13084 20.6747C6.13084 20.7726 5.74511 20.8335 5.32689 20.8335C4.90868 20.8335 4.52295 20.7726 4.52295 20.6747C4.52295 20.5768 4.86933 20.5278 5.3333 20.5278C5.79727 20.5278 6.13084 20.5754 6.13084 20.6747Z" fill="#1A2C72"/>
<path d="M6.10297 20.675C6.10297 20.7697 5.73096 20.8269 5.3251 20.8269C4.91924 20.8269 4.54724 20.7697 4.54724 20.675C4.54724 20.5803 4.88126 20.5327 5.32968 20.5327C5.77809 20.5327 6.10297 20.5794 6.10297 20.675Z" fill="#172B70"/>
<path d="M6.07467 20.6744C6.07467 20.7659 5.71548 20.8199 5.32609 20.8199C4.9367 20.8199 4.57751 20.7654 4.57751 20.6744C4.57751 20.5833 4.89781 20.5371 5.3325 20.5371C5.76719 20.5371 6.07467 20.5824 6.07467 20.6744Z" fill="#172B70"/>
<path d="M6.04796 20.6743C6.04796 20.7626 5.70204 20.8115 5.32684 20.8115C4.95163 20.8115 4.60571 20.7603 4.60571 20.6743C4.60571 20.5882 4.9164 20.5425 5.33279 20.5425C5.74917 20.5425 6.04796 20.5859 6.04796 20.6743Z" fill="#12286F"/>
<path d="M6.02067 20.6743C6.02067 20.759 5.68756 20.8075 5.327 20.8075C4.96644 20.8075 4.63379 20.759 4.63379 20.6743C4.63379 20.5897 4.93212 20.5471 5.33249 20.5471C5.73286 20.5471 6.02067 20.5892 6.02067 20.6743Z" fill="#12286F"/>
<path d="M5.99253 20.674C5.99253 20.7554 5.67223 20.8012 5.32677 20.8012C4.98131 20.8012 4.66101 20.7554 4.66101 20.674C4.66101 20.5925 4.9479 20.5522 5.33226 20.5522C5.71661 20.5522 5.99253 20.5925 5.99253 20.674Z" fill="#0E276E"/>
<path d="M5.96514 20.6738C5.96514 20.7516 5.65858 20.7942 5.32455 20.7942C4.99053 20.7942 4.68396 20.7516 4.68396 20.6738C4.68396 20.5961 4.9585 20.5576 5.3273 20.5576C5.6961 20.5576 5.96514 20.5956 5.96514 20.6738Z" fill="#0E276E"/>
<path d="M5.93734 20.6739C5.93734 20.7485 5.6445 20.7878 5.32695 20.7878C5.0094 20.7878 4.71655 20.7485 4.71655 20.6739C4.71655 20.5993 4.97965 20.5623 5.33198 20.5623C5.6843 20.5623 5.93734 20.5993 5.93734 20.6739Z" fill="#08256C"/>
<path d="M5.9099 20.6738C5.9099 20.7447 5.63032 20.7813 5.32696 20.7813C5.02359 20.7813 4.74402 20.7447 4.74402 20.6738C4.74402 20.6028 4.99522 20.5671 5.33199 20.5671C5.66876 20.5671 5.9099 20.6019 5.9099 20.6738Z" fill="#08256C"/>
<path d="M5.88245 20.6738C5.88245 20.7416 5.61569 20.775 5.32697 20.775C5.03825 20.775 4.77148 20.7416 4.77148 20.6738C4.77148 20.6061 5.01079 20.5723 5.33155 20.5723C5.6523 20.5723 5.88245 20.6057 5.88245 20.6738Z" fill="#03236B"/>
<path d="M5.8544 20.6739C5.8544 20.738 5.60137 20.7687 5.32683 20.7687C5.05229 20.7687 4.79926 20.738 4.79926 20.6739C4.79926 20.6099 5.02804 20.5774 5.33095 20.5774C5.63386 20.5774 5.8544 20.609 5.8544 20.6739Z" fill="#002169"/>
<path d="M0.354861 14.2495C0.356851 13.2682 0.649656 12.3095 1.19628 11.4946C1.7429 10.6796 2.51882 10.045 3.42598 9.67085C4.33315 9.29671 5.33086 9.19985 6.29306 9.39251C7.25525 9.58517 8.13875 10.0587 8.83193 10.7533C9.5251 11.4479 9.99685 12.3323 10.1876 13.2949C10.3783 14.2575 10.2794 15.255 9.9034 16.1614C9.52742 17.0678 8.89121 17.8424 8.07516 18.3874C7.2591 18.9324 6.29983 19.2232 5.31854 19.2232C4.00079 19.2218 2.73758 18.697 1.80674 17.7643C0.875892 16.8315 0.353646 15.5673 0.354861 14.2495Z" fill="#ED212A"/>
<path d="M7.43621 9.74967C7.90393 10.2058 8.26033 10.7635 8.4778 11.3796C8.69527 11.9957 8.76796 12.6535 8.69025 13.3022C8.61254 13.9509 8.38652 14.573 8.02968 15.1203C7.67285 15.6675 7.1948 16.1253 6.63258 16.4581C6.07036 16.7908 5.43906 16.9897 4.78762 17.0392C4.13617 17.0887 3.48207 16.9876 2.87601 16.7436C2.26995 16.4996 1.72821 16.1194 1.29276 15.6323C0.857308 15.1453 0.539852 14.5645 0.36499 13.935C0.414469 13.1258 0.661437 12.3411 1.0843 11.6494C1.50716 10.9577 2.09304 10.3801 2.79071 9.96716C3.48837 9.55422 4.27658 9.31849 5.08641 9.28058C5.89623 9.24266 6.70302 9.40372 7.43621 9.74967Z" fill="#ED212A"/>
<path d="M7.17273 9.63489C7.67042 10.0661 8.05843 10.6095 8.30475 11.2203C8.55107 11.831 8.64864 12.4915 8.58941 13.1474C8.53018 13.8032 8.31584 14.4356 7.96408 14.9923C7.61232 15.549 7.13323 16.0141 6.56633 16.3492C5.99943 16.6843 5.36097 16.8798 4.70364 16.9196C4.04632 16.9593 3.38896 16.8422 2.78581 16.5779C2.18265 16.3135 1.651 15.9096 1.23472 15.3993C0.81843 14.889 0.529444 14.2871 0.391602 13.6432C0.483101 12.8871 0.747333 12.1623 1.16385 11.5248C1.58036 10.8872 2.13799 10.354 2.79357 9.96654C3.44915 9.57903 4.1851 9.34756 4.94447 9.29005C5.70384 9.23254 6.46626 9.35053 7.17273 9.63489Z" fill="#EE2E2E"/>
<path d="M6.9069 9.53553C7.43412 9.93886 7.85421 10.4655 8.13025 11.0692C8.40629 11.6729 8.52983 12.3352 8.49001 12.9978C8.45019 13.6604 8.24824 14.3031 7.9019 14.8694C7.55556 15.4357 7.07543 15.9082 6.50371 16.2455C5.93198 16.5828 5.28616 16.7745 4.623 16.8038C3.95984 16.8331 3.29964 16.6991 2.7004 16.4135C2.10117 16.1279 1.58126 15.6995 1.18635 15.1659C0.791434 14.6324 0.533616 14.01 0.435547 13.3535C0.563036 12.6521 0.840023 11.9864 1.24768 11.4017C1.65534 10.8169 2.18412 10.3267 2.79808 9.96452C3.41203 9.6023 4.09678 9.37651 4.80576 9.30248C5.51475 9.22846 6.23137 9.30794 6.9069 9.53553Z" fill="#EE3530"/>
<path d="M6.6359 9.45319C7.19135 9.82543 7.64331 10.3325 7.94948 10.9269C8.25565 11.5214 8.40602 12.1838 8.38653 12.8521C8.36705 13.5205 8.17834 14.173 7.83805 14.7486C7.49777 15.3242 7.01704 15.804 6.44084 16.1433C5.86464 16.4825 5.2118 16.6701 4.54339 16.6884C3.87499 16.7066 3.21287 16.5551 2.61899 16.2478C2.0251 15.9406 1.51885 15.4877 1.14761 14.9316C0.776375 14.3755 0.552273 13.7343 0.496277 13.068C0.653115 12.4223 0.937966 11.8147 1.33395 11.2812C1.72993 10.7477 2.22898 10.2991 2.80153 9.962C3.37408 9.6249 4.00848 9.40617 4.66712 9.31877C5.32576 9.23137 5.99524 9.27708 6.6359 9.45319Z" fill="#EF3D34"/>
<path d="M6.35593 9.38454C6.93912 9.72173 7.42371 10.2059 7.76139 10.7888C8.09906 11.3718 8.27801 12.033 8.28039 12.7067C8.28277 13.3803 8.1085 14.0428 7.77495 14.6281C7.4414 15.2134 6.96024 15.701 6.37945 16.0423C5.79865 16.3836 5.13853 16.5667 4.46491 16.5732C3.79129 16.5798 3.12771 16.4097 2.54036 16.0798C1.95301 15.7499 1.46241 15.2718 1.11748 14.6932C0.772561 14.1145 0.585372 13.4555 0.574585 12.782C0.938913 11.5953 1.73463 10.5883 2.80481 9.95938C3.875 9.33049 5.14199 9.12539 6.35593 9.38454Z" fill="#EF4437"/>
<path d="M0.6651 12.7007C0.6651 12.6339 0.6651 12.5671 0.670591 12.5007C1.06987 11.4329 1.82453 10.535 2.80777 9.95797C3.791 9.38094 4.94289 9.15993 6.06987 9.33207C6.67078 9.62691 7.18188 10.0771 7.55016 10.636C7.91845 11.195 8.13052 11.8422 8.16438 12.5107C8.19824 13.1792 8.05265 13.8446 7.74272 14.4378C7.43278 15.0311 6.96979 15.5307 6.40174 15.8847C5.8337 16.2387 5.18128 16.4344 4.51215 16.4513C3.84302 16.4683 3.18154 16.3059 2.5963 15.9811C2.01105 15.6563 1.52336 15.1808 1.18379 14.604C0.844218 14.0272 0.665131 13.37 0.6651 12.7007Z" fill="#F04B3B"/>
<path d="M0.756593 12.6845C0.756587 12.5292 0.766367 12.3741 0.785878 12.2201C1.17615 11.3438 1.81193 10.5994 2.61633 10.0769C3.42073 9.55433 4.3593 9.27603 5.31852 9.27563C5.47181 9.27563 5.62326 9.28296 5.77289 9.29668C6.38828 9.54417 6.92469 9.95454 7.32455 10.4838C7.72441 11.013 7.97265 11.6411 8.04262 12.3007C8.11259 12.9603 8.00166 13.6265 7.72173 14.2278C7.4418 14.8291 7.00344 15.3429 6.45366 15.714C5.90389 16.0851 5.26345 16.2995 4.60106 16.3343C3.93868 16.369 3.27933 16.2227 2.69377 15.9111C2.1082 15.5996 1.61851 15.1345 1.27724 14.5657C0.935962 13.9969 0.755977 13.346 0.756593 12.6827V12.6845Z" fill="#F0503F"/>
<path d="M0.848084 12.6676C0.847937 12.4216 0.873082 12.1763 0.923125 11.9355C1.34324 11.1332 1.97493 10.4612 2.74973 9.99233C3.52453 9.52346 4.41288 9.27561 5.3185 9.27563C5.367 9.27563 5.41505 9.27563 5.46309 9.27792C6.08995 9.47427 6.65011 9.84056 7.08133 10.3361C7.51256 10.8316 7.79796 11.437 7.90584 12.085C8.01372 12.733 7.93985 13.3982 7.69244 14.0067C7.44503 14.6152 7.03377 15.1432 6.50434 15.5321C5.97491 15.9209 5.34804 16.1554 4.69337 16.2094C4.03871 16.2635 3.38187 16.135 2.79585 15.8382C2.20982 15.5414 1.71754 15.088 1.3737 14.5283C1.02986 13.9685 0.847914 13.3245 0.848084 12.6676Z" fill="#F15844"/>
<path d="M0.939516 12.6518C0.939155 12.3119 0.988799 11.9738 1.08685 11.6483C1.51372 10.9502 2.1067 10.3684 2.81294 9.95505C3.51917 9.54166 4.31672 9.30943 5.13448 9.27905C5.77031 9.41899 6.35362 9.73585 6.81711 10.1931C7.2806 10.6503 7.60537 11.2292 7.75397 11.8631C7.90256 12.497 7.86891 13.1599 7.65691 13.7755C7.44491 14.391 7.06319 14.9341 6.55579 15.3421C6.0484 15.75 5.43601 16.0062 4.78927 16.081C4.14254 16.1559 3.48783 16.0464 2.90066 15.7651C2.3135 15.4838 1.81783 15.0423 1.47082 14.4914C1.12382 13.9406 0.939636 13.3028 0.939516 12.6518Z" fill="#F15C47"/>
<path d="M1.03082 12.6342C1.03034 12.1937 1.11679 11.7574 1.28523 11.3503C1.69075 10.783 2.21139 10.3076 2.81314 9.95528C3.41489 9.60292 4.08421 9.38148 4.77737 9.30542C5.41919 9.38137 6.02538 9.64121 6.52296 10.0537C7.02053 10.4661 7.38829 11.0136 7.58195 11.6302C7.77561 12.2468 7.78691 12.9062 7.61451 13.5291C7.44211 14.152 7.09334 14.7118 6.6102 15.141C6.12705 15.5703 5.53013 15.8508 4.89129 15.9487C4.25246 16.0466 3.59894 15.9577 3.00941 15.6929C2.41988 15.428 1.91948 14.9984 1.56845 14.4557C1.21742 13.9131 1.03072 13.2805 1.03082 12.6342Z" fill="#F1614B"/>
<path d="M1.12244 12.6171C1.12188 12.0624 1.26367 11.5168 1.53425 11.0326C2.26447 10.1684 3.26822 9.57992 4.37893 9.36475C5.02215 9.36547 5.65071 9.55687 6.18516 9.91476C6.71962 10.2726 7.13597 10.7809 7.38159 11.3754C7.62722 11.9699 7.69109 12.6238 7.56513 13.2546C7.43916 13.8853 7.12903 14.4646 6.67392 14.9191C6.21881 15.3737 5.63916 15.6831 5.00824 15.8082C4.37733 15.9334 3.72346 15.8687 3.12931 15.6223C2.53515 15.3759 2.02737 14.959 1.67016 14.424C1.31295 13.8891 1.12235 13.2603 1.12244 12.6171Z" fill="#F26850"/>
<path d="M1.21412 12.6006C1.213 11.9006 1.44553 11.2202 1.87484 10.6673C2.44487 10.1164 3.13873 9.71013 3.8982 9.48271C4.5345 9.38716 5.1848 9.48862 5.76175 9.77347C6.3387 10.0583 6.81466 10.5129 7.12569 11.0762C7.43673 11.6394 7.56795 12.2844 7.50171 12.9244C7.43548 13.5644 7.17497 14.1688 6.75518 14.6565C6.33539 15.1441 5.77643 15.4916 5.15338 15.6523C4.53032 15.8129 3.87302 15.7791 3.26977 15.5552C2.66652 15.3314 2.14622 14.9283 1.77875 14.4002C1.41128 13.872 1.21424 13.244 1.21412 12.6006Z" fill="#F26C54"/>
<path d="M1.3053 12.5837C1.30488 12.0979 1.42051 11.619 1.64257 11.1869C1.86462 10.7548 2.18667 10.3821 2.58191 10.0996C2.7343 9.99833 2.89208 9.90546 3.05457 9.82138C3.65246 9.53904 4.32586 9.45844 4.97349 9.59171C5.62113 9.72497 6.20799 10.0649 6.64583 10.5604C7.08366 11.0558 7.34881 11.6801 7.40139 12.3392C7.45397 12.9983 7.29114 13.6566 6.93739 14.2153C6.58364 14.7739 6.05809 15.2025 5.43978 15.4368C4.82147 15.671 4.14381 15.6982 3.50872 15.5143C2.87363 15.3303 2.31543 14.9451 1.91808 14.4166C1.52072 13.8881 1.30568 13.2449 1.3053 12.5837Z" fill="#F37259"/>
<path d="M1.39685 12.5671C1.39803 11.9849 1.57174 11.4162 1.89605 10.9326C2.22035 10.4491 2.68069 10.0726 3.2189 9.85064C3.75711 9.62866 4.34904 9.57119 4.9199 9.68549C5.49077 9.79979 6.01494 10.0807 6.42619 10.4928C6.83745 10.9049 7.11733 11.4296 7.23048 12.0007C7.34363 12.5718 7.28497 13.1636 7.0619 13.7014C6.83883 14.2392 6.46138 14.6987 5.97722 15.0221C5.49307 15.3454 4.92394 15.518 4.34175 15.518C3.95462 15.5176 3.57135 15.441 3.21384 15.2925C2.85632 15.144 2.53156 14.9265 2.25809 14.6525C1.98463 14.3785 1.76782 14.0533 1.62005 13.6955C1.47227 13.3377 1.39643 12.9542 1.39685 12.5671Z" fill="#F3765D"/>
<path d="M1.48786 12.5504C1.48894 11.988 1.6567 11.4385 1.96994 10.9715C2.28318 10.5044 2.72783 10.1406 3.24773 9.92615C3.76762 9.71168 4.33942 9.65613 4.89087 9.76651C5.44232 9.8769 5.94869 10.1483 6.34597 10.5463C6.74326 10.9444 7.01365 11.4513 7.12296 12.0029C7.23228 12.5546 7.17563 13.1263 6.96016 13.6457C6.74469 14.1652 6.38008 14.6092 5.91239 14.9215C5.44471 15.2339 4.89493 15.4006 4.33254 15.4006C3.95861 15.4002 3.58841 15.3262 3.24309 15.1828C2.89776 15.0393 2.58406 14.8293 2.31991 14.5646C2.05575 14.3 1.84632 13.9859 1.70355 13.6403C1.56079 13.2946 1.48749 12.9243 1.48786 12.5504Z" fill="#F47B62"/>
<path d="M1.57929 12.5338C1.58019 11.991 1.74198 11.4607 2.04419 11.0098C2.34641 10.5589 2.7755 10.2077 3.27723 10.0006C3.77897 9.79355 4.33083 9.73983 4.86308 9.84628C5.39534 9.95273 5.88409 10.2146 6.26758 10.5987C6.65108 10.9828 6.9121 11.472 7.01766 12.0044C7.12322 12.5369 7.06858 13.0886 6.86066 13.59C6.65273 14.0914 6.30084 14.5199 5.84947 14.8214C5.39809 15.1229 4.86748 15.2838 4.32468 15.2838C3.96377 15.2838 3.60639 15.2126 3.27301 15.0743C2.93962 14.9361 2.63677 14.7335 2.38178 14.478C2.12678 14.2226 1.92465 13.9194 1.78695 13.5858C1.64925 13.2522 1.57869 12.8947 1.57929 12.5338Z" fill="#F47F65"/>
<path d="M1.67084 12.5166C1.67229 11.9939 1.8286 11.4834 2.12004 11.0495C2.41147 10.6156 2.82495 10.2778 3.30826 10.0788C3.79156 9.87981 4.323 9.82849 4.83546 9.93134C5.34792 10.0342 5.81839 10.2866 6.18747 10.6567C6.55655 11.0268 6.80766 11.498 6.9091 12.0107C7.01054 12.5235 6.95775 13.0548 6.7574 13.5375C6.55704 14.0203 6.21812 14.4328 5.78343 14.723C5.34874 15.0133 4.83779 15.1682 4.31511 15.1682C3.96735 15.1678 3.62306 15.0989 3.30193 14.9655C2.9808 14.832 2.68911 14.6366 2.44355 14.3903C2.19798 14.1441 2.00334 13.8518 1.87076 13.5303C1.73817 13.2088 1.67024 12.8644 1.67084 12.5166Z" fill="#F5856B"/>
<path d="M1.76233 12.5002C1.76333 11.9974 1.91334 11.5061 2.19342 11.0885C2.4735 10.6709 2.87107 10.3457 3.33592 10.1539C3.80076 9.96213 4.31201 9.91245 4.80508 10.0111C5.29815 10.1098 5.75091 10.3524 6.10615 10.7083C6.4614 11.0642 6.70319 11.5174 6.80098 12.0106C6.89877 12.5039 6.84817 13.015 6.65557 13.4795C6.46298 13.944 6.13702 14.341 5.7189 14.6203C5.30078 14.8997 4.80924 15.0488 4.3064 15.0489C3.972 15.0486 3.64095 14.9824 3.33212 14.8542C3.0233 14.7259 2.74276 14.5381 2.50652 14.3015C2.27028 14.0648 2.08297 13.7839 1.95528 13.4749C1.8276 13.1658 1.76203 12.8346 1.76233 12.5002Z" fill="#F5896E"/>
<path d="M1.85388 12.4833C1.85497 12.0003 1.99919 11.5284 2.26834 11.1273C2.53748 10.7262 2.91947 10.4139 3.36603 10.2298C3.8126 10.0457 4.30371 9.99813 4.77733 10.093C5.25094 10.1879 5.6858 10.4211 6.02696 10.763C6.36813 11.1049 6.6003 11.5403 6.69413 12.0141C6.78797 12.488 6.73926 12.979 6.55416 13.4251C6.36907 13.8713 6.05589 14.2526 5.65419 14.5208C5.2525 14.789 4.78031 14.9322 4.29729 14.9322C3.97605 14.9319 3.65804 14.8682 3.36139 14.745C3.06475 14.6217 2.79529 14.4412 2.5684 14.2138C2.34151 13.9864 2.16163 13.7165 2.03903 13.4196C1.91644 13.1227 1.85352 12.8046 1.85388 12.4833Z" fill="#F68C72"/>
<path d="M1.94531 12.4686C1.94576 12.0053 2.08354 11.5526 2.34123 11.1676C2.59892 10.7825 2.96495 10.4826 3.39307 10.3055C3.8212 10.1285 4.29219 10.0823 4.74654 10.1729C5.20088 10.2634 5.61819 10.4867 5.94572 10.8143C6.27325 11.142 6.49629 11.5594 6.58668 12.0137C6.67706 12.4681 6.63072 12.9391 6.45351 13.3672C6.2763 13.7952 5.97618 14.1611 5.59108 14.4187C5.20597 14.6762 4.75316 14.8138 4.28988 14.8141C3.98193 14.814 3.677 14.7533 3.39251 14.6354C3.10802 14.5175 2.84954 14.3447 2.63183 14.1269C2.41412 13.9091 2.24143 13.6506 2.12364 13.366C2.00585 13.0815 1.94525 12.7765 1.94531 12.4686Z" fill="#F69278"/>
<path d="M2.03693 12.4502C2.03792 12.007 2.17026 11.574 2.41723 11.2059C2.6642 10.8379 3.01471 10.5513 3.42448 10.3824C3.83425 10.2134 4.2849 10.1698 4.71948 10.2568C5.15407 10.3439 5.5531 10.5578 5.86616 10.8716C6.17921 11.1854 6.39225 11.5849 6.47835 12.0197C6.56446 12.4544 6.51976 12.905 6.34992 13.3144C6.18008 13.7238 5.8927 14.0736 5.5241 14.3198C5.15551 14.5659 4.72223 14.6973 4.279 14.6973C3.68372 14.6966 3.1131 14.4594 2.69264 14.038C2.27218 13.6166 2.03632 13.0455 2.03693 12.4502Z" fill="#F6967C"/>
<path d="M2.12842 12.4329C2.12932 12.0094 2.25574 11.5957 2.49169 11.244C2.72764 10.8923 3.06254 10.6184 3.45408 10.4569C3.84561 10.2955 4.27622 10.2537 4.69149 10.3369C5.10676 10.4201 5.48805 10.6245 5.7872 10.9243C6.08636 11.224 6.28994 11.6058 6.37223 12.0212C6.45452 12.4367 6.41183 12.8672 6.24955 13.2584C6.08727 13.6496 5.81268 13.9839 5.46048 14.2191C5.10827 14.4543 4.69426 14.5798 4.27074 14.5798C3.98909 14.5796 3.71025 14.5238 3.45014 14.4158C3.19003 14.3078 2.95375 14.1496 2.75481 13.9502C2.55586 13.7508 2.39815 13.5142 2.29067 13.2539C2.18319 12.9935 2.12806 12.7146 2.12842 12.4329Z" fill="#F79C82"/>
<path d="M2.21991 12.4164C2.22073 12.0127 2.34118 11.6183 2.56607 11.283C2.79095 10.9477 3.11017 10.6866 3.48339 10.5327C3.85661 10.3788 4.26708 10.3389 4.66294 10.4182C5.0588 10.4974 5.42229 10.6922 5.70747 10.978C5.99265 11.2638 6.18674 11.6276 6.2652 12.0237C6.34366 12.4197 6.30298 12.8301 6.1483 13.203C5.99362 13.5759 5.73187 13.8946 5.39614 14.1188C5.0604 14.343 4.66574 14.4627 4.26203 14.4627C3.99357 14.4624 3.7278 14.4093 3.47988 14.3063C3.23196 14.2034 3.00675 14.0526 2.81711 13.8625C2.62748 13.6725 2.47713 13.447 2.37467 13.1989C2.2722 12.9508 2.21961 12.6849 2.21991 12.4164Z" fill="#F79F86"/>
<path d="M2.31091 12.4003C2.31146 12.0164 2.42581 11.6412 2.63952 11.3222C2.85323 11.0032 3.1567 10.7548 3.51159 10.6082C3.86647 10.4617 4.25684 10.4236 4.63335 10.4988C5.00986 10.5741 5.35562 10.7592 5.62693 11.0309C5.89823 11.3026 6.08291 11.6486 6.15762 12.0253C6.23232 12.4019 6.19371 12.7922 6.04665 13.1469C5.89959 13.5015 5.65069 13.8047 5.3314 14.0179C5.01212 14.2312 4.63678 14.345 4.25282 14.345C3.73747 14.3445 3.2434 14.1394 2.87925 13.7747C2.5151 13.4101 2.31067 12.9157 2.31091 12.4003Z" fill="#F8A58C"/>
<path d="M2.40271 12.3832C2.40343 12.0191 2.51206 11.6634 2.71487 11.361C2.91768 11.0586 3.20557 10.8231 3.54216 10.6843C3.87875 10.5455 4.24894 10.5095 4.60595 10.581C4.96296 10.6525 5.29078 10.8282 5.54798 11.0859C5.80518 11.3436 5.98023 11.6718 6.05099 12.0289C6.12176 12.3861 6.08507 12.7562 5.94557 13.0925C5.80607 13.4288 5.57001 13.7162 5.26723 13.9184C4.96444 14.1206 4.60851 14.2286 4.24441 14.2286C4.00232 14.2283 3.76264 14.1804 3.53906 14.0875C3.31549 13.9947 3.11239 13.8587 2.94137 13.6873C2.77036 13.516 2.63476 13.3126 2.54234 13.0888C2.44992 12.8651 2.40247 12.6253 2.40271 12.3832Z" fill="#F8A890"/>
<path d="M2.49414 12.3665C2.49477 12.0222 2.59745 11.6858 2.78919 11.3998C2.98093 11.1139 3.25314 10.8911 3.57141 10.7598C3.88968 10.6285 4.23974 10.5945 4.57735 10.662C4.91495 10.7296 5.22496 10.8957 5.46819 11.1394C5.71142 11.3831 5.87696 11.6934 5.9439 12.0311C6.01084 12.3688 5.97616 12.7188 5.84426 13.0368C5.71236 13.3549 5.48914 13.6267 5.20283 13.8179C4.91651 14.0091 4.57994 14.1112 4.23564 14.1112C4.00672 14.111 3.78008 14.0657 3.56867 13.9779C3.35725 13.8901 3.1652 13.7616 3.00348 13.5996C2.84176 13.4375 2.71355 13.2453 2.62615 13.0337C2.53876 12.8221 2.4939 12.5954 2.49414 12.3665Z" fill="#F9AD96"/>
<path d="M2.58514 12.3497C2.58569 12.0252 2.68241 11.7082 2.86308 11.4386C3.04376 11.1691 3.30029 10.9591 3.60024 10.8353C3.90019 10.7115 4.23011 10.6794 4.54831 10.7431C4.86651 10.8067 5.1587 10.9632 5.38797 11.1929C5.61723 11.4225 5.77328 11.715 5.83638 12.0333C5.89949 12.3516 5.86683 12.6815 5.74252 12.9812C5.61822 13.2809 5.40785 13.5371 5.138 13.7173C4.86815 13.8976 4.55093 13.9938 4.22643 13.9938C3.79081 13.9933 3.37321 13.8198 3.06543 13.5115C2.75766 13.2032 2.5849 12.7853 2.58514 12.3497Z" fill="#F9B29C"/>
<path d="M2.67719 12.3314C2.67782 12.0268 2.76871 11.7292 2.93838 11.4763C3.10805 11.2234 3.34889 11.0264 3.63045 10.9103C3.91202 10.7942 4.22169 10.7641 4.52033 10.8239C4.81897 10.8837 5.09318 11.0307 5.30832 11.2463C5.52346 11.4619 5.66988 11.7364 5.72906 12.0352C5.78825 12.3339 5.75755 12.6436 5.64085 12.9249C5.52415 13.2062 5.32669 13.4466 5.0734 13.6158C4.82012 13.7849 4.52238 13.8752 4.21781 13.8752C4.01527 13.875 3.81476 13.8349 3.62771 13.7572C3.44067 13.6796 3.27076 13.5658 3.12769 13.4224C2.98463 13.2791 2.87121 13.1089 2.79391 12.9217C2.71661 12.7345 2.67695 12.5339 2.67719 12.3314Z" fill="#FAB6A1"/>
<path d="M2.76862 12.3161C2.76925 12.0314 2.85428 11.7532 3.01296 11.5167C3.17164 11.2802 3.39685 11.0961 3.66013 10.9876C3.92342 10.8791 4.21296 10.851 4.49217 10.907C4.77139 10.963 5.02774 11.1005 5.22885 11.3021C5.42996 11.5037 5.56679 11.7604 5.62206 12.0398C5.67733 12.3191 5.64855 12.6086 5.53937 12.8716C5.43018 13.1346 5.24549 13.3594 5.00862 13.5174C4.77175 13.6755 4.49335 13.7598 4.20858 13.7597C4.01922 13.7596 3.83176 13.7221 3.6569 13.6494C3.48203 13.5768 3.3232 13.4704 3.18948 13.3363C3.05575 13.2022 2.94976 13.0431 2.87754 12.8681C2.80533 12.693 2.76832 12.5055 2.76862 12.3161Z" fill="#FABDA8"/>
<path d="M2.85962 12.2994C2.86016 12.0344 2.93926 11.7755 3.08692 11.5554C3.23457 11.3353 3.44415 11.164 3.68917 11.063C3.93419 10.962 4.20364 10.936 4.46348 10.9881C4.72331 11.0402 4.96185 11.1682 5.14895 11.3559C5.33606 11.5436 5.46332 11.7825 5.51465 12.0425C5.56599 12.3025 5.53909 12.5719 5.43736 12.8166C5.33563 13.0613 5.16364 13.2703 4.94313 13.4173C4.72261 13.5643 4.46347 13.6426 4.19846 13.6423C3.84289 13.6416 3.50215 13.4998 3.2511 13.2479C3.00006 12.9961 2.85926 12.655 2.85962 12.2994Z" fill="#FBC1AD"/>
<path d="M2.95111 12.2824C2.95165 12.0373 3.02485 11.7978 3.16146 11.5942C3.29806 11.3907 3.49194 11.2321 3.71859 11.1387C3.94525 11.0453 4.19451 11.0212 4.43487 11.0694C4.67524 11.1176 4.89593 11.2359 5.06906 11.4095C5.24218 11.5831 5.35997 11.8041 5.40754 12.0445C5.45512 12.285 5.43034 12.5342 5.33633 12.7606C5.24233 12.9871 5.08332 13.1805 4.87941 13.3166C4.67549 13.4527 4.43581 13.5253 4.19066 13.5252C4.02766 13.525 3.86629 13.4927 3.71578 13.4301C3.56526 13.3676 3.42854 13.276 3.31344 13.1606C3.19833 13.0452 3.10708 12.9082 3.04491 12.7575C2.98275 12.6069 2.95087 12.4454 2.95111 12.2824Z" fill="#FBC7B4"/>
<path d="M3.04261 12.266C3.04342 12.0408 3.11097 11.8208 3.23673 11.6339C3.36248 11.447 3.54081 11.3015 3.74917 11.2159C3.95754 11.1303 4.18661 11.1083 4.40745 11.1528C4.62829 11.1973 4.83099 11.3062 4.98997 11.4658C5.14894 11.6254 5.25705 11.8286 5.30065 12.0496C5.34424 12.2706 5.32137 12.4996 5.23491 12.7076C5.14845 12.9156 5.00229 13.0934 4.81488 13.2184C4.62747 13.3434 4.40722 13.4101 4.18195 13.41C4.03199 13.4098 3.88354 13.38 3.7451 13.3224C3.60665 13.2648 3.48092 13.1805 3.37509 13.0742C3.26927 12.968 3.18544 12.8419 3.12839 12.7032C3.07133 12.5646 3.04219 12.416 3.04261 12.266Z" fill="#FCCBB9"/>
<path d="M3.1341 12.2491C3.13491 12.0438 3.19655 11.8433 3.31122 11.6729C3.4259 11.5026 3.58847 11.3701 3.77842 11.292C3.96836 11.214 4.17717 11.194 4.37847 11.2346C4.57977 11.2751 4.76454 11.3744 4.90945 11.5199C5.05437 11.6654 5.15293 11.8506 5.19269 12.052C5.23245 12.2535 5.21163 12.4622 5.13286 12.6518C5.05409 12.8415 4.92091 13.0035 4.75011 13.1175C4.57932 13.2315 4.37858 13.2924 4.17323 13.2924C4.03646 13.2923 3.90105 13.2652 3.77476 13.2126C3.64847 13.1601 3.53379 13.0832 3.43726 12.9863C3.34074 12.8894 3.26428 12.7744 3.21226 12.6479C3.16024 12.5214 3.13368 12.3859 3.1341 12.2491Z" fill="#FCD1C0"/>
<path d="M3.22565 12.2325C3.22601 12.0469 3.2814 11.8655 3.38481 11.7113C3.48822 11.5571 3.63501 11.4371 3.80663 11.3663C3.97826 11.2955 4.16701 11.2772 4.34904 11.3137C4.53106 11.3502 4.69819 11.4398 4.8293 11.5712C4.96041 11.7027 5.04962 11.87 5.08564 12.0521C5.12167 12.2342 5.10291 12.4229 5.03172 12.5944C4.96053 12.7658 4.84011 12.9123 4.68569 13.0154C4.53126 13.1184 4.34976 13.1734 4.16411 13.1733C3.91493 13.1729 3.67609 13.0736 3.50011 12.8972C3.32413 12.7208 3.2254 12.4817 3.22565 12.2325Z" fill="#FDD5C6"/>
<path d="M3.31665 12.2158C3.31692 12.0499 3.36634 11.8879 3.45867 11.7502C3.55099 11.6124 3.68208 11.5051 3.83536 11.4419C3.98863 11.3786 4.15723 11.3622 4.31983 11.3947C4.48244 11.4272 4.63176 11.5072 4.74892 11.6246C4.86608 11.7419 4.94582 11.8914 4.97807 12.054C5.01032 12.2167 4.99363 12.3852 4.93011 12.5384C4.86659 12.6916 4.75909 12.8225 4.62119 12.9146C4.4833 13.0067 4.32119 13.0559 4.15537 13.0559C4.04513 13.0558 3.93598 13.034 3.83416 12.9918C3.73234 12.9495 3.63984 12.8876 3.56195 12.8096C3.48407 12.7316 3.42231 12.639 3.38022 12.5371C3.33813 12.4352 3.31653 12.326 3.31665 12.2158Z" fill="#FDD9CB"/>
<path d="M3.4082 12.1995C3.40847 12.0535 3.45202 11.9109 3.53333 11.7896C3.61464 11.6684 3.73008 11.5739 3.86505 11.5182C4.00002 11.4625 4.14846 11.4481 4.29163 11.4768C4.4348 11.5054 4.56626 11.5759 4.6694 11.6792C4.77255 11.7825 4.84275 11.9141 4.87113 12.0573C4.89952 12.2006 4.88481 12.349 4.82888 12.4838C4.77294 12.6187 4.67828 12.734 4.55687 12.8151C4.43545 12.8961 4.29272 12.9394 4.14671 12.9394C3.95069 12.9392 3.76278 12.8611 3.62429 12.7224C3.48581 12.5836 3.40808 12.3956 3.4082 12.1995Z" fill="#FDDFD2"/>
<path d="M3.49963 12.1822C3.50009 12.056 3.53792 11.9328 3.60835 11.8281C3.67878 11.7234 3.77866 11.642 3.89536 11.594C4.01206 11.5461 4.14035 11.5338 4.26403 11.5587C4.38771 11.5836 4.50123 11.6447 4.59025 11.7341C4.67927 11.8235 4.7398 11.9373 4.76419 12.061C4.78859 12.1848 4.77575 12.3131 4.7273 12.4296C4.67885 12.5461 4.59697 12.6456 4.49199 12.7156C4.38701 12.7855 4.26365 12.8228 4.13748 12.8228C3.96806 12.822 3.80583 12.7542 3.68629 12.6342C3.56675 12.5141 3.49963 12.3516 3.49963 12.1822Z" fill="#FDE3D8"/>
<path d="M3.59119 12.1658C3.59128 12.0594 3.62292 11.9554 3.68213 11.8669C3.74133 11.7785 3.82543 11.7096 3.92379 11.669C4.02214 11.6283 4.13035 11.6178 4.23471 11.6386C4.33907 11.6595 4.43491 11.7108 4.5101 11.7861C4.58529 11.8614 4.63646 11.9573 4.65713 12.0617C4.6778 12.1661 4.66706 12.2743 4.62625 12.3726C4.58543 12.4709 4.51639 12.5549 4.42785 12.6139C4.33931 12.673 4.23525 12.7045 4.12883 12.7044C4.05816 12.7043 3.9882 12.6903 3.92294 12.6632C3.85768 12.6361 3.79839 12.5964 3.74847 12.5464C3.69854 12.4964 3.65896 12.4371 3.63197 12.3718C3.60499 12.3065 3.59113 12.2365 3.59119 12.1658Z" fill="#FEE9E0"/>
<path d="M3.68274 12.1484C3.68292 12.062 3.70873 11.9775 3.7569 11.9057C3.80508 11.8338 3.87346 11.7779 3.95341 11.7449C4.03335 11.712 4.12128 11.7034 4.20607 11.7204C4.29086 11.7374 4.36872 11.7791 4.42981 11.8404C4.49089 11.9016 4.53246 11.9795 4.54927 12.0643C4.56607 12.1492 4.55735 12.2371 4.52422 12.317C4.49108 12.3968 4.43502 12.4651 4.3631 12.5131C4.29119 12.5611 4.20665 12.5868 4.12017 12.5868C4.06267 12.5867 4.00574 12.5753 3.95263 12.5533C3.89953 12.5312 3.85129 12.4989 3.81067 12.4582C3.77005 12.4175 3.73785 12.3692 3.7159 12.316C3.69395 12.2629 3.68268 12.2059 3.68274 12.1484Z" fill="#FEEDE6"/>
<path d="M3.77417 12.1319C3.77408 12.0651 3.79379 11.9999 3.83081 11.9443C3.86783 11.8888 3.9205 11.8455 3.98213 11.8199C4.04377 11.7944 4.11162 11.7876 4.17707 11.8006C4.24253 11.8136 4.30266 11.8458 4.34985 11.893C4.39704 11.9402 4.42917 12.0003 4.44216 12.0657C4.45516 12.1312 4.44845 12.199 4.42286 12.2607C4.39728 12.3223 4.35399 12.375 4.29846 12.412C4.24294 12.449 4.17767 12.4687 4.11094 12.4686C4.0217 12.4684 3.93618 12.4328 3.87307 12.3697C3.80997 12.3066 3.77441 12.2211 3.77417 12.1319Z" fill="#FFF4EF"/>
<path d="M3.86542 12.1157C3.86551 12.0689 3.87949 12.0231 3.90558 11.9842C3.93168 11.9452 3.96873 11.9149 4.01205 11.8971C4.05537 11.8792 4.10301 11.8746 4.14896 11.8838C4.1949 11.893 4.23709 11.9156 4.2702 11.9487C4.3033 11.9819 4.32583 12.0241 4.33493 12.0701C4.34404 12.1161 4.33932 12.1637 4.32137 12.207C4.30342 12.2503 4.27304 12.2873 4.23407 12.3133C4.1951 12.3393 4.1493 12.3532 4.10244 12.3532C4.03953 12.3531 3.97925 12.328 3.93481 12.2835C3.89037 12.2389 3.86542 12.1786 3.86542 12.1157Z" fill="#FFF8F5"/>
<path d="M3.9574 12.0989C3.9574 12.0718 3.96545 12.0453 3.98053 12.0227C3.99561 12.0001 4.01705 11.9825 4.04214 11.9721C4.06722 11.9617 4.09482 11.959 4.12145 11.9643C4.14807 11.9696 4.17253 11.9827 4.19173 12.0019C4.21093 12.0211 4.224 12.0455 4.2293 12.0722C4.2346 12.0988 4.23188 12.1264 4.22149 12.1515C4.2111 12.1766 4.1935 12.198 4.17093 12.2131C4.14836 12.2282 4.12182 12.2362 4.09467 12.2362C4.05826 12.2362 4.02335 12.2217 3.9976 12.196C3.97186 12.1703 3.9574 12.1353 3.9574 12.0989Z" fill="white"/>
</svg>
