<svg width="34" height="16" viewBox="0 0 34 16" fill="none" xmlns="http://www.w3.org/2000/svg">
<path fill-rule="evenodd" clip-rule="evenodd" d="M31.1629 2.50342C30.6888 2.50342 30.1659 2.76623 29.9574 3.23841L27.7413 8.28881L26.9431 3.23841C26.8492 2.76623 26.5266 2.50342 26.0158 2.50342H23.2084L25.6096 10.891C25.6538 11.0518 25.6622 11.2302 25.6298 11.4178C25.5042 12.1177 24.8317 12.6855 24.1274 12.6855H22.5552C22.156 12.6855 21.8931 12.9314 21.7645 13.488L21.4153 15.5666H24.184C25.6284 15.5666 27.3247 14.8451 28.4563 12.8501L34.0001 2.50342H31.1629Z" fill="#323E48"/>
<path fill-rule="evenodd" clip-rule="evenodd" d="M3.90951 0C4.73861 0 5.13929 0.328867 4.9934 1.15519L4.7545 2.50138H6.65941L6.23966 4.86632H4.33388L3.81475 7.79447C3.63534 8.81467 4.65107 8.95053 5.23376 8.95053C5.34988 8.95053 5.44637 8.94794 5.51542 8.94392L5.04945 11.5811C4.90559 11.5964 4.75739 11.6162 4.44366 11.6162C2.99748 11.6162 0.261734 11.231 0.799639 8.19687L1.38868 4.86632H0L0.418008 2.50138H1.79311L2.2357 0H3.90951Z" fill="#323E48"/>
<path fill-rule="evenodd" clip-rule="evenodd" d="M19.9168 2.60938L19.4274 5.36665C20.0309 5.67312 20.4443 6.29551 20.4443 7.01441C20.4443 7.96223 19.7296 8.73886 18.8095 8.85059L18.3204 11.6073C18.4068 11.6127 18.4946 11.6156 18.5821 11.6156C21.1397 11.6156 23.211 9.55484 23.211 7.01441C23.211 4.93727 21.8238 3.17979 19.9168 2.60938Z" fill="#00ADBB"/>
<path fill-rule="evenodd" clip-rule="evenodd" d="M17.7384 8.66322C17.1355 8.35849 16.7212 7.73322 16.7212 7.01518C16.7212 6.07339 17.4374 5.29074 18.3572 5.18102L18.8457 2.42403C18.7588 2.41858 18.6703 2.41455 18.5834 2.41455C16.0279 2.41455 13.9554 4.47676 13.9554 7.01518C13.9554 9.09319 15.3433 10.8518 17.2502 11.4222L17.7384 8.66322Z" fill="#00ADBB"/>
<path fill-rule="evenodd" clip-rule="evenodd" d="M7.76233 2.50347H9.39915C10.2286 2.50347 10.6275 2.83292 10.4813 3.65952L10.3022 4.65961C10.9121 3.42889 12.2349 2.41357 13.5918 2.41357C13.7697 2.41357 13.941 2.44862 13.941 2.44862L13.4121 5.43049C13.4121 5.43049 13.1746 5.37563 12.804 5.37563C12.0809 5.37563 10.858 5.60368 10.1774 6.95446C10.0151 7.28734 9.89026 7.69232 9.80388 8.1803L9.21167 11.5304H6.16248L7.76233 2.50347Z" fill="#323E48"/>
</svg>
