<svg width="16" height="16" viewBox="0 0 16 16" fill="none" xmlns="http://www.w3.org/2000/svg">
<path fill-rule="evenodd" clip-rule="evenodd" d="M0.291504 3.00002C0.291504 1.50425 1.50407 0.291687 2.99984 0.291687H9.87484C11.3706 0.291687 12.5832 1.50425 12.5832 3.00002V4.04169H12.9998C14.4956 4.04169 15.7082 5.25425 15.7082 6.75002V13C15.7082 14.4958 14.4956 15.7084 12.9998 15.7084H6.74984C5.25407 15.7084 4.0415 14.4958 4.0415 13V12.5834H2.99984C1.50407 12.5834 0.291504 11.3708 0.291504 9.87502V3.00002ZM4.0415 10.9167V6.75002C4.0415 5.25425 5.25407 4.04169 6.74984 4.04169H10.9165V3.00002C10.9165 2.42472 10.4501 1.95835 9.87484 1.95835H2.99984C2.42454 1.95835 1.95817 2.42472 1.95817 3.00002V9.87502C1.95817 10.4503 2.42454 10.9167 2.99984 10.9167H4.0415ZM6.74984 5.70835C6.17454 5.70835 5.70817 6.17472 5.70817 6.75002V13C5.70817 13.5753 6.17454 14.0417 6.74984 14.0417H12.9998C13.5751 14.0417 14.0415 13.5753 14.0415 13V6.75002C14.0415 6.17472 13.5751 5.70835 12.9998 5.70835H6.74984Z" fill="#5D3EBC"/>
</svg>
