<svg width="12" height="12" viewBox="0 0 12 12" fill="none" xmlns="http://www.w3.org/2000/svg">
<path fill-rule="evenodd" clip-rule="evenodd" d="M6.00033 0.367836C6.44469 0.367836 6.80492 0.728067 6.80492 1.17243V5.19542L10.8279 5.19542C11.2723 5.19542 11.6325 5.55565 11.6325 6.00002C11.6325 6.44439 11.2723 6.80462 10.8279 6.80462H6.80492V10.8276C6.80492 11.272 6.44469 11.6322 6.00033 11.6322C5.55596 11.6322 5.19573 11.272 5.19573 10.8276V6.80462L1.17274 6.80462C0.728372 6.80462 0.368142 6.44439 0.368142 6.00002C0.368142 5.55565 0.728372 5.19542 1.17274 5.19542L5.19573 5.19542V1.17243C5.19573 0.728067 5.55596 0.367836 6.00033 0.367836Z" fill="white"/>
<path fill-rule="evenodd" clip-rule="evenodd" d="M4.99458 1.17243C4.99458 0.616975 5.44487 0.166687 6.00033 0.166687C6.55578 0.166687 7.00607 0.616975 7.00607 1.17243V4.99427L10.8279 4.99427C11.3834 4.99427 11.8337 5.44456 11.8337 6.00002C11.8337 6.55548 11.3834 7.00577 10.8279 7.00577L7.00607 7.00577V10.8276C7.00607 11.3831 6.55578 11.8334 6.00033 11.8334C5.44487 11.8334 4.99458 11.3831 4.99458 10.8276V7.00577H1.17274C0.61728 7.00577 0.166992 6.55548 0.166992 6.00002C0.166992 5.44456 0.617281 4.99427 1.17274 4.99427H4.99458V1.17243ZM6.00033 0.568986C5.66705 0.568986 5.39688 0.839159 5.39688 1.17243V5.19542C5.39688 5.24877 5.37568 5.29993 5.33796 5.33766C5.30024 5.37538 5.24908 5.39657 5.19573 5.39657L1.17274 5.39657C0.839464 5.39657 0.569291 5.66674 0.569291 6.00002C0.569291 6.33329 0.839464 6.60347 1.17274 6.60347L5.19573 6.60347C5.30682 6.60347 5.39688 6.69353 5.39688 6.80462V10.8276C5.39688 11.1609 5.66705 11.4311 6.00033 11.4311C6.3336 11.4311 6.60377 11.1609 6.60377 10.8276V6.80462C6.60377 6.75127 6.62497 6.70011 6.66269 6.66238C6.70041 6.62466 6.75157 6.60347 6.80492 6.60347L10.8279 6.60347C11.1612 6.60347 11.4314 6.33329 11.4314 6.00002C11.4314 5.66674 11.1612 5.39657 10.8279 5.39657L6.80492 5.39657C6.69383 5.39657 6.60377 5.30651 6.60377 5.19542V1.17243C6.60377 0.839159 6.3336 0.568986 6.00033 0.568986Z" fill="white"/>
</svg>
