<svg width="8" height="8" viewBox="0 0 8 8" fill="none" xmlns="http://www.w3.org/2000/svg">
<path fill-rule="evenodd" clip-rule="evenodd" d="M0.646447 0.646447C0.841709 0.451184 1.15829 0.451184 1.35355 0.646447L4 3.29289L6.64645 0.646447C6.84171 0.451185 7.15829 0.451185 7.35355 0.646447C7.54882 0.841709 7.54882 1.15829 7.35355 1.35355L4.70711 4L7.35355 6.64645C7.54882 6.84171 7.54882 7.15829 7.35355 7.35355C7.15829 7.54882 6.84171 7.54882 6.64645 7.35355L4 4.70711L1.35355 7.35355C1.15829 7.54882 0.841709 7.54882 0.646447 7.35355C0.451184 7.15829 0.451184 6.84171 0.646447 6.64645L3.29289 4L0.646447 1.35355C0.451184 1.15829 0.451184 0.841709 0.646447 0.646447Z" fill="#191919"/>
<path fill-rule="evenodd" clip-rule="evenodd" d="M0.292893 0.292893C0.683418 -0.097631 1.31658 -0.0976311 1.70711 0.292893L4 2.58579L6.29289 0.292894C6.68342 -0.0976308 7.31658 -0.0976308 7.70711 0.292894C8.09763 0.683417 8.09763 1.31658 7.70711 1.70711L5.41421 4L7.70711 6.29289C8.09763 6.68342 8.09763 7.31658 7.70711 7.70711C7.31658 8.09763 6.68342 8.09763 6.29289 7.70711L4 5.41421L1.70711 7.70711C1.31658 8.09763 0.683417 8.09763 0.292893 7.70711C-0.0976311 7.31658 -0.0976311 6.68342 0.292893 6.29289L2.58579 4L0.292893 1.70711C-0.097631 1.31658 -0.0976311 0.683417 0.292893 0.292893ZM4 3.79289C3.86739 3.79289 3.74022 3.74021 3.64645 3.64645C3.74022 3.74021 3.79289 3.86739 3.79289 4C3.79289 4.13261 3.74022 4.25979 3.64645 4.35355C3.74022 4.25978 3.86739 4.20711 4 4.20711C4.13261 4.20711 4.25979 4.25978 4.35355 4.35355C4.15829 4.15829 4.15829 3.84171 4.35355 3.64645C4.25979 3.74021 4.13261 3.79289 4 3.79289Z" fill="#191919"/>
</svg>
