<svg width="14" height="14" viewBox="0 0 14 14" fill="none" xmlns="http://www.w3.org/2000/svg">
<path fill-rule="evenodd" clip-rule="evenodd" d="M13.6668 6.99998C13.6668 10.6819 10.6821 13.6666 7.00016 13.6666C3.31826 13.6666 0.333496 10.6819 0.333496 6.99998C0.333496 3.31808 3.31826 0.333313 7.00016 0.333313C10.6821 0.333313 13.6668 3.31808 13.6668 6.99998ZM7.8335 3.66665C7.8335 4.12688 7.4604 4.49998 7.00016 4.49998C6.53993 4.49998 6.16683 4.12688 6.16683 3.66665C6.16683 3.20641 6.53993 2.83331 7.00016 2.83331C7.4604 2.83331 7.8335 3.20641 7.8335 3.66665ZM6.16683 6.16665C5.70659 6.16665 5.3335 6.53974 5.3335 6.99998C5.3335 7.46022 5.70659 7.83331 6.16683 7.83331V10.3333C6.16683 10.7936 6.53993 11.1666 7.00016 11.1666H7.8335C8.29373 11.1666 8.66683 10.7936 8.66683 10.3333C8.66683 9.87308 8.29373 9.49998 7.8335 9.49998V6.99998C7.8335 6.53974 7.4604 6.16665 7.00016 6.16665H6.16683Z" fill="#5D3EBC"/>
</svg>
