<svg width="70" height="70" viewBox="0 0 70 70" fill="none" xmlns="http://www.w3.org/2000/svg">
<path fill-rule="evenodd" clip-rule="evenodd" d="M4.375 17.5C4.375 13.8756 7.31313 10.9375 10.9375 10.9375H59.0625C62.6869 10.9375 65.625 13.8756 65.625 17.5V52.5C65.625 56.1244 62.6869 59.0625 59.0625 59.0625H10.9375C7.31313 59.0625 4.375 56.1244 4.375 52.5V17.5ZM8.75 46.8436V52.5C8.75 53.7081 9.72938 54.6875 10.9375 54.6875H59.0625C60.2706 54.6875 61.25 53.7081 61.25 52.5V46.8436L53.4061 38.9997C51.6975 37.2911 48.9275 37.2911 47.2189 38.9997L44.6561 41.5625L47.4843 44.3907C48.3386 45.245 48.3386 46.63 47.4843 47.4843C46.63 48.3386 45.245 48.3386 44.3907 47.4843L29.3436 32.4372C27.635 30.7286 24.865 30.7286 23.1564 32.4372L8.75 46.8436ZM38.2812 24.0625C38.2812 22.2503 39.7503 20.7812 41.5625 20.7812C43.3747 20.7812 44.8438 22.2503 44.8438 24.0625C44.8438 25.8747 43.3747 27.3438 41.5625 27.3438C39.7503 27.3438 38.2812 25.8747 38.2812 24.0625Z" fill="#D4D4D4"/>
</svg>
