<svg width="18" height="18" viewBox="0 0 18 18" fill="none" xmlns="http://www.w3.org/2000/svg">
<path fill-rule="evenodd" clip-rule="evenodd" d="M7.78081 2.49596C4.86224 2.49596 2.49626 4.86193 2.49626 7.78051C2.49626 10.6991 4.86224 13.0651 7.78081 13.0651C9.24033 13.0651 10.5604 12.4745 11.5176 11.5173C12.4748 10.56 13.0654 9.24002 13.0654 7.78051C13.0654 4.86193 10.6994 2.49596 7.78081 2.49596ZM0.870244 7.78051C0.870244 3.96391 3.96421 0.869939 7.78081 0.869939C11.5974 0.869939 14.6914 3.96391 14.6914 7.78051C14.6914 9.39551 14.1366 10.8821 13.2084 12.0584L16.8923 15.7422C17.2098 16.0597 17.2098 16.5745 16.8923 16.892C16.5748 17.2095 16.06 17.2095 15.7425 16.892L12.0587 13.2081C10.8824 14.1363 9.39582 14.6911 7.78081 14.6911C3.96421 14.6911 0.870244 11.5971 0.870244 7.78051Z" fill="#5D3EBC"/>
<path fill-rule="evenodd" clip-rule="evenodd" d="M0.666992 7.78051C0.666992 3.85165 3.85196 0.666687 7.78081 0.666687C11.7097 0.666687 14.8946 3.85165 14.8946 7.78051C14.8946 9.37784 14.3672 10.8535 13.4783 12.0408L17.036 15.5985C17.4329 15.9954 17.4329 16.6388 17.036 17.0357C16.6391 17.4326 15.9957 17.4326 15.5988 17.0357L12.0411 13.478C10.8538 14.3669 9.37815 14.8943 7.78081 14.8943C3.85196 14.8943 0.666992 11.7094 0.666992 7.78051ZM7.78081 1.07319C4.07646 1.07319 1.0735 4.07616 1.0735 7.78051C1.0735 11.4849 4.07646 14.4878 7.78081 14.4878C9.34849 14.4878 10.791 13.9495 11.9328 13.0486C12.0137 12.9847 12.1295 12.9915 12.2024 13.0644L15.8862 16.7483C16.1244 16.9864 16.5104 16.9864 16.7486 16.7483C16.9867 16.5101 16.9867 16.1241 16.7486 15.8859L13.0647 12.2021C12.9919 12.1292 12.985 12.0134 13.0489 11.9325C13.9498 10.7907 14.4881 9.34818 14.4881 7.78051C14.4881 4.07616 11.4852 1.07319 7.78081 1.07319ZM7.78081 2.69921C4.97449 2.69921 2.69951 4.97418 2.69951 7.78051C2.69951 10.5868 4.97449 12.8618 7.78081 12.8618C9.18428 12.8618 10.4532 12.2942 11.3738 11.3735C12.2945 10.4529 12.8621 9.18397 12.8621 7.78051C12.8621 4.97418 10.5871 2.69921 7.78081 2.69921ZM2.29301 7.78051C2.29301 4.74968 4.74998 2.2927 7.78081 2.2927C10.8116 2.2927 13.2686 4.74968 13.2686 7.78051C13.2686 9.29607 12.6551 10.6672 11.6613 11.661C10.6675 12.6548 9.29638 13.2683 7.78081 13.2683C4.74998 13.2683 2.29301 10.8113 2.29301 7.78051Z" fill="#5D3EBC"/>
</svg>
