<svg width="21" height="20" viewBox="0 0 21 20" fill="none" xmlns="http://www.w3.org/2000/svg">
<path fill-rule="evenodd" clip-rule="evenodd" d="M5.08301 5.00033C5.08301 4.54009 5.4561 4.16699 5.91634 4.16699H9.24967C9.70991 4.16699 10.083 4.54009 10.083 5.00033C10.083 5.46056 9.70991 5.83366 9.24967 5.83366H7.92819L9.83893 7.7444C10.1644 8.06984 10.1644 8.59748 9.83893 8.92291C9.51349 9.24835 8.98586 9.24835 8.66042 8.92291L6.74967 7.01217V8.33366C6.74967 8.7939 6.37658 9.16699 5.91634 9.16699C5.4561 9.16699 5.08301 8.7939 5.08301 8.33366V5.00033ZM12.583 5.83366C12.1228 5.83366 11.7497 5.46056 11.7497 5.00033C11.7497 4.54009 12.1228 4.16699 12.583 4.16699H15.9163C16.3766 4.16699 16.7497 4.54009 16.7497 5.00033V8.33366C16.7497 8.7939 16.3766 9.16699 15.9163 9.16699C15.4561 9.16699 15.083 8.7939 15.083 8.33366V7.01217L13.1723 8.92291C12.8468 9.24835 12.3192 9.24835 11.9938 8.92291C11.6683 8.59748 11.6683 8.06984 11.9938 7.7444L13.9045 5.83366H12.583ZM5.08301 11.667C5.08301 11.2068 5.4561 10.8337 5.91634 10.8337C6.37658 10.8337 6.74967 11.2068 6.74967 11.667V12.9885L8.66042 11.0777C8.98586 10.7523 9.51349 10.7523 9.83893 11.0777C10.1644 11.4032 10.1644 11.9308 9.83893 12.2562L7.92819 14.167H9.24967C9.70991 14.167 10.083 14.5401 10.083 15.0003C10.083 15.4606 9.70991 15.8337 9.24967 15.8337H5.91634C5.4561 15.8337 5.08301 15.4606 5.08301 15.0003V11.667ZM15.9163 10.8337C16.3766 10.8337 16.7497 11.2068 16.7497 11.667V15.0003C16.7497 15.4606 16.3766 15.8337 15.9163 15.8337H12.583C12.1228 15.8337 11.7497 15.4606 11.7497 15.0003C11.7497 14.5401 12.1228 14.167 12.583 14.167H13.9045L11.9938 12.2562C11.6683 11.9308 11.6683 11.4032 11.9938 11.0777C12.3192 10.7523 12.8468 10.7523 13.1723 11.0777L15.083 12.9885V11.667C15.083 11.2068 15.4561 10.8337 15.9163 10.8337Z" fill="#5D3EBC"/>
</svg>
