<svg width="18" height="18" viewBox="0 0 18 18" fill="none" xmlns="http://www.w3.org/2000/svg">
<path fill-rule="evenodd" clip-rule="evenodd" d="M2.57143 2.03571C2.27556 2.03571 2.03571 2.27555 2.03571 2.57142C2.03571 2.86729 2.27556 3.10713 2.57143 3.10713V14.8928H2.03571C1.73985 14.8928 1.5 15.1327 1.5 15.4286C1.5 15.7244 1.73985 15.9643 2.03571 15.9643H11.1429V3.10713C11.4387 3.10713 11.6786 2.86729 11.6786 2.57142C11.6786 2.27555 11.4387 2.03571 11.1429 2.03571H2.57143ZM5.25 14.3571V12.75C5.25 12.4541 5.48985 12.2143 5.78571 12.2143H7.92857C8.22444 12.2143 8.46429 12.4541 8.46429 12.75V14.3571C8.46429 14.653 8.22444 14.8928 7.92857 14.8928H5.78571C5.48985 14.8928 5.25 14.653 5.25 14.3571ZM4.71429 5.24999C4.71429 4.95412 4.95413 4.71428 5.25 4.71428H5.78571C6.08158 4.71428 6.32143 4.95412 6.32143 5.24999C6.32143 5.54586 6.08158 5.78571 5.78571 5.78571H5.25C4.95413 5.78571 4.71429 5.54586 4.71429 5.24999ZM5.25 6.85713C4.95413 6.85713 4.71429 7.09698 4.71429 7.39285C4.71429 7.68872 4.95413 7.92856 5.25 7.92856H5.78571C6.08158 7.92856 6.32143 7.68872 6.32143 7.39285C6.32143 7.09698 6.08158 6.85713 5.78571 6.85713H5.25ZM4.71429 9.53571C4.71429 9.23984 4.95413 8.99999 5.25 8.99999H5.78571C6.08158 8.99999 6.32143 9.23984 6.32143 9.53571C6.32143 9.83157 6.08158 10.0714 5.78571 10.0714H5.25C4.95413 10.0714 4.71429 9.83157 4.71429 9.53571ZM7.92857 4.71428C7.6327 4.71428 7.39286 4.95412 7.39286 5.24999C7.39286 5.54586 7.6327 5.78571 7.92857 5.78571H8.46429C8.76015 5.78571 9 5.54586 9 5.24999C9 4.95412 8.76015 4.71428 8.46429 4.71428H7.92857ZM7.39286 7.39285C7.39286 7.09698 7.6327 6.85713 7.92857 6.85713H8.46429C8.76015 6.85713 9 7.09698 9 7.39285C9 7.68872 8.76015 7.92856 8.46429 7.92856H7.92857C7.6327 7.92856 7.39286 7.68872 7.39286 7.39285ZM7.92857 8.99999C7.6327 8.99999 7.39286 9.23984 7.39286 9.53571C7.39286 9.83157 7.6327 10.0714 7.92857 10.0714H8.46429C8.76015 10.0714 9 9.83157 9 9.53571C9 9.23984 8.76015 8.99999 8.46429 8.99999H7.92857Z" fill="#697488"/>
<path fill-rule="evenodd" clip-rule="evenodd" d="M12.2143 5.24999V15.9643H15.9643C16.2602 15.9643 16.5 15.7244 16.5 15.4286C16.5 15.1327 16.2602 14.8928 15.9643 14.8928H15.4286V6.32142C15.7244 6.32142 15.9643 6.08157 15.9643 5.78571C15.9643 5.48984 15.7244 5.24999 15.4286 5.24999H12.2143ZM13.2857 8.46428C13.2857 8.16841 13.5256 7.92856 13.8214 7.92856H13.8268C14.1227 7.92856 14.3625 8.16841 14.3625 8.46428V8.46964C14.3625 8.7655 14.1227 9.00535 13.8268 9.00535H13.8214C13.5256 9.00535 13.2857 8.7655 13.2857 8.46964V8.46428ZM13.8214 10.0714C13.5256 10.0714 13.2857 10.3113 13.2857 10.6071V10.6125C13.2857 10.9084 13.5256 11.1482 13.8214 11.1482H13.8268C14.1227 11.1482 14.3625 10.9084 14.3625 10.6125V10.6071C14.3625 10.3113 14.1227 10.0714 13.8268 10.0714H13.8214ZM13.2857 12.75C13.2857 12.4541 13.5256 12.2143 13.8214 12.2143H13.8268C14.1227 12.2143 14.3625 12.4541 14.3625 12.75V12.7553C14.3625 13.0512 14.1227 13.2911 13.8268 13.2911H13.8214C13.5256 13.2911 13.2857 13.0512 13.2857 12.7553V12.75Z" fill="#697488"/>
</svg>
