<svg width="20" height="20" viewBox="0 0 20 20" fill="none" xmlns="http://www.w3.org/2000/svg">
<path fill-rule="evenodd" clip-rule="evenodd" d="M3.74992 9.99967C3.74992 9.30932 4.30956 8.74967 4.99992 8.74967C5.69027 8.74967 6.24992 9.30932 6.24992 9.99967C6.24992 10.69 5.69027 11.2497 4.99992 11.2497C4.30956 11.2497 3.74992 10.69 3.74992 9.99967ZM8.74992 9.99967C8.74992 9.30932 9.30956 8.74967 9.99992 8.74967C10.6903 8.74967 11.2499 9.30932 11.2499 9.99967C11.2499 10.69 10.6903 11.2497 9.99992 11.2497C9.30956 11.2497 8.74992 10.69 8.74992 9.99967ZM13.7499 9.99967C13.7499 9.30932 14.3096 8.74967 14.9999 8.74967C15.6903 8.74967 16.2499 9.30932 16.2499 9.99967C16.2499 10.69 15.6903 11.2497 14.9999 11.2497C14.3096 11.2497 13.7499 10.69 13.7499 9.99967Z" fill="#5D3EBC"/>
<path fill-rule="evenodd" clip-rule="evenodd" d="M4.99992 10.208C5.11498 10.208 5.20825 10.1147 5.20825 9.99967C5.20825 9.88462 5.11498 9.79134 4.99992 9.79134C4.88486 9.79134 4.79159 9.88462 4.79159 9.99967C4.79159 10.1147 4.88486 10.208 4.99992 10.208ZM3.54159 9.99967C3.54159 9.19426 4.1945 8.54134 4.99992 8.54134C5.80533 8.54134 6.45825 9.19426 6.45825 9.99967C6.45825 10.8051 5.80533 11.458 4.99992 11.458C4.1945 11.458 3.54159 10.8051 3.54159 9.99967ZM9.99992 10.208C10.115 10.208 10.2083 10.1147 10.2083 9.99967C10.2083 9.88462 10.115 9.79134 9.99992 9.79134C9.88486 9.79134 9.79158 9.88462 9.79158 9.99967C9.79158 10.1147 9.88486 10.208 9.99992 10.208ZM8.54158 9.99967C8.54158 9.19426 9.1945 8.54134 9.99992 8.54134C10.8053 8.54134 11.4583 9.19426 11.4583 9.99967C11.4583 10.8051 10.8053 11.458 9.99992 11.458C9.1945 11.458 8.54158 10.8051 8.54158 9.99967ZM14.9999 10.208C15.115 10.208 15.2083 10.1147 15.2083 9.99967C15.2083 9.88462 15.115 9.79134 14.9999 9.79134C14.8849 9.79134 14.7916 9.88462 14.7916 9.99967C14.7916 10.1147 14.8849 10.208 14.9999 10.208ZM13.5416 9.99967C13.5416 9.19426 14.1945 8.54134 14.9999 8.54134C15.8053 8.54134 16.4583 9.19426 16.4583 9.99967C16.4583 10.8051 15.8053 11.458 14.9999 11.458C14.1945 11.458 13.5416 10.8051 13.5416 9.99967Z" fill="#5D3EBC"/>
<path fill-rule="evenodd" clip-rule="evenodd" d="M3.33325 9.99967C3.33325 9.0792 4.07944 8.33301 4.99992 8.33301C5.92039 8.33301 6.66659 9.0792 6.66659 9.99967C6.66659 10.9201 5.92039 11.6663 4.99992 11.6663C4.07944 11.6663 3.33325 10.9201 3.33325 9.99967ZM4.99992 8.74967C4.30956 8.74967 3.74992 9.30932 3.74992 9.99967C3.74992 10.69 4.30956 11.2497 4.99992 11.2497C5.69027 11.2497 6.24992 10.69 6.24992 9.99967C6.24992 9.30932 5.69027 8.74967 4.99992 8.74967ZM8.33325 9.99967C8.33325 9.0792 9.07944 8.33301 9.99992 8.33301C10.9204 8.33301 11.6666 9.0792 11.6666 9.99967C11.6666 10.9201 10.9204 11.6663 9.99992 11.6663C9.07944 11.6663 8.33325 10.9201 8.33325 9.99967ZM9.99992 8.74967C9.30956 8.74967 8.74992 9.30932 8.74992 9.99967C8.74992 10.69 9.30956 11.2497 9.99992 11.2497C10.6903 11.2497 11.2499 10.69 11.2499 9.99967C11.2499 9.30932 10.6903 8.74967 9.99992 8.74967ZM13.3333 9.99967C13.3333 9.0792 14.0794 8.33301 14.9999 8.33301C15.9204 8.33301 16.6666 9.0792 16.6666 9.99967C16.6666 10.9201 15.9204 11.6663 14.9999 11.6663C14.0794 11.6663 13.3333 10.9201 13.3333 9.99967ZM14.9999 8.74967C14.3096 8.74967 13.7499 9.30932 13.7499 9.99967C13.7499 10.69 14.3096 11.2497 14.9999 11.2497C15.6903 11.2497 16.2499 10.69 16.2499 9.99967C16.2499 9.30932 15.6903 8.74967 14.9999 8.74967ZM4.58325 9.99967C4.58325 9.76956 4.7698 9.58301 4.99992 9.58301C5.23004 9.58301 5.41659 9.76956 5.41659 9.99967C5.41659 10.2298 5.23004 10.4163 4.99992 10.4163C4.7698 10.4163 4.58325 10.2298 4.58325 9.99967ZM9.58325 9.99967C9.58325 9.76956 9.7698 9.58301 9.99992 9.58301C10.23 9.58301 10.4166 9.76956 10.4166 9.99967C10.4166 10.2298 10.23 10.4163 9.99992 10.4163C9.7698 10.4163 9.58325 10.2298 9.58325 9.99967ZM14.5833 9.99967C14.5833 9.76956 14.7698 9.58301 14.9999 9.58301C15.23 9.58301 15.4166 9.76956 15.4166 9.99967C15.4166 10.2298 15.23 10.4163 14.9999 10.4163C14.7698 10.4163 14.5833 10.2298 14.5833 9.99967Z" fill="#5D3EBC"/>
</svg>
