<svg width="20" height="20" viewBox="0 0 20 20" fill="none" xmlns="http://www.w3.org/2000/svg">
<path fill-rule="evenodd" clip-rule="evenodd" d="M4.16666 14.1667C4.16666 15.0872 4.91285 15.8334 5.83332 15.8334H14.1667C15.0871 15.8334 15.8333 15.0872 15.8333 14.1667V13.3334C15.8333 12.8731 16.2064 12.5 16.6667 12.5C17.1269 12.5 17.5 12.8731 17.5 13.3334V14.1667C17.5 16.0076 16.0076 17.5 14.1667 17.5H5.83332C3.99237 17.5 2.49999 16.0076 2.49999 14.1667L2.49999 13.3334C2.49999 12.8731 2.87309 12.5 3.33332 12.5C3.79356 12.5 4.16666 12.8731 4.16666 13.3334V14.1667ZM6.0774 7.25594C5.75196 6.93051 5.75196 6.40287 6.0774 6.07743L9.41073 2.7441C9.56701 2.58782 9.77898 2.50002 9.99999 2.50002C10.221 2.50002 10.433 2.58782 10.5892 2.7441L13.9226 6.07743C14.248 6.40287 14.248 6.93051 13.9226 7.25594C13.5971 7.58138 13.0695 7.58138 12.7441 7.25594L10.8333 5.3452L10.8333 13.3334C10.8333 13.7936 10.4602 14.1667 9.99999 14.1667C9.53975 14.1667 9.16666 13.7936 9.16666 13.3334V5.3452L7.25591 7.25594C6.93048 7.58138 6.40284 7.58138 6.0774 7.25594Z" fill="#5D3EBC"/>
<path fill-rule="evenodd" clip-rule="evenodd" d="M5.83332 17.7084C3.87731 17.7084 2.29166 16.1227 2.29166 14.1667L2.29166 13.3334C2.29166 12.7581 2.75803 12.2917 3.33332 12.2917C3.90862 12.2917 4.37499 12.7581 4.37499 13.3334V14.1667C4.37499 14.9721 5.02791 15.625 5.83332 15.625H14.1667C14.9721 15.625 15.625 14.9721 15.625 14.1667V13.3334C15.625 12.7581 16.0914 12.2917 16.6667 12.2917C17.242 12.2917 17.7083 12.7581 17.7083 13.3334V14.1667C17.7083 16.1227 16.1227 17.7084 14.1667 17.7084H5.83332ZM2.70832 14.1667C2.70832 15.8926 4.10743 17.2917 5.83332 17.2917H14.1667C15.8925 17.2917 17.2917 15.8926 17.2917 14.1667V13.3334C17.2917 12.9882 17.0118 12.7084 16.6667 12.7084C16.3215 12.7084 16.0417 12.9882 16.0417 13.3334V14.1667C16.0417 15.2022 15.2022 16.0417 14.1667 16.0417H5.83332C4.79779 16.0417 3.95832 15.2022 3.95832 14.1667V13.3334C3.95832 12.9882 3.6785 12.7084 3.33332 12.7084C2.98815 12.7084 2.70832 12.9882 2.70832 13.3334L2.70832 14.1667ZM5.93009 7.40326C5.52329 6.99646 5.52329 6.33691 5.93009 5.93012L9.26342 2.59678C9.45877 2.40143 9.72372 2.29169 9.99999 2.29169C10.2763 2.29169 10.5412 2.40143 10.7366 2.59678L14.0699 5.93012C14.4767 6.33691 14.4767 6.99646 14.0699 7.40326C13.6631 7.81005 13.0036 7.81005 12.5968 7.40326L11.0417 5.84816L11.0417 13.3334C11.0417 13.9087 10.5753 14.375 9.99999 14.375C9.42469 14.375 8.95832 13.9086 8.95832 13.3334L8.95832 5.84816L7.40323 7.40326C6.99643 7.81005 6.33688 7.81005 5.93009 7.40326ZM6.22471 6.22475C5.98064 6.46882 5.98064 6.86455 6.22471 7.10863C6.46879 7.35271 6.86452 7.35271 7.1086 7.10863L9.01934 5.19788C9.07893 5.1383 9.16853 5.12048 9.24638 5.15272C9.32423 5.18497 9.37499 5.26094 9.37499 5.3452L9.37499 13.3334C9.37499 13.6785 9.65481 13.9584 9.99999 13.9584C10.3452 13.9584 10.625 13.6785 10.625 13.3334L10.625 5.3452C10.625 5.26094 10.6757 5.18497 10.7536 5.15272C10.8314 5.12048 10.9211 5.1383 10.9806 5.19788L12.8914 7.10863C13.1355 7.35271 13.5312 7.35271 13.7753 7.10863C14.0193 6.86455 14.0193 6.46882 13.7753 6.22475L10.4419 2.89141C10.3247 2.7742 10.1658 2.70835 9.99999 2.70835C9.83423 2.70835 9.67526 2.7742 9.55805 2.89141L6.22471 6.22475Z" fill="#5D3EBC"/>
</svg>
