<svg width="18" height="18" viewBox="0 0 18 18" fill="none" xmlns="http://www.w3.org/2000/svg">
<path fill-rule="evenodd" clip-rule="evenodd" d="M2.15962 1.44854C4.38388 1.07135 6.66928 0.875 9.00006 0.875C11.3308 0.875 13.6162 1.07134 15.8404 1.44852C16.5924 1.57604 17.125 2.23063 17.125 2.97835V3.84835C17.125 4.51139 16.8616 5.14727 16.3928 5.61612L11.2411 10.7678C11.0067 11.0022 10.875 11.3201 10.875 11.6517V14.0912C10.875 15.0381 10.34 15.9038 9.49303 16.3273L8.02951 17.059C7.83577 17.1559 7.60568 17.1455 7.42142 17.0317C7.23716 16.9178 7.125 16.7166 7.125 16.5V11.6517C7.125 11.3201 6.9933 11.0022 6.75888 10.7678L1.60723 5.61612C1.13839 5.14728 0.875 4.51139 0.875 3.84835V2.97837C0.875 2.23065 1.40764 1.57606 2.15962 1.44854Z" fill="#5D3EBC"/>
</svg>
