<svg width="18" height="18" viewBox="0 0 18 18" fill="none" xmlns="http://www.w3.org/2000/svg">
<path fill-rule="evenodd" clip-rule="evenodd" d="M9 1.125C6.82538 1.125 5.0625 2.88788 5.0625 5.0625V7.3125C3.81986 7.3125 2.8125 8.31986 2.8125 9.5625V14.625C2.8125 15.8676 3.81986 16.875 5.0625 16.875H12.9375C14.1801 16.875 15.1875 15.8676 15.1875 14.625V9.5625C15.1875 8.31986 14.1801 7.3125 12.9375 7.3125V5.0625C12.9375 2.88788 11.1746 1.125 9 1.125ZM11.8125 7.3125V5.0625C11.8125 3.5092 10.5533 2.25 9 2.25C7.4467 2.25 6.1875 3.5092 6.1875 5.0625V7.3125H11.8125Z" fill="#697488"/>
</svg>
