<svg width="20" height="20" viewBox="0 0 20 20" fill="none" xmlns="http://www.w3.org/2000/svg">
<path fill-rule="evenodd" clip-rule="evenodd" d="M8.78057 3.49592C5.86199 3.49592 3.49602 5.8619 3.49602 8.78048C3.49602 11.6991 5.86199 14.065 8.78057 14.065C10.2401 14.065 11.5601 13.4744 12.5173 12.5172C13.4745 11.56 14.0651 10.24 14.0651 8.78048C14.0651 5.8619 11.6991 3.49592 8.78057 3.49592ZM1.87 8.78048C1.87 4.96388 4.96397 1.86991 8.78057 1.86991C12.5972 1.86991 15.6911 4.96388 15.6911 8.78048C15.6911 10.3955 15.1364 11.882 14.2082 13.0583L17.892 16.7422C18.2095 17.0597 18.2095 17.5744 17.892 17.8919C17.5745 18.2094 17.0598 18.2094 16.7423 17.8919L13.0584 14.2081C11.8821 15.1363 10.3956 15.691 8.78057 15.691C4.96397 15.691 1.87 12.5971 1.87 8.78048Z" fill="#5D3EBC"/>
<path fill-rule="evenodd" clip-rule="evenodd" d="M1.66675 8.78048C1.66675 4.85162 4.85171 1.66666 8.78057 1.66666C12.7094 1.66666 15.8944 4.85162 15.8944 8.78048C15.8944 10.3778 15.367 11.8535 14.4781 13.0408L18.0358 16.5985C18.4326 16.9953 18.4326 17.6388 18.0358 18.0357C17.6389 18.4325 16.9954 18.4325 16.5986 18.0357L13.0408 14.478C11.8536 15.3669 10.3779 15.8943 8.78057 15.8943C4.85171 15.8943 1.66675 12.7093 1.66675 8.78048ZM8.78057 2.07316C5.07622 2.07316 2.07325 5.07613 2.07325 8.78048C2.07325 12.4848 5.07622 15.4878 8.78057 15.4878C10.3482 15.4878 11.7908 14.9495 12.9325 14.0485C13.0134 13.9847 13.1293 13.9915 13.2021 14.0644L16.886 17.7482C17.1241 17.9864 17.5102 17.9864 17.7483 17.7482C17.9864 17.5101 17.9864 17.124 17.7483 16.8859L14.0645 13.2021C13.9916 13.1292 13.9848 13.0133 14.0486 12.9324C14.9495 11.7907 15.4879 10.3482 15.4879 8.78048C15.4879 5.07613 12.4849 2.07316 8.78057 2.07316ZM8.78057 3.69918C5.97424 3.69918 3.69927 5.97415 3.69927 8.78048C3.69927 11.5868 5.97424 13.8618 8.78057 13.8618C10.184 13.8618 11.453 13.2941 12.3736 12.3735C13.2942 11.4529 13.8619 10.1839 13.8619 8.78048C13.8619 5.97415 11.5869 3.69918 8.78057 3.69918ZM3.29276 8.78048C3.29276 5.74965 5.74974 3.29267 8.78057 3.29267C11.8114 3.29267 14.2684 5.74965 14.2684 8.78048C14.2684 10.296 13.6548 11.6672 12.661 12.6609C11.6673 13.6547 10.2961 14.2683 8.78057 14.2683C5.74974 14.2683 3.29276 11.8113 3.29276 8.78048Z" fill="#5D3EBC"/>
</svg>
