<svg width="18" height="18" viewBox="0 0 18 18" fill="none" xmlns="http://www.w3.org/2000/svg">
<path fill-rule="evenodd" clip-rule="evenodd" d="M9 2.44286C9.42605 2.44286 9.77143 2.78824 9.77143 3.21429V8.22857H14.7857C15.2118 8.22857 15.5571 8.57395 15.5571 9C15.5571 9.42605 15.2118 9.77143 14.7857 9.77143H9.77143V14.7857C9.77143 15.2118 9.42605 15.5571 9 15.5571C8.57395 15.5571 8.22857 15.2118 8.22857 14.7857V9.77143H3.21429C2.78824 9.77143 2.44286 9.42605 2.44286 9C2.44286 8.57395 2.78824 8.22857 3.21429 8.22857H8.22857V3.21429C8.22857 2.78824 8.57395 2.44286 9 2.44286Z" fill="#697488"/>
<path fill-rule="evenodd" clip-rule="evenodd" d="M8.03571 3.21429C8.03571 2.68173 8.46744 2.25 9 2.25C9.53256 2.25 9.96428 2.68173 9.96428 3.21429V8.03571H14.7857C15.3183 8.03571 15.75 8.46744 15.75 9C15.75 9.53256 15.3183 9.96428 14.7857 9.96428H9.96428V14.7857C9.96428 15.3183 9.53256 15.75 9 15.75C8.46744 15.75 8.03571 15.3183 8.03571 14.7857V9.96428H3.21429C2.68173 9.96428 2.25 9.53256 2.25 9C2.25 8.46744 2.68173 8.03571 3.21429 8.03571H8.03571V3.21429ZM9 2.63571C8.68046 2.63571 8.42143 2.89475 8.42143 3.21429V8.22857C8.42143 8.33508 8.33508 8.42143 8.22857 8.42143H3.21429C2.89475 8.42143 2.63571 8.68046 2.63571 9C2.63571 9.31953 2.89475 9.57857 3.21429 9.57857H8.22857C8.33508 9.57857 8.42143 9.66492 8.42143 9.77143V14.7857C8.42143 15.1052 8.68046 15.3643 9 15.3643C9.31954 15.3643 9.57857 15.1052 9.57857 14.7857V9.77143C9.57857 9.66492 9.66492 9.57857 9.77143 9.57857H14.7857C15.1052 9.57857 15.3643 9.31954 15.3643 9C15.3643 8.68046 15.1052 8.42143 14.7857 8.42143H9.77143C9.66492 8.42143 9.57857 8.33508 9.57857 8.22857V3.21429C9.57857 2.89475 9.31954 2.63571 9 2.63571Z" fill="#697488"/>
</svg>
