<svg width="13" height="13" viewBox="0 0 13 13" fill="none" xmlns="http://www.w3.org/2000/svg">
<path fill-rule="evenodd" clip-rule="evenodd" d="M6.49996 0.867165C6.94433 0.867165 7.30456 1.2274 7.30456 1.67176V5.69475L11.3275 5.69475C11.7719 5.69475 12.1321 6.05498 12.1321 6.49935C12.1321 6.94371 11.7719 7.30395 11.3275 7.30395H7.30456V11.3269C7.30456 11.7713 6.94433 12.1315 6.49996 12.1315C6.05559 12.1315 5.69536 11.7713 5.69536 11.3269V7.30395L1.67237 7.30394C1.22801 7.30394 0.867775 6.94371 0.867775 6.49935C0.867775 6.05498 1.22801 5.69475 1.67237 5.69475L5.69536 5.69475V1.67176C5.69536 1.2274 6.05559 0.867165 6.49996 0.867165Z" fill="#5D3EBC"/>
<path fill-rule="evenodd" clip-rule="evenodd" d="M5.49421 1.67176C5.49421 1.1163 5.9445 0.666016 6.49996 0.666016C7.05542 0.666016 7.50571 1.1163 7.50571 1.67176V5.4936L11.3275 5.4936C11.883 5.4936 12.3333 5.94389 12.3333 6.49935C12.3333 7.05481 11.883 7.5051 11.3275 7.5051L7.50571 7.50509V11.3269C7.50571 11.8824 7.05542 12.3327 6.49996 12.3327C5.9445 12.3327 5.49421 11.8824 5.49421 11.3269V7.50509H1.67237C1.11691 7.50509 0.666626 7.05481 0.666626 6.49935C0.666626 5.94389 1.11691 5.4936 1.67237 5.4936H5.49421V1.67176ZM6.49996 1.06831C6.16668 1.06831 5.89651 1.33849 5.89651 1.67176V5.69475C5.89651 5.7481 5.87532 5.79926 5.8376 5.83698C5.79987 5.87471 5.74871 5.8959 5.69536 5.8959L1.67237 5.8959C1.3391 5.8959 1.06892 6.16607 1.06892 6.49935C1.06892 6.83262 1.3391 7.1028 1.67237 7.1028L5.69536 7.1028C5.80645 7.1028 5.89651 7.19285 5.89651 7.30395V11.3269C5.89651 11.6602 6.16668 11.9304 6.49996 11.9304C6.83323 11.9304 7.10341 11.6602 7.10341 11.3269V7.30395C7.10341 7.2506 7.1246 7.19943 7.16232 7.16171C7.20005 7.12399 7.25121 7.1028 7.30456 7.1028L11.3275 7.1028C11.6608 7.1028 11.931 6.83262 11.931 6.49935C11.931 6.16607 11.6608 5.8959 11.3275 5.8959L7.30456 5.8959C7.19347 5.8959 7.10341 5.80584 7.10341 5.69475V1.67176C7.10341 1.33849 6.83323 1.06831 6.49996 1.06831Z" fill="#5D3EBC"/>
</svg>
