<svg width="20" height="20" viewBox="0 0 20 20" fill="none" xmlns="http://www.w3.org/2000/svg">
<path d="M10 12.5C11.3807 12.5 12.5 11.3807 12.5 10C12.5 8.61929 11.3807 7.5 10 7.5C8.61929 7.5 7.5 8.61929 7.5 10C7.5 11.3807 8.61929 12.5 10 12.5Z" fill="#5D3EBC"/>
<path fill-rule="evenodd" clip-rule="evenodd" d="M1.10284 9.53891C2.34222 5.81309 5.85659 3.125 10.0004 3.125C14.1423 3.125 17.6554 5.8106 18.8963 9.53371C18.9966 9.8346 18.9967 10.1601 18.8966 10.4611C17.6572 14.1869 14.1428 16.875 9.99897 16.875C5.85706 16.875 2.34403 14.1894 1.10312 10.4663C1.00283 10.1654 1.00274 9.83986 1.10284 9.53891ZM14.375 10C14.375 12.4162 12.4162 14.375 10 14.375C7.58375 14.375 5.625 12.4162 5.625 10C5.625 7.58375 7.58375 5.625 10 5.625C12.4162 5.625 14.375 7.58375 14.375 10Z" fill="#5D3EBC"/>
</svg>
