<svg width="18" height="18" viewBox="0 0 18 18" fill="none" xmlns="http://www.w3.org/2000/svg">
<path d="M8.4375 4.0027C8.4375 3.73634 8.29796 3.49557 8.1366 3.28365C7.97093 3.06608 7.875 2.808 7.875 2.53125C7.875 1.7546 8.63052 1.125 9.5625 1.125C10.4945 1.125 11.25 1.7546 11.25 2.53125C11.25 2.808 11.1541 3.06608 10.9884 3.28365C10.827 3.49557 10.6875 3.73634 10.6875 4.0027C10.6875 4.25197 10.8958 4.45095 11.1446 4.4361C12.5776 4.35059 13.9874 4.17996 15.3691 3.92924C15.5212 3.90164 15.6779 3.93783 15.8025 4.02931C15.9271 4.12078 16.0085 4.25948 16.0277 4.41283C16.1957 5.75493 16.291 7.11947 16.3094 8.50234C16.3131 8.77711 16.09 8.99992 15.8152 9C15.5488 9 15.3081 8.86046 15.0961 8.6991C14.8786 8.53343 14.6205 8.4375 14.3437 8.4375C13.5671 8.4375 12.9375 9.19302 12.9375 10.125C12.9375 11.057 13.5671 11.8125 14.3437 11.8125C14.6205 11.8125 14.8786 11.7166 15.0961 11.5509C15.3081 11.3895 15.5488 11.25 15.8152 11.25C16.048 11.25 16.2329 11.4462 16.2161 11.6785C16.1271 12.9074 15.9773 14.1196 15.7698 15.3121C15.7291 15.546 15.5459 15.7291 15.312 15.7698C13.9477 16.0072 12.5576 16.169 11.1461 16.2507C10.8964 16.2652 10.6875 16.0654 10.6875 15.8152C10.6875 15.5488 10.827 15.3081 10.9884 15.0961C11.1541 14.8786 11.25 14.6205 11.25 14.3438C11.25 13.5671 10.4945 12.9375 9.5625 12.9375C8.63052 12.9375 7.875 13.5671 7.875 14.3438C7.875 14.6205 7.97093 14.8786 8.1366 15.0961C8.29796 15.3081 8.4375 15.5488 8.4375 15.8152C8.4375 16.0864 8.21547 16.3054 7.94439 16.2977C6.75227 16.2639 5.57429 16.173 4.4131 16.0276C4.25975 16.0084 4.12105 15.927 4.02958 15.8024C3.93811 15.6778 3.90192 15.5211 3.92951 15.369C4.14917 14.1586 4.30736 12.9265 4.4007 11.6763C4.41793 11.4454 4.23422 11.25 4.0027 11.25C3.73634 11.25 3.49557 11.3895 3.28365 11.5509C3.06608 11.7166 2.808 11.8125 2.53125 11.8125C1.7546 11.8125 1.125 11.057 1.125 10.125C1.125 9.19302 1.7546 8.4375 2.53125 8.4375C2.808 8.4375 3.06608 8.53343 3.28365 8.6991C3.49557 8.86046 3.73634 9 4.0027 9C4.27748 9 4.50058 8.77723 4.4968 8.50249C4.48001 7.28134 4.40146 6.0752 4.26419 4.88721C4.24448 4.7166 4.30379 4.54634 4.42523 4.4249C4.54667 4.30346 4.71693 4.24415 4.88754 4.26386C5.89427 4.38019 6.91395 4.45434 7.9448 4.48449C8.21561 4.4924 8.4375 4.27363 8.4375 4.0027Z" fill="#697488"/>
</svg>
