<svg width="20" height="20" viewBox="0 0 20 20" fill="none" xmlns="http://www.w3.org/2000/svg">
<path d="M9.15312 4.74281C9.40258 3.97505 10.4888 3.97505 10.7382 4.74281L11.6295 7.48598C11.7411 7.82933 12.061 8.06179 12.4221 8.06179H15.3064C16.1137 8.06179 16.4493 9.09481 15.7962 9.56931L13.4627 11.2647C13.1707 11.4769 13.0485 11.853 13.16 12.1964L14.0513 14.9395C14.3008 15.7073 13.4221 16.3457 12.769 15.8712L10.4355 14.1759C10.1434 13.9637 9.74792 13.9637 9.45584 14.1759L7.12237 15.8712C6.46927 16.3457 5.59054 15.7073 5.84 14.9395L6.73131 12.1964C6.84287 11.853 6.72066 11.4769 6.42858 11.2647L4.09511 9.56931C3.44201 9.09481 3.77766 8.06179 4.58493 8.06179H7.46926C7.83029 8.06179 8.15025 7.82933 8.26181 7.48598L9.15312 4.74281Z" fill="#5D3EBC"/>
</svg>
