<svg width="21" height="20" viewBox="0 0 21 20" fill="none" xmlns="http://www.w3.org/2000/svg">
<path fill-rule="evenodd" clip-rule="evenodd" d="M16.7836 9.41042C17.109 9.73586 17.109 10.2635 16.7836 10.5889L10.9503 16.4223C10.6248 16.7477 10.0972 16.7477 9.77175 16.4223L3.93841 10.5889C3.77567 10.4262 3.69431 10.2129 3.69434 9.99957V5.83301C3.69434 4.4523 4.81362 3.33301 6.19434 3.33301H10.3612C10.5744 3.33307 10.7876 3.41443 10.9503 3.57709L16.7836 9.41042ZM6.19434 6.66634C6.65457 6.66634 7.02767 6.29325 7.02767 5.83301C7.02767 5.37277 6.65457 4.99967 6.19434 4.99967C5.7341 4.99967 5.361 5.37277 5.361 5.83301C5.361 6.29325 5.7341 6.66634 6.19434 6.66634Z" fill="#5D3EBC"/>
</svg>
