<svg width="20" height="20" viewBox="0 0 20 20" fill="none" xmlns="http://www.w3.org/2000/svg">
<path fill-rule="evenodd" clip-rule="evenodd" d="M12.0756 1.74205C12.3147 1.87533 12.432 2.15449 12.36 2.41856L10.7793 8.21431H16.5476C16.7847 8.21431 16.9991 8.35493 17.0936 8.57232C17.188 8.7897 17.1445 9.04241 16.9828 9.21569L8.64947 18.1442C8.46271 18.3443 8.16355 18.3913 7.92447 18.258C7.6854 18.1247 7.56804 17.8456 7.64006 17.5815L9.22072 11.7857H3.45243C3.21541 11.7857 3.00097 11.6451 2.90651 11.4277C2.81204 11.2103 2.85555 10.9576 3.01728 10.7844L11.3506 1.8558C11.5374 1.6557 11.8365 1.60876 12.0756 1.74205Z" fill="white"/>
</svg>
