<svg width="18" height="18" viewBox="0 0 18 18" fill="none" xmlns="http://www.w3.org/2000/svg">
<path d="M4.15954 2.03571C3.80434 2.03571 3.46368 2.17681 3.21252 2.42797L2.28454 3.35596C1.23849 4.402 1.23849 6.09798 2.28454 7.14403C3.23965 8.09914 4.7366 8.18217 5.78592 7.39312C6.23335 7.72901 6.78999 7.92856 7.39286 7.92856C7.99582 7.92856 8.55254 7.72895 9 7.39296C9.44746 7.72895 10.0042 7.92856 10.6071 7.92856C11.21 7.92856 11.7667 7.72901 12.2141 7.39312C13.2634 8.18217 14.7604 8.09914 15.7155 7.14403C16.7615 6.09798 16.7615 4.402 15.7155 3.35596L14.7875 2.42798C14.5363 2.17681 14.1957 2.03571 13.8405 2.03571L4.15954 2.03571Z" fill="#697488"/>
<path fill-rule="evenodd" clip-rule="evenodd" d="M2.57143 14.8929V8.63935C3.58586 9.12039 4.77135 9.12005 5.78603 8.63883C6.27332 8.87017 6.81865 8.99999 7.39286 8.99999C7.96719 8.99999 8.51262 8.87012 9 8.63868C9.48737 8.87012 10.0328 8.99999 10.6071 8.99999C11.1813 8.99999 11.7267 8.87017 12.214 8.63883C13.2286 9.12005 14.4141 9.12039 15.4286 8.63935V14.8929H15.9643C16.2602 14.8929 16.5 15.1327 16.5 15.4286C16.5 15.7244 16.2602 15.9643 15.9643 15.9643H2.03571C1.73985 15.9643 1.5 15.7244 1.5 15.4286C1.5 15.1327 1.73985 14.8929 2.03571 14.8929H2.57143ZM4.71429 10.6071C4.71429 10.3113 4.95413 10.0714 5.25 10.0714H7.39286C7.68872 10.0714 7.92857 10.3113 7.92857 10.6071V12.75C7.92857 13.0459 7.68872 13.2857 7.39286 13.2857H5.25C4.95413 13.2857 4.71429 13.0459 4.71429 12.75V10.6071ZM10.6071 10.0714C10.3113 10.0714 10.0714 10.3113 10.0714 10.6071V14.3571C10.0714 14.653 10.3113 14.8928 10.6071 14.8928H12.75C13.0459 14.8928 13.2857 14.653 13.2857 14.3571V10.6071C13.2857 10.3113 13.0459 10.0714 12.75 10.0714H10.6071Z" fill="#697488"/>
</svg>
