<svg width="20" height="20" viewBox="0 0 20 20" fill="none" xmlns="http://www.w3.org/2000/svg">
<path fill-rule="evenodd" clip-rule="evenodd" d="M9.8151 16.6663C13.497 16.6663 16.4818 13.6816 16.4818 9.99967C16.4818 6.31778 13.497 3.33301 9.8151 3.33301C6.13321 3.33301 3.14844 6.31778 3.14844 9.99967C3.14844 13.6816 6.13321 16.6663 9.8151 16.6663ZM5.09159 8.35585C5.40296 7.46101 5.96142 6.68187 6.68528 6.10014C6.90851 6.44106 7.29385 6.66627 7.73178 6.66627C8.42214 6.66627 8.98178 7.22591 8.98178 7.91627V8.33293C8.98178 9.25341 9.72798 9.9996 10.6485 9.9996C11.5689 9.9996 12.3151 9.25341 12.3151 8.33293C12.3151 7.5495 12.8557 6.89232 13.5841 6.714C14.3508 7.59268 14.8151 8.74192 14.8151 9.99961C14.8151 10.2836 14.7914 10.562 14.746 10.8331H13.9817C13.0613 10.8331 12.3151 11.5793 12.3151 12.4998V14.3307C11.5797 14.7561 10.7257 14.9996 9.81503 14.9996V13.333C9.81503 12.4125 9.06884 11.6663 8.14837 11.6663C7.22789 11.6663 6.4817 10.9201 6.4817 9.99967C6.4817 9.17342 5.88045 8.48759 5.09159 8.35585Z" fill="#5D3EBC"/>
</svg>
