<svg width="18" height="18" viewBox="0 0 18 18" fill="none" xmlns="http://www.w3.org/2000/svg">
<path d="M9 11.25C10.2426 11.25 11.25 10.2426 11.25 9C11.25 7.75736 10.2426 6.75 9 6.75C7.75736 6.75 6.75 7.75736 6.75 9C6.75 10.2426 7.75736 11.25 9 11.25Z" fill="#697488"/>
<path fill-rule="evenodd" clip-rule="evenodd" d="M0.992558 8.58502C2.108 5.23178 5.27093 2.8125 9.00039 2.8125C12.7281 2.8125 15.8898 5.22954 17.0067 8.58034C17.0969 8.85114 17.097 9.14413 17.0069 9.41498C15.8915 12.7682 12.7285 15.1875 8.99907 15.1875C5.27135 15.1875 2.10963 12.7705 0.992804 9.41966C0.902548 9.14887 0.902462 8.85587 0.992558 8.58502ZM12.9375 9C12.9375 11.1746 11.1746 12.9375 9 12.9375C6.82538 12.9375 5.0625 11.1746 5.0625 9C5.0625 6.82538 6.82538 5.0625 9 5.0625C11.1746 5.0625 12.9375 6.82538 12.9375 9Z" fill="#697488"/>
</svg>
