<svg width="20" height="20" viewBox="0 0 20 20" fill="none" xmlns="http://www.w3.org/2000/svg">
<path fill-rule="evenodd" clip-rule="evenodd" d="M4.16666 14.1667C4.16666 15.0872 4.91285 15.8334 5.83332 15.8334H14.1667C15.0871 15.8334 15.8333 15.0872 15.8333 14.1667V13.3334C15.8333 12.8731 16.2064 12.5 16.6667 12.5C17.1269 12.5 17.5 12.8731 17.5 13.3334V14.1667C17.5 16.0076 16.0076 17.5 14.1667 17.5H5.83332C3.99237 17.5 2.49999 16.0076 2.49999 14.1667L2.49999 13.3334C2.49999 12.8731 2.87309 12.5 3.33332 12.5C3.79356 12.5 4.16666 12.8731 4.16666 13.3334V14.1667ZM6.0774 9.41076C6.40284 9.08533 6.93048 9.08533 7.25591 9.41076L9.16666 11.3215L9.16666 3.33335C9.16666 2.87312 9.53975 2.50002 9.99999 2.50002C10.4602 2.50002 10.8333 2.87312 10.8333 3.33335L10.8333 11.3215L12.7441 9.41076C13.0695 9.08533 13.5971 9.08533 13.9226 9.41076C14.248 9.7362 14.248 10.2638 13.9226 10.5893L10.5892 13.9226C10.2638 14.248 9.73617 14.248 9.41073 13.9226L6.0774 10.5893C5.75196 10.2638 5.75196 9.7362 6.0774 9.41076Z" fill="#5D3EBC"/>
<path fill-rule="evenodd" clip-rule="evenodd" d="M5.83332 17.7084C3.87731 17.7084 2.29166 16.1227 2.29166 14.1667L2.29166 13.3334C2.29166 12.7581 2.75803 12.2917 3.33332 12.2917C3.90862 12.2917 4.37499 12.7581 4.37499 13.3334V14.1667C4.37499 14.9721 5.02791 15.625 5.83332 15.625H14.1667C14.9721 15.625 15.625 14.9721 15.625 14.1667V13.3334C15.625 12.7581 16.0914 12.2917 16.6667 12.2917C17.242 12.2917 17.7083 12.7581 17.7083 13.3334V14.1667C17.7083 16.1227 16.1227 17.7084 14.1667 17.7084H5.83332ZM2.70832 14.1667C2.70832 15.8926 4.10743 17.2917 5.83332 17.2917H14.1667C15.8925 17.2917 17.2917 15.8926 17.2917 14.1667V13.3334C17.2917 12.9882 17.0118 12.7084 16.6667 12.7084C16.3215 12.7084 16.0417 12.9882 16.0417 13.3334V14.1667C16.0417 15.2022 15.2022 16.0417 14.1667 16.0417H5.83332C4.79779 16.0417 3.95832 15.2022 3.95832 14.1667V13.3334C3.95832 12.9882 3.6785 12.7084 3.33332 12.7084C2.98815 12.7084 2.70832 12.9882 2.70832 13.3334L2.70832 14.1667ZM5.93009 10.7366C5.52329 10.3298 5.52329 9.67025 5.93009 9.26345C6.33688 8.85665 6.99643 8.85665 7.40323 9.26345L8.95832 10.8185L8.95832 3.33335C8.95832 2.75806 9.42469 2.29169 9.99999 2.29169C10.5753 2.29169 11.0417 2.75806 11.0417 3.33335L11.0417 10.8185L12.5968 9.26345C13.0036 8.85665 13.6631 8.85665 14.0699 9.26345C14.4767 9.67025 14.4767 10.3298 14.0699 10.7366L10.7366 14.0699C10.3298 14.4767 9.67022 14.4767 9.26342 14.0699L5.93009 10.7366ZM6.22471 9.55808C5.98064 9.80216 5.98064 10.1979 6.22471 10.442L9.55805 13.7753C9.80213 14.0194 10.1979 14.0194 10.4419 13.7753L13.7753 10.442C14.0193 10.1979 14.0193 9.80216 13.7753 9.55808C13.5312 9.314 13.1355 9.314 12.8914 9.55808L10.9806 11.4688C10.9211 11.5284 10.8314 11.5462 10.7536 11.514C10.6757 11.4817 10.625 11.4058 10.625 11.3215L10.625 3.33335C10.625 2.98818 10.3452 2.70835 9.99999 2.70835C9.65481 2.70835 9.37499 2.98818 9.37499 3.33335L9.37499 11.3215C9.37499 11.4058 9.32423 11.4817 9.24638 11.514C9.16853 11.5462 9.07893 11.5284 9.01934 11.4688L7.1086 9.55808C6.86452 9.314 6.46879 9.314 6.22471 9.55808Z" fill="#5D3EBC"/>
</svg>
