<svg width="21" height="20" viewBox="0 0 21 20" fill="none" xmlns="http://www.w3.org/2000/svg">
<path fill-rule="evenodd" clip-rule="evenodd" d="M11.7777 3.33301L8.44434 6.66634V17.3567L11.7777 14.0234V3.33301Z" fill="#5D3EBC"/>
<path fill-rule="evenodd" clip-rule="evenodd" d="M4.86692 4.7556C4.62859 4.51727 4.27016 4.44597 3.95877 4.57495C3.64737 4.70394 3.44434 5.0078 3.44434 5.34485V13.6782C3.44434 13.8992 3.53213 14.1112 3.68841 14.2674L6.77767 17.3567V6.66634L4.86692 4.7556Z" fill="#5D3EBC"/>
<path fill-rule="evenodd" clip-rule="evenodd" d="M16.5336 6.42226L13.4443 3.33301V14.0234L15.3551 15.9341C15.5934 16.1724 15.9518 16.2437 16.2632 16.1148C16.5746 15.9858 16.7777 15.6819 16.7777 15.3449V7.01152C16.7777 6.79051 16.6899 6.57854 16.5336 6.42226Z" fill="#5D3EBC"/>
</svg>
