<svg width="21" height="20" viewBox="0 0 21 20" fill="none" xmlns="http://www.w3.org/2000/svg">
<path fill-rule="evenodd" clip-rule="evenodd" d="M5.51888 4.99967C5.51888 4.0792 6.26507 3.33301 7.18555 3.33301H13.8522C14.7727 3.33301 15.5189 4.0792 15.5189 4.99967V14.9997C15.9791 14.9997 16.3522 15.3728 16.3522 15.833C16.3522 16.2932 15.9791 16.6663 15.5189 16.6663H13.0319C12.5645 16.6663 12.1855 16.2874 12.1855 15.82V14.1663C12.1855 13.7061 11.8125 13.333 11.3522 13.333H9.68555C9.22531 13.333 8.85221 13.7061 8.85221 14.1663V15.82C8.85221 16.2874 8.47329 16.6663 8.00585 16.6663H5.51888C5.05864 16.6663 4.68555 16.2932 4.68555 15.833C4.68555 15.3728 5.05864 14.9997 5.51888 14.9997V4.99967ZM8.01888 5.83301H9.68555V7.49967H8.01888V5.83301ZM9.68555 9.16634H8.01888V10.833H9.68555V9.16634ZM11.3522 5.83301H13.0189V7.49967H11.3522V5.83301ZM13.0189 9.16634H11.3522V10.833H13.0189V9.16634Z" fill="#5D3EBC"/>
</svg>
