<svg width="18" height="18" viewBox="0 0 18 18" fill="none" xmlns="http://www.w3.org/2000/svg">
<path fill-rule="evenodd" clip-rule="evenodd" d="M1.125 5.34375C1.125 4.5671 1.7546 3.9375 2.53125 3.9375H7.03125C7.8079 3.9375 8.4375 4.5671 8.4375 5.34375V8.15625C8.4375 8.9329 7.8079 9.5625 7.03125 9.5625H2.53125C1.7546 9.5625 1.125 8.9329 1.125 8.15625V5.34375ZM10.125 6.46875C10.125 5.6921 10.7546 5.0625 11.5312 5.0625H15.4688C16.2454 5.0625 16.875 5.6921 16.875 6.46875V12.6562C16.875 13.4329 16.2454 14.0625 15.4688 14.0625H11.5312C10.7546 14.0625 10.125 13.4329 10.125 12.6562V6.46875ZM2.25 12.0938C2.25 11.3171 2.8796 10.6875 3.65625 10.6875H7.59375C8.3704 10.6875 9 11.3171 9 12.0938V13.7812C9 14.5579 8.3704 15.1875 7.59375 15.1875H3.65625C2.8796 15.1875 2.25 14.5579 2.25 13.7812V12.0938Z" fill="#697488"/>
</svg>
