<svg width="18" height="18" viewBox="0 0 18 18" fill="none" xmlns="http://www.w3.org/2000/svg">
<path fill-rule="evenodd" clip-rule="evenodd" d="M12.3751 3.35864V3.52873C13.0911 3.59428 13.8013 3.68048 14.5048 3.78673C14.7653 3.82607 15.0249 3.86816 15.2836 3.91297C15.5897 3.966 15.7949 4.25712 15.7418 4.56323C15.6888 4.86933 15.3977 5.07449 15.0916 5.02146C15.0394 5.01242 14.9871 5.00349 14.9349 4.99468L14.1808 14.7976C14.0906 15.9698 13.1131 16.875 11.9374 16.875H6.06277C4.88706 16.875 3.90957 15.9698 3.8194 14.7976L3.06533 4.99468C3.01305 5.00349 2.9608 5.01242 2.9086 5.02146C2.6025 5.07449 2.31137 4.86933 2.25835 4.56323C2.20532 4.25712 2.41048 3.966 2.71658 3.91297C2.97526 3.86816 3.23486 3.82607 3.49536 3.78673C4.19893 3.68048 4.90905 3.59428 5.62509 3.52873V3.35864C5.62509 2.18529 6.53449 1.18364 7.73667 1.14518C8.15618 1.13176 8.57736 1.125 9.00009 1.125C9.42283 1.125 9.844 1.13176 10.2635 1.14518C11.4657 1.18364 12.3751 2.18529 12.3751 3.35864ZM7.77264 2.26961C8.18017 2.25657 8.58935 2.25 9.00009 2.25C9.41083 2.25 9.82001 2.25657 10.2275 2.26961C10.7935 2.28771 11.2501 2.76295 11.2501 3.35864V3.44312C10.5058 3.39792 9.7556 3.375 9.00009 3.375C8.24459 3.375 7.49436 3.39792 6.75009 3.44312V3.35864C6.75009 2.76295 7.20668 2.28771 7.77264 2.26961ZM7.50654 6.72838C7.4946 6.41795 7.23327 6.17598 6.92284 6.18792C6.61241 6.19986 6.37043 6.46119 6.38237 6.77162L6.64199 13.5216C6.65393 13.832 6.91526 14.074 7.22569 14.0621C7.53612 14.0501 7.7781 13.7888 7.76616 13.4784L7.50654 6.72838ZM11.6171 6.77162C11.6291 6.46119 11.3871 6.19986 11.0767 6.18792C10.7662 6.17598 10.5049 6.41795 10.493 6.72838L10.2333 13.4784C10.2214 13.7888 10.4634 14.0501 10.7738 14.0621C11.0842 14.074 11.3456 13.832 11.3575 13.5216L11.6171 6.77162Z" fill="#FF3939"/>
</svg>
