<svg width="18" height="18" viewBox="0 0 18 18" fill="none" xmlns="http://www.w3.org/2000/svg">
<path d="M17.1093 0.890704C16.255 0.036432 14.87 0.036432 14.0157 0.890704L13.0514 1.85499L16.145 4.94859L17.1093 3.9843C17.9636 3.13002 17.9636 1.74498 17.1093 0.890704Z" fill="white"/>
<path d="M15.2611 5.83247L12.1675 2.73888L5.16683 9.73958C4.65284 10.2536 4.27501 10.8875 4.0675 11.5842L3.40101 13.8216C3.3355 14.0415 3.39579 14.2797 3.55806 14.4419C3.72034 14.6042 3.95849 14.6645 4.17843 14.599L6.41584 13.9325C7.11248 13.725 7.74644 13.3472 8.26043 12.8332L15.2611 5.83247Z" fill="white"/>
<path d="M3.375 3.37499C1.99429 3.37499 0.875 4.49428 0.875 5.87499V14.625C0.875 16.0057 1.99429 17.125 3.375 17.125H12.125C13.5057 17.125 14.625 16.0057 14.625 14.625V10.25C14.625 9.90482 14.3452 9.625 14 9.625C13.6548 9.625 13.375 9.90482 13.375 10.25V14.625C13.375 15.3154 12.8154 15.875 12.125 15.875H3.375C2.68464 15.875 2.125 15.3154 2.125 14.625V5.87499C2.125 5.18464 2.68464 4.62499 3.375 4.62499H7.75C8.09518 4.62499 8.375 4.34517 8.375 3.99999C8.375 3.65482 8.09518 3.37499 7.75 3.37499H3.375Z" fill="white"/>
</svg>
