<svg width="18" height="18" viewBox="0 0 18 18" fill="none" xmlns="http://www.w3.org/2000/svg">
<path d="M8.375 3.44745C8.375 3.15148 8.21996 2.88397 8.04066 2.6485C7.85659 2.40675 7.75 2.12 7.75 1.8125C7.75 0.949555 8.58947 0.25 9.625 0.25C10.6605 0.25 11.5 0.949555 11.5 1.8125C11.5 2.12 11.3934 2.40675 11.2093 2.6485C11.03 2.88397 10.875 3.15149 10.875 3.44745C10.875 3.72441 11.1064 3.9455 11.3829 3.929C12.9751 3.83399 14.5415 3.6444 16.0768 3.36582C16.2458 3.33516 16.4199 3.37537 16.5583 3.47701C16.6967 3.57864 16.7872 3.73275 16.8086 3.90314C16.9952 5.39437 17.1011 6.91052 17.1216 8.44704C17.1256 8.75235 16.8778 8.99991 16.5724 9C16.2765 9 16.009 8.84496 15.7735 8.66566C15.5317 8.48159 15.245 8.375 14.9375 8.375C14.0746 8.375 13.375 9.21447 13.375 10.25C13.375 11.2855 14.0746 12.125 14.9375 12.125C15.245 12.125 15.5317 12.0184 15.7735 11.8343C16.009 11.655 16.2765 11.5 16.5724 11.5C16.8311 11.5 17.0365 11.7181 17.0179 11.9761C16.919 13.3415 16.7526 14.6884 16.522 16.0134C16.4767 16.2733 16.2732 16.4768 16.0134 16.522C14.4974 16.7858 12.9528 16.9656 11.3846 17.0564C11.1071 17.0724 10.875 16.8504 10.875 16.5724C10.875 16.2765 11.03 16.009 11.2093 15.7735C11.3934 15.5318 11.5 15.245 11.5 14.9375C11.5 14.0746 10.6605 13.375 9.625 13.375C8.58947 13.375 7.75 14.0746 7.75 14.9375C7.75 15.245 7.85659 15.5318 8.04066 15.7735C8.21996 16.009 8.375 16.2765 8.375 16.5724C8.375 16.8738 8.1283 17.1171 7.8271 17.1086C6.50252 17.071 5.19365 16.97 3.90344 16.8085C3.73305 16.7871 3.57894 16.6966 3.47731 16.5582C3.37567 16.4198 3.33546 16.2457 3.36612 16.0767C3.61019 14.7317 3.78596 13.3628 3.88966 11.9736C3.90882 11.7171 3.70469 11.5 3.44745 11.5C3.15148 11.5 2.88397 11.655 2.6485 11.8343C2.40675 12.0184 2.12 12.125 1.8125 12.125C0.949555 12.125 0.25 11.2855 0.25 10.25C0.25 9.21447 0.949555 8.375 1.8125 8.375C2.12 8.375 2.40675 8.48159 2.6485 8.66566C2.88397 8.84496 3.15149 9 3.44745 9C3.75275 9 4.00065 8.75248 3.99645 8.44721C3.97778 7.09037 3.89052 5.75022 3.73799 4.43024C3.71609 4.24067 3.78198 4.05149 3.91692 3.91655C4.05185 3.78162 4.24104 3.71572 4.4306 3.73763C5.54918 3.86688 6.68217 3.94927 7.82755 3.98276C8.12846 3.99156 8.375 3.74848 8.375 3.44745Z" fill="white"/>
</svg>
